<mxfile host="app.diagrams.net" modified="2022-12-06T04:57:29.518Z" agent="5.0 (Windows NT 10.0; Win64; x64) AppleWebKit/537.36 (KHTML, like Gecko) Chrome/107.0.0.0 Safari/537.36 Edg/107.0.1418.62" etag="PnuUXqUuJ0ZM3h5bKXsU" version="20.6.0" type="github" pages="2">
  <diagram id="E_PZDa71RXzEWNVLraTa" name="第 1 页">
    <mxGraphModel dx="735" dy="474" grid="1" gridSize="10" guides="1" tooltips="1" connect="1" arrows="1" fold="1" page="1" pageScale="1" pageWidth="827" pageHeight="1169" math="0" shadow="0">
      <root>
        <mxCell id="0" />
        <mxCell id="1" parent="0" />
        <mxCell id="_M1eNCLDucHc3AhpYlNb-1" value="&lt;b&gt;&lt;font style=&quot;font-size: 14px;&quot;&gt;Sensor&lt;/font&gt;&lt;/b&gt;" style="rounded=1;whiteSpace=wrap;html=1;horizontal=1;verticalAlign=top;movable=0;resizable=0;rotatable=0;deletable=0;editable=0;connectable=0;" parent="1" vertex="1">
          <mxGeometry x="240" y="40" width="160" height="90" as="geometry" />
        </mxCell>
        <mxCell id="_M1eNCLDucHc3AhpYlNb-9" value="&lt;font style=&quot;font-size: 18px;&quot;&gt;Manager&lt;/font&gt;" style="rounded=1;whiteSpace=wrap;html=1;" parent="1" vertex="1">
          <mxGeometry x="260" y="200" width="120" height="60" as="geometry" />
        </mxCell>
        <mxCell id="_M1eNCLDucHc3AhpYlNb-12" value="power" style="rounded=1;whiteSpace=wrap;html=1;verticalAlign=top;movable=1;resizable=1;rotatable=1;deletable=1;editable=1;connectable=1;" parent="1" vertex="1">
          <mxGeometry x="480" y="40" width="160" height="80" as="geometry" />
        </mxCell>
        <mxCell id="_M1eNCLDucHc3AhpYlNb-14" value="main power &amp;amp; battery backup" style="rounded=1;whiteSpace=wrap;html=1;movable=1;resizable=1;rotatable=1;deletable=1;editable=1;connectable=1;" parent="1" vertex="1">
          <mxGeometry x="510" y="70" width="110" height="50" as="geometry" />
        </mxCell>
        <mxCell id="_M1eNCLDucHc3AhpYlNb-15" value="power circuit monitor" style="rounded=1;whiteSpace=wrap;html=1;" parent="1" vertex="1">
          <mxGeometry x="500" y="200" width="120" height="60" as="geometry" />
        </mxCell>
        <mxCell id="_M1eNCLDucHc3AhpYlNb-16" value="Alarm &amp;amp; Light" style="rounded=1;whiteSpace=wrap;html=1;" parent="1" vertex="1">
          <mxGeometry x="60" y="200" width="120" height="60" as="geometry" />
        </mxCell>
        <mxCell id="_M1eNCLDucHc3AhpYlNb-19" value="&lt;div&gt;(movement detectors &amp;amp; doorsdetectors&lt;/div&gt;&lt;div&gt;&amp;amp; window sensors)&lt;/div&gt;" style="rounded=1;whiteSpace=wrap;html=1;movable=0;resizable=0;rotatable=0;deletable=0;editable=0;connectable=0;" parent="1" vertex="1">
          <mxGeometry x="260" y="70" width="120" height="60" as="geometry" />
        </mxCell>
        <mxCell id="_M1eNCLDucHc3AhpYlNb-22" value="" style="endArrow=classic;html=1;rounded=0;fontSize=18;entryX=0.5;entryY=0;entryDx=0;entryDy=0;" parent="1" target="_M1eNCLDucHc3AhpYlNb-9" edge="1">
          <mxGeometry width="50" height="50" relative="1" as="geometry">
            <mxPoint x="320" y="130" as="sourcePoint" />
            <mxPoint x="400" y="210" as="targetPoint" />
          </mxGeometry>
        </mxCell>
        <mxCell id="_M1eNCLDucHc3AhpYlNb-23" value="&lt;span style=&quot;color: rgb(255, 87, 98);&quot;&gt;intruder&amp;nbsp;&lt;/span&gt;&lt;font color=&quot;#ff5762&quot;&gt;detect&lt;/font&gt;" style="edgeLabel;html=1;align=center;verticalAlign=middle;resizable=0;points=[];fontSize=18;labelBackgroundColor=none;" parent="_M1eNCLDucHc3AhpYlNb-22" vertex="1" connectable="0">
          <mxGeometry x="-0.5596" y="-1" relative="1" as="geometry">
            <mxPoint x="1" y="15" as="offset" />
          </mxGeometry>
        </mxCell>
        <mxCell id="_M1eNCLDucHc3AhpYlNb-24" value="" style="endArrow=classic;html=1;rounded=0;fontSize=18;entryX=1;entryY=0.5;entryDx=0;entryDy=0;exitX=0;exitY=0.5;exitDx=0;exitDy=0;fillColor=none;" parent="1" source="_M1eNCLDucHc3AhpYlNb-15" target="_M1eNCLDucHc3AhpYlNb-9" edge="1">
          <mxGeometry width="50" height="50" relative="1" as="geometry">
            <mxPoint x="430" y="290" as="sourcePoint" />
            <mxPoint x="440" y="170" as="targetPoint" />
          </mxGeometry>
        </mxCell>
        <mxCell id="_M1eNCLDucHc3AhpYlNb-25" value="&lt;font color=&quot;#ff5762&quot;&gt;voltage drop&lt;br&gt;or not&lt;br&gt;&lt;/font&gt;" style="edgeLabel;html=1;align=center;verticalAlign=middle;resizable=0;points=[];fontSize=18;labelBackgroundColor=none;" parent="_M1eNCLDucHc3AhpYlNb-24" vertex="1" connectable="0">
          <mxGeometry x="-0.5596" y="-1" relative="1" as="geometry">
            <mxPoint x="-26" y="15" as="offset" />
          </mxGeometry>
        </mxCell>
        <mxCell id="_M1eNCLDucHc3AhpYlNb-26" value="" style="endArrow=classic;html=1;rounded=0;fontSize=18;entryX=0.5;entryY=0;entryDx=0;entryDy=0;" parent="1" target="_M1eNCLDucHc3AhpYlNb-15" edge="1">
          <mxGeometry width="50" height="50" relative="1" as="geometry">
            <mxPoint x="560" y="120" as="sourcePoint" />
            <mxPoint x="390" y="240" as="targetPoint" />
          </mxGeometry>
        </mxCell>
        <mxCell id="_M1eNCLDucHc3AhpYlNb-27" value="&lt;font color=&quot;#ff5762&quot;&gt;voltage information&lt;/font&gt;" style="edgeLabel;html=1;align=center;verticalAlign=middle;resizable=0;points=[];fontSize=18;labelBackgroundColor=none;" parent="_M1eNCLDucHc3AhpYlNb-26" vertex="1" connectable="0">
          <mxGeometry x="-0.5596" y="-1" relative="1" as="geometry">
            <mxPoint x="3" y="15" as="offset" />
          </mxGeometry>
        </mxCell>
        <mxCell id="qmXR1nJ0dRQS9-cGGJr2-3" value="&lt;font style=&quot;font-size: 15px;&quot;&gt;Police Caller&lt;/font&gt;" style="rounded=1;whiteSpace=wrap;html=1;verticalAlign=middle;" vertex="1" parent="1">
          <mxGeometry x="255" y="320" width="130" height="60" as="geometry" />
        </mxCell>
        <mxCell id="qmXR1nJ0dRQS9-cGGJr2-1" value="" style="endArrow=classic;html=1;rounded=0;fontSize=18;entryX=1;entryY=0.5;entryDx=0;entryDy=0;exitX=0;exitY=0.5;exitDx=0;exitDy=0;" edge="1" parent="1" source="_M1eNCLDucHc3AhpYlNb-9" target="_M1eNCLDucHc3AhpYlNb-16">
          <mxGeometry width="50" height="50" relative="1" as="geometry">
            <mxPoint x="510" y="240" as="sourcePoint" />
            <mxPoint x="390" y="240" as="targetPoint" />
          </mxGeometry>
        </mxCell>
        <mxCell id="qmXR1nJ0dRQS9-cGGJr2-2" value="&lt;font color=&quot;#ff5762&quot;&gt;control&lt;/font&gt;" style="edgeLabel;html=1;align=center;verticalAlign=middle;resizable=0;points=[];fontSize=18;labelBackgroundColor=none;" vertex="1" connectable="0" parent="qmXR1nJ0dRQS9-cGGJr2-1">
          <mxGeometry x="-0.5596" y="-1" relative="1" as="geometry">
            <mxPoint x="-26" y="15" as="offset" />
          </mxGeometry>
        </mxCell>
        <mxCell id="qmXR1nJ0dRQS9-cGGJr2-4" value="" style="endArrow=classic;html=1;rounded=0;fontSize=18;entryX=0.5;entryY=0;entryDx=0;entryDy=0;exitX=0.5;exitY=1;exitDx=0;exitDy=0;" edge="1" parent="1" source="_M1eNCLDucHc3AhpYlNb-9" target="qmXR1nJ0dRQS9-cGGJr2-3">
          <mxGeometry width="50" height="50" relative="1" as="geometry">
            <mxPoint x="330" y="140" as="sourcePoint" />
            <mxPoint x="330" y="210" as="targetPoint" />
          </mxGeometry>
        </mxCell>
        <mxCell id="qmXR1nJ0dRQS9-cGGJr2-5" value="&lt;font color=&quot;#ff5762&quot;&gt;call the police&lt;/font&gt;" style="edgeLabel;html=1;align=center;verticalAlign=middle;resizable=0;points=[];fontSize=18;labelBackgroundColor=none;" vertex="1" connectable="0" parent="qmXR1nJ0dRQS9-cGGJr2-4">
          <mxGeometry x="-0.5596" y="-1" relative="1" as="geometry">
            <mxPoint x="1" y="15" as="offset" />
          </mxGeometry>
        </mxCell>
      </root>
    </mxGraphModel>
  </diagram>
  <diagram name="第 1 页 的副本" id="st3JCzRL4VlpwhLAfI-o">
    <mxGraphModel dx="782" dy="474" grid="1" gridSize="10" guides="1" tooltips="1" connect="1" arrows="1" fold="1" page="1" pageScale="1" pageWidth="827" pageHeight="1169" math="0" shadow="0">
      <root>
        <mxCell id="eJwGy8HMhK4u4onspVvN-0" />
        <mxCell id="eJwGy8HMhK4u4onspVvN-1" parent="eJwGy8HMhK4u4onspVvN-0" />
        <mxCell id="-EQ0a3hTWIqZZqEQUYN6-0" value="Monitoring sub-system" style="rounded=0;whiteSpace=wrap;html=1;labelBackgroundColor=none;fontSize=15;verticalAlign=top;fontFamily=Helvetica;" vertex="1" parent="eJwGy8HMhK4u4onspVvN-1">
          <mxGeometry x="40" y="40" width="200" height="360" as="geometry" />
        </mxCell>
        <mxCell id="eJwGy8HMhK4u4onspVvN-2" value="&lt;b&gt;&lt;font style=&quot;font-size: 14px;&quot;&gt;Sensor&lt;/font&gt;&lt;/b&gt;" style="rounded=1;whiteSpace=wrap;html=1;horizontal=1;verticalAlign=top;movable=1;resizable=1;rotatable=1;deletable=1;editable=1;connectable=1;" vertex="1" parent="eJwGy8HMhK4u4onspVvN-1">
          <mxGeometry x="670" y="30" width="160" height="90" as="geometry" />
        </mxCell>
        <mxCell id="eJwGy8HMhK4u4onspVvN-3" value="&lt;font style=&quot;font-size: 18px;&quot;&gt;Manager&lt;/font&gt;" style="rounded=1;whiteSpace=wrap;html=1;" vertex="1" parent="eJwGy8HMhK4u4onspVvN-1">
          <mxGeometry x="660" y="200" width="120" height="60" as="geometry" />
        </mxCell>
        <mxCell id="eJwGy8HMhK4u4onspVvN-4" value="power" style="rounded=1;whiteSpace=wrap;html=1;verticalAlign=top;movable=1;resizable=1;rotatable=1;deletable=1;editable=1;connectable=1;" vertex="1" parent="eJwGy8HMhK4u4onspVvN-1">
          <mxGeometry x="890" y="30" width="160" height="80" as="geometry" />
        </mxCell>
        <mxCell id="eJwGy8HMhK4u4onspVvN-5" value="main power &amp;amp; battery backup" style="rounded=1;whiteSpace=wrap;html=1;movable=1;resizable=1;rotatable=1;deletable=1;editable=1;connectable=1;" vertex="1" parent="eJwGy8HMhK4u4onspVvN-1">
          <mxGeometry x="920" y="60" width="110" height="50" as="geometry" />
        </mxCell>
        <mxCell id="eJwGy8HMhK4u4onspVvN-6" value="power circuit monitor" style="rounded=1;whiteSpace=wrap;html=1;" vertex="1" parent="eJwGy8HMhK4u4onspVvN-1">
          <mxGeometry x="900" y="200" width="120" height="60" as="geometry" />
        </mxCell>
        <mxCell id="eJwGy8HMhK4u4onspVvN-7" value="Alarm &amp;amp; Light" style="rounded=1;whiteSpace=wrap;html=1;" vertex="1" parent="eJwGy8HMhK4u4onspVvN-1">
          <mxGeometry x="460" y="200" width="120" height="60" as="geometry" />
        </mxCell>
        <mxCell id="eJwGy8HMhK4u4onspVvN-9" value="" style="endArrow=classic;html=1;rounded=0;fontSize=18;entryX=0.5;entryY=0;entryDx=0;entryDy=0;" edge="1" parent="eJwGy8HMhK4u4onspVvN-1" target="eJwGy8HMhK4u4onspVvN-3">
          <mxGeometry width="50" height="50" relative="1" as="geometry">
            <mxPoint x="500" y="120" as="sourcePoint" />
            <mxPoint x="400" y="210" as="targetPoint" />
          </mxGeometry>
        </mxCell>
        <mxCell id="eJwGy8HMhK4u4onspVvN-10" value="&lt;span style=&quot;color: rgb(255, 87, 98);&quot;&gt;intruder&amp;nbsp;&lt;/span&gt;&lt;font color=&quot;#ff5762&quot;&gt;detect&lt;/font&gt;" style="edgeLabel;html=1;align=center;verticalAlign=middle;resizable=0;points=[];fontSize=18;labelBackgroundColor=none;" vertex="1" connectable="0" parent="eJwGy8HMhK4u4onspVvN-9">
          <mxGeometry x="-0.5596" y="-1" relative="1" as="geometry">
            <mxPoint x="1" y="15" as="offset" />
          </mxGeometry>
        </mxCell>
        <mxCell id="eJwGy8HMhK4u4onspVvN-11" value="" style="endArrow=classic;html=1;rounded=0;fontSize=18;entryX=1;entryY=0.5;entryDx=0;entryDy=0;exitX=0;exitY=0.5;exitDx=0;exitDy=0;fillColor=none;" edge="1" parent="eJwGy8HMhK4u4onspVvN-1" source="eJwGy8HMhK4u4onspVvN-6" target="eJwGy8HMhK4u4onspVvN-3">
          <mxGeometry width="50" height="50" relative="1" as="geometry">
            <mxPoint x="830" y="290" as="sourcePoint" />
            <mxPoint x="840" y="170" as="targetPoint" />
          </mxGeometry>
        </mxCell>
        <mxCell id="eJwGy8HMhK4u4onspVvN-12" value="&lt;font color=&quot;#ff5762&quot;&gt;voltage drop&lt;br&gt;or not&lt;br&gt;&lt;/font&gt;" style="edgeLabel;html=1;align=center;verticalAlign=middle;resizable=0;points=[];fontSize=18;labelBackgroundColor=none;" vertex="1" connectable="0" parent="eJwGy8HMhK4u4onspVvN-11">
          <mxGeometry x="-0.5596" y="-1" relative="1" as="geometry">
            <mxPoint x="-26" y="15" as="offset" />
          </mxGeometry>
        </mxCell>
        <mxCell id="eJwGy8HMhK4u4onspVvN-13" value="" style="endArrow=classic;html=1;rounded=0;fontSize=18;entryX=0.5;entryY=0;entryDx=0;entryDy=0;" edge="1" parent="eJwGy8HMhK4u4onspVvN-1" target="eJwGy8HMhK4u4onspVvN-6">
          <mxGeometry width="50" height="50" relative="1" as="geometry">
            <mxPoint x="740" y="130" as="sourcePoint" />
            <mxPoint x="390" y="240" as="targetPoint" />
          </mxGeometry>
        </mxCell>
        <mxCell id="eJwGy8HMhK4u4onspVvN-14" value="&lt;font color=&quot;#ff5762&quot;&gt;voltage information&lt;/font&gt;" style="edgeLabel;html=1;align=center;verticalAlign=middle;resizable=0;points=[];fontSize=18;labelBackgroundColor=none;" vertex="1" connectable="0" parent="eJwGy8HMhK4u4onspVvN-13">
          <mxGeometry x="-0.5596" y="-1" relative="1" as="geometry">
            <mxPoint x="3" y="15" as="offset" />
          </mxGeometry>
        </mxCell>
        <mxCell id="eJwGy8HMhK4u4onspVvN-15" value="&lt;font style=&quot;font-size: 15px;&quot;&gt;Police Caller&lt;/font&gt;" style="rounded=1;whiteSpace=wrap;html=1;verticalAlign=middle;" vertex="1" parent="eJwGy8HMhK4u4onspVvN-1">
          <mxGeometry x="655" y="320" width="130" height="60" as="geometry" />
        </mxCell>
        <mxCell id="eJwGy8HMhK4u4onspVvN-16" value="" style="endArrow=classic;html=1;rounded=0;fontSize=18;entryX=1;entryY=0.5;entryDx=0;entryDy=0;exitX=0;exitY=0.5;exitDx=0;exitDy=0;" edge="1" parent="eJwGy8HMhK4u4onspVvN-1" source="eJwGy8HMhK4u4onspVvN-3" target="eJwGy8HMhK4u4onspVvN-7">
          <mxGeometry width="50" height="50" relative="1" as="geometry">
            <mxPoint x="910" y="240" as="sourcePoint" />
            <mxPoint x="790" y="240" as="targetPoint" />
          </mxGeometry>
        </mxCell>
        <mxCell id="eJwGy8HMhK4u4onspVvN-17" value="&lt;font color=&quot;#ff5762&quot;&gt;control&lt;/font&gt;" style="edgeLabel;html=1;align=center;verticalAlign=middle;resizable=0;points=[];fontSize=18;labelBackgroundColor=none;" vertex="1" connectable="0" parent="eJwGy8HMhK4u4onspVvN-16">
          <mxGeometry x="-0.5596" y="-1" relative="1" as="geometry">
            <mxPoint x="-26" y="15" as="offset" />
          </mxGeometry>
        </mxCell>
        <mxCell id="eJwGy8HMhK4u4onspVvN-18" value="" style="endArrow=classic;html=1;rounded=0;fontSize=18;entryX=0.5;entryY=0;entryDx=0;entryDy=0;exitX=0.5;exitY=1;exitDx=0;exitDy=0;" edge="1" parent="eJwGy8HMhK4u4onspVvN-1" source="eJwGy8HMhK4u4onspVvN-3" target="eJwGy8HMhK4u4onspVvN-15">
          <mxGeometry width="50" height="50" relative="1" as="geometry">
            <mxPoint x="730" y="140" as="sourcePoint" />
            <mxPoint x="730" y="210" as="targetPoint" />
          </mxGeometry>
        </mxCell>
        <mxCell id="eJwGy8HMhK4u4onspVvN-19" value="&lt;font color=&quot;#ff5762&quot;&gt;call the police&lt;/font&gt;" style="edgeLabel;html=1;align=center;verticalAlign=middle;resizable=0;points=[];fontSize=18;labelBackgroundColor=none;" vertex="1" connectable="0" parent="eJwGy8HMhK4u4onspVvN-18">
          <mxGeometry x="-0.5596" y="-1" relative="1" as="geometry">
            <mxPoint x="1" y="15" as="offset" />
          </mxGeometry>
        </mxCell>
        <mxCell id="-EQ0a3hTWIqZZqEQUYN6-1" value="movement detector" style="rounded=1;whiteSpace=wrap;html=1;labelBackgroundColor=none;fontFamily=Helvetica;fontSize=15;" vertex="1" parent="eJwGy8HMhK4u4onspVvN-1">
          <mxGeometry x="60" y="270" width="120" height="60" as="geometry" />
        </mxCell>
        <mxCell id="-EQ0a3hTWIqZZqEQUYN6-2" value="door detector" style="rounded=1;whiteSpace=wrap;html=1;labelBackgroundColor=none;fontFamily=Helvetica;fontSize=15;" vertex="1" parent="eJwGy8HMhK4u4onspVvN-1">
          <mxGeometry x="60" y="190" width="120" height="60" as="geometry" />
        </mxCell>
        <mxCell id="-EQ0a3hTWIqZZqEQUYN6-3" value="Window Sensor" style="rounded=1;whiteSpace=wrap;html=1;labelBackgroundColor=none;fontFamily=Helvetica;fontSize=15;" vertex="1" parent="eJwGy8HMhK4u4onspVvN-1">
          <mxGeometry x="60" y="110" width="120" height="60" as="geometry" />
        </mxCell>
        <mxCell id="-EQ0a3hTWIqZZqEQUYN6-4" value="" style="shape=image;verticalLabelPosition=bottom;labelBackgroundColor=default;verticalAlign=top;aspect=fixed;imageAspect=0;image=data:image/png,iVBORw0KGgoAAAANSUhEUgAAA+oAAAHDCAYAAACzouAFAAAgAElEQVR4nOzdd3hUxfrA8e/Z7G42vYeE9ELv0pWmggKKDUFFsVcUsYDYfleunaYg2L0Igg1RmjTpIEVFagglARKSkN7LZvvvj3VPdtndJCAQynzuc58nmzlzds7O2ch7ZuYdyWKxWLhImC1mysoqqNXpAKmpmyMIgiAIgiAIgiBcTv4Jf9UqFSGhQUgXadwpXUyBuiAIgiAIgiAIgiBcGGZA0dSNcOnibJUgCIIgCIIgCIIgnFcXbzh88bZMEARBEARBEARBEK5AIlAXBEEQBEEQBEEQhIuICNQFQRAEQRAEQRAE4SIiAnVBEARBEARBEARBuIiIQF0QBEEQBEEQBEEQLiIiUBcEQRAEQRAEQRCEi4gI1AVBEARBEARBEAThIiICdUEQBEEQBEEQBEG4iIhAXRAEQRAEQRAEQRAuIiJQFwRBEARBEARBEISLiLKpG9CUMnPymfrlQvm10kPB1FeeQKW0fiyzv1nC4eNZcvk1Xdtxz7DrADh6IpuP5i2Wy7y9PJky8XH59XuffU9OXpH8+sZ+3Rh2XW8ADhw5weff/yqXBQX48tbzD8mvX5s+h/LKavn1nYP7MqBXZwD+PnCUr39eI5dFhAbx+jP3AWAwGBn/3ueYzGa5/MHhN9KtQ0sAtvy5n4UrN8tlsc3DeenxuwCoqtby8tSvHD6fsfffRqvEGABWbvqDlZv+lMtaxEcx7sE7ACguq+CNGfMc6r7y5D1ERYQC8OOKTWz964Bc1r5lPE+OGgbAqYJi3v3kO4e677z4MAF+PgD8b+Eq9qSmy2VXtWvBwyMGA5CRnce0r36Sy1RKJdNffQKFwvr8aebcX0jLyJHL+3XvwMibBgBw5HgWs75ZIpf5emt4/6XH6trw8bfkFpbIr4cO6MHQAT0B2H/4OF/8sEIuCw70483nHpRfvzz1K6qqtfLrkTf1p1/3jgD8tf8I8375TS6LDA/mtTH3AqDTG3jx3c8cPotHRgymS7sWAGzcuZefV2+Vy+KjmjH+sZEAVFTV8Oq0/znUHffgHbSIjwJg+fodrNm6Sy5rmRDNsw/cDkBRSTmTPvrGoe7rT99LRFgwAN8v38C2vw/KZR1aJfDEPTcDkJNXxHuffe9Q9/0Jj+Lr4wXAlz+sYN/h43JZtw4teXD4jQAcz8rlg/8tksvUKhUfvPak/PqDOYs4fjJXfj2gVyfuHNwPgEPHTvLx/KVymZ+PF+9NeFR+/eas+RQUl8mvh13Xixv7dQdg36FjfPnjSrksNMifSeMeAMBisTBx8pfU1Ork8nuGXcs1XdsD8MfeQ8xfsk4ui2oWwitPjQKgVqdn/HufO3wWj909lE6tkwBYv303i3/bJpclxETw4iMjACivrOa16XMc6r7w8J0kxkYCsHTtNtZu2y2XtU6M4Zn7bwOgoLiMN2fNd6j7n7GjCQ8JBGDB0nXs3HNILuvYOpHH774JgKzcQiZ//oNcJkkSUyY+hpfGE4DPvltOytEMubxnp9aMvn0QAMcyT/Hh1z/LZRpPNdNeeUJ+Pe3LhWTk5Muvr7+6C7ff0AeA1LRMPvl2mVwW4OfNOy8+Ir+eNHMeRaUV8utbB17NoD5dAdhzMJ3//bRKLgsLDuCNZ+8HwGQ289L7X6DTG+Ty+269nl5d2gKwffdBvlu2QS6Ljgjl5SfvAaCmVsdL73/h8Dk+Oepm2rdMAOC3rbtYtn6HXJYYG8kLD98JQFlFFa9/8LVD3fGPjSA+KgKAX9ZsZcOOvXJZm+RYnr7vVgDyi0p5a/YCh7r/HfcAIUH+AHzzy2/8uf+IXNa5TRKP3jUUgJOnCpjyxY8A3HRtT4b074EgCIIgCJeHKzpQ91SrSIiOkF97KBRISPLriLAgh3/wBQf6yz97eaod6mo81Q7njgoPQa2s+3gD/Xzln729PB3q+v0T1NjERoZRFeBXV+7rLf/s461xqBtsd5wkScRHN8NsttQd76WRf/b39Xao2yw0qO7aPRQOZadfU6C/r0N5hF1dpYeHU12Vqu7aQwP9HcrDgwPln9VKpVNdD4+6iR7hIYEO5WHBAfLPp/ef0sPD4TyRYcEYjSb5tf1ndXr/eZ3efxGhDtcfUE//+dv1D0BcZLhDoOfnXVfue1r/hdjdUwpJcvosvO36L+C0/otoqP/UKvnnoIB6+k/pov/s7t3QoHr6T+Xcf4p6+i80qK7/NKf1n0rp2H/Nw4Kx2N3Lwf7u+8/7n8DSJjoi1PHe/+fBDzj3X4BdGUBcVDi1urrvva933ffT18fL7fW47D+Nff/5OJRHhgbLP7vqP0+H/vNz+91Vuey/us8yLCjAbf95ntZ/kmT9O2L/PtU1tfJrW/AIoPF07D+1yvE/J83DQxzOFeRf9x3y0jj2n31fAURHhOHnU/e9se8/H2/H/gu0O6+E9QGW3mC0O76u//xO6z/7vyeu+s/L7r4K9D/D/lPV9V/w6f0XUn//Ke37LzjAbZtt/XfoWCaTP/9eBOqCIAiCcBmRLBaLpeHDLk+PvjKdWwdezbDrezd1UwRBEAThrKzc+Aez5i9m1Zz3m7opgiAIgiCcI1f0iHppeSW1On1TN0MQBEEQztrQa3sy9NqeTd0MQRAEQRDOIZFMThAEQRAEQRAEQRAuIiJQFwRBEIRLmMlsxmA0NnygIAiCIAiXjCs6UH/7xYcZ0KtTUzdDEARBEM7ayg07GXT/hKZuhiAIgiAI59AVvUa9TVJsUzdBEARBEARBEARBEBxc0SPqgiAIgiAIgiAIgnCxuaID9QVL1nHgyPGmboYgCIIgCIIgCIIgyK7oQH3xb79z+FhWUzdDEARBEM5ah9ZJjH9kZFM3QxAEQRCEc+iKXqMuCIIgCJe6+OhmxEc3a+pmCIIgCIJwDl3RI+qCIAiCIAiCIAiCcLG5ogP1yLAgfL01Td0MQRAEQThrBcVl7DpwpKmbIQiCIAjCOSRZLBZLUzficmEymXjvvfcwGo3y70aMGEG7du0aVb+mpoapU6di65JevXoxePDg89LWszFjxgzKysoICgpi3LhxTuVmsxmDwYCnp+cFb1t+fj6ffvopAM8++yzBwcEXvA2Xkr1797JkyRIAxo0bR1BQUBO36OLQlPewIJyt5eu2M33OT2z67sOmboogCIIgCOfIFT2ifiEcOnSo0cfu3r2bS/W5SXV1NbNmzWLbtm1N3RRBOCs6nY5Zs2axZcuWpm6KIAiCIAiCcIUTyeTOs/T0dMxmMwpF/c9ETCYTmzZtukCtOrdqa2v58MMPHWYSCMKlRK/XM3XqVIxG4yX7sEwQBEEQBEG4fFzRgfoDE97njhv6cuuga875uQMCAigvL6e2tpZDhw41OP29rKxMDnQlSboog4WHHnoIi8WCJElOZU0dpIeGhvLcc88B4Ofn16RtES49Foulye9hQThbSqUSH2+vpm6GIAiCIAjn0BUdqFdV16I3nJ9/nPv5+eHt7U1ubi779u1rMFBPSUkBID4+ntzcXHQ63Xlp178REBDQ1E1wy8PDg8DAwKZuhiAIwgU3ZEAPhgzo0dTNEARBEAThHLqiA/XzrUWLFuTm5pKdne12JBqso9E7duwAYPDgwXz99dcNnttkMpGZmUlBQQFarRa1Wk1ISAhJSUmoVCqXdUpKSqipqUGtVhMeHi6fIy8vD51Oh6+vL1FRUURGRrps66lTpzCbzXh4eBAZGQlYk7hVVVXJx1RUVJCdnQ1AZGQkHh4eTtd67NgxioqK0Ov1aDQawsLCiI+PR6l0fTsWFhai0+nw8fEhKCiI48ePk5WVhZeXF4mJiYSGhqLX6ykoKAAgIiLC4Vy29oSEhODl5UVNTQ0nTpygqKgIgODgYOLi4vD396/3MzcajWRlZZGTk4PRaMTf35+EhASCgoKora2Vz9e8efMGlzqcTq/Xk5mZSX5+PgaDAbVaTXBwMNHR0S5nCNhfr+26XCkoKECv16NSqWjWzP0+y2azmRMnTpCbm4vBYCA4OJjY2NhzkmTObDaTm5tLTk4O1dXVKBQKAgMDiYiIIDw83OFeM5vNnDp1CrA+GKpvdoRWq6W4uBiA8PBw1Gq1XFZZWcnJkycpKSnBaDTi7e1NSEiIy/usoKDA4R6urKys9x42m81kZGSQn59PbW0tnp6ehIeHk5CQ4HSsTVFREbW1tXh7exMcHIxer+f48eMUFBRgsVgIDQ0lMTHRoR8rKirIyMigpKQEDw8PYmJiiIuLc/t3RBAEQRAEQbh8iED9POrYsSNbtmyhpqaGtLQ0WrZs6fK43NxcamtrUavVhIWFNXje9PR0li5dSmVlpVOZQqHglltuoUOHDk5Bw/bt29m1axeJiYncdNNNLFy4kPz8fKdztG3blmHDhjkFfwsXLnTK+r5kyRJyc3PlY/bu3cvevXsBmDBhAj4+PoD1wUJKSgrLli3DZDI5vaePjw+33347SUlJToHIihUryMjIoGfPngQHB7Nq1SqH8ueeew6dTsdXX30FOGd9nzt3Lkajkfvvv5/q6mqWLl3qNM3Zw8ODoUOHctVVVzm9v8ViISMjg59++omamhqHMkmSuPbaa4mKimL+/PkAvPrqqw5BY0MOHTrE4sWL0ev1TmUKhYK+ffvSt29fhwCzpKREvt5Ro0a5vbdWrFhBZmYmkZGRPPHEEy6PqaysZPHixZw8edKp7Oqrr2bAgAFndD32SkpK+OWXX+TA93TJycncfPPN8mwISZL45ptv0Ov1tG7dmrvvvtvtubdu3cr27dvRaDRMmDABsPbVtm3b2LBhA2az2amOUqnkjjvuoHXr1vLDlOXLl5OVlSUfc+DAAQ4cOADAiy++KD8ssFgsZGZmsmjRIofA3sbLy4s777yTxMREp3to3bp1HD58mE6dOtG9e3e+//57qqurHY5Rq9U8+uijhIeHs2/fPlasWOF0TwQFBfHYY4/h7e3t9nMRrjxGkwmTyYyn2vVDWkEQBEEQLj1XdNb3KRMf5/qru5y384eGhtK8eXMAfv/9d7fHHT16FICYmJh6R2ItFgt//fUXCxYsoLKyEqVSSWRkJO3btycuLg61Wo3ZbGbJkiWsXbvWZUAM1tHYOXPmkJ+fj5+fH5GRkYSFhclbUqWmprJs2bJGrZMPDAx0CIq9vLwIDQ0lNDRUDlbMZjPr1q1j8eLFmEwmVCoVcXFxtG/fnubNm6NUKqmurmbBggX1Zr4vLy+Xg3SVSoUkSURGRjZ6yntaWho///wzFouFkJAQmjdvTlBQEJIkYTKZWL58ucuA8uTJk8ybN4+amhr5Pdu1ayePnG/YsIHffvutUW04XXp6Oj/++CN6vR5fX19iY2Pp3LkziYmJ+Pj4YDab2bx5MytXrjyr8zfGDz/8wMmTJ/H19aVdu3a0adNGDgS3b9/OTz/9dFY5E/R6PfPmzSM7OxulUkmzZs3o1KkT7du3Jzg4GEmSSE9PZ8GCBQ73anR0NACHDx92GRCD9btg+94kJSXh4eEhB+nr1q3DbDYTGBhIixYt6Ny5M1FRUajVaoxGIwsXLuT48ePyuQICAhzuYY1GI9/Dtu+jxWIhNTWVuXPnUlVVhVqtJioqio4dO5KQkIBarUar1TJ//nwOHjzo9vOqrq7m66+/RqvVEhwc7HD/6vV6Pv30U/7++28WL16MxWIhLCyMyMhIuT9KS0v58ccfL8ocFkLTWbXxD2588KWmboYgCIIgCOfQFT2inhTX/Ly/R7t27Th16hSFhYUup7+bTCb+/PNPAG666aZ6p7VWVFTIAZuPjw9jxoyRR6xt5/r4448pKSlh586dREdH0759e6fzZGdnI0kSI0eOpG3btvLvDQYDU6ZMwWAwcOjQIYqKihoc4b/rrruora3l/fffB6B79+5cd911DsccPXpUntofEBDA2LFjHUaHa2pqmD17NjU1NSxfvpy4uDhCQ0Od3uvw4cOANaldXFwclZWV8vTvxtixYwdqtZrnn3/eYbZAWloa3377LQDffPMNr776qtwPer2eBQsWANYRzxdeeAGNRiPXLS8v55NPPnE5M6ExbFuBhYWF8fTTTzuUWSwW/ve//5GdnU1qairDhg07L9Oea2pq6NKlC7feeqvD73/44QcOHz5MWloaBw4coGPHjmd03h07dlBeXo5CoWDs2LFOOQ42b97Mxo0bKSoqIjU1lQ4dOiBJEsOGDWPmzJmA9aFRjx7Oa2/z8/PlpQZdu3YFrNurrVu3DoBevXoxePBghzparZbJkycDsGrVKp555hkkSeLOO+9Ep9Px3nvvAXDVVVdxww03ONQtLi7mp59+AsDb25uxY8c63ENGo5EvvviCgoICFi1aRGRkJCEhIU7tTk9PR5IknnrqKcLDw+Xfb9q0iU2bNmGxWFi+fDmhoaE88cQT8jIWo9HI7NmzKSsrIzMzk6qqKpE0URAEQRAE4TJ2RY+oXwi2Kclardbl1OLMzEx0Oh1+fn4Oo3qu2I9sPvzwww5BOlinbz/zzDPy721BiyuDBw+mTZs2Dr9TqVQ88MAD8mtbIPRvrV27FrAGuqcH6WANfB5//HH59aJFi9ye66GHHiI2NhawJuxLSkpqdDs8PDwYP36805T+5ORkWrRoAVgfVtgn8tuzZw8GgwGARx55RJ51YBMQEMDo0aMb3YbT2QL81q1bO5VJkiQ/9PD09KS8vPys36c+sbGx3HLLLU6/HzlypHxPns3e4nl5eYB1nberRIR9+/bF398ftVrt8KAjKChIXhtvS7J4ug0bNsjHJiQkADhME+/UqZNTHY1GIwfgHh4eaLXaRl+L/daJzzzzjNM9pFQqefjhh+XXmzdvdnuu++67z+kB2OkPQUaPHu2Qa0KpVHLXXXfJr93NNBAEQRAEQRAuD1f0iPpH3yymV+c29OjoHCSdK6GhoURGRpKbm8vq1at5/PHHHUZFDx06BFizvdenurpanpbdqlUrt0G9QqGgS5cu/P7775SVlZGVlUVMTIzTcQkJCS5HZ6OiolAoFJjN5nOSeT43N1dO+NWlSxe3ybYCAgJo164dBw8eJC8vj/LycqfgTqVSERMTc9ajyhqNxmWiPUmSSE5OJi0tDcBhbbPtd0FBQW6TsUVFRREeHn5Go/s2Pj4+6HQ69u7dy9VXX+0UAMbHx/P666+7TbR3LvTo0cPlZ6pQKOjYsSObNm2Sk7KdSTts15Kbm0tKSorT7A6FQsGzzz6Lh4eH0/u3bduWbdu2kZWVRWlpqVNSu5ycHMAa4Nrq2t9ba9as4d5773Xob0mS6NmzJz179nR7H7qi1Wo5ePAgAHFxcW4T93l6etKyZUuOHj3KgQMHGDp0qMPsC1sboqKinK7X/qFbYGCgy8SG9u/rav29IAgXL22tjiPHsxo+UBAEQThrCoWCDq1cxziXois6UN+8cx+RocHnNVCXJIlu3bqxfPlyioqK5KzpYP3Hti0A6N+/f73nsR/969atW703YPfu3eU18fn5+S4DdXfTZiVJkgP1c7EO1hakg3U6srt2S5JEr1695M+jurraKVBXKpX/6osXFhbmtv7pAZWNLVGeq6n4NpIk0alTJ3nmwJlo27Ytv//+O5WVlUydOpXw8HDi4uLo0KGD/NDkTDPInwlJkuTZBK7YZi+YzWays7MbfKBkr1u3buzevRuz2cyiRYvYsGED4eHhdOjQgZYtW6JSqdwG/tdccw1//PEHRqORXbt2MWjQILksPT1dTsRmH/x7eXkRGBhIWVkZGRkZTJs2jfDwcJKSkujYsSPBwcFnFKDblJSUyN+F6Oho+SGBK82bN+fo0aNYLBYqKipc3leurtm+j909jLpc/qMjnHs9OrdhysTHGz5QaDJTvviR2d8sISk+qqmbIgiCcFkym82kZ+Swa+mnJMZENnVzzokrOlC/UGzBjcFgIC8vj6go63+o09LSqKmpkRNX1cd+Wm9DW2YFBATIwbarzPDAWQUsZ8P2/gqFosF225e7Gs3/twGru2AcXAdBRqNRDggbWg98ttuY9e3bl7KyMlJSUjCbzeTl5ZGXl8cff/whJ5fr0qVLvcH0v6HRaJym89uzH+ktKCggPj6eGTNmUFZW5rbOc889R2BgIM2bN+fmm29m5cqVmM1mSkpKKCkp4fDhwyiVSqKiomjbti2dO3d2aoO3tzcxMTGcOHGCtLQ0OVC3WCzyko7TcxkoFAoee+wxvv76a4qKitDpdGRlZZGVlcWmTZsIDg4mISGB7t2706xZs0YHvvbZ2bdt28a2bdsaVc/V1HpJkhp83/M5e0K4PDULDaJZ6L/fSlE4f2p1ep57eDivjbm3qZsiCIJwWTKaTCQNGI3FfPkk3BX/IrwAgoOD5anRq1ev5uGHH0aSJHn9rW2NbWM1JsC4WEbfbFN0L4b2nGkb7GcUnK8s256engwfPpyuXbuyZ88eTp48KQfBVVVVpKamkpqaSuvWrRk5cuQ5H11v6DP5t/3WrVs3kpOT2bVrF8eOHZNnKBiNRjIzM8nMzGTHjh2MGjXKIbkaWNeZnzhxgoKCAgoKCggPD8disTgkkXM1hXzMmDGkpKSQkpJCVlaWHDDbHhT8/fffDBgwgH79+jXq87SfZt6sWbNG94GrZRZw/j9zQRAEQRAE4dJ3RQfqbZJjCQ1yXgt6rkmSRN++ffn555/JysqS90y3bRHlKqv16exHwBtaO67X6+XtruobRb4QbO9vMpkwGAxugxdwvK6LYVRRpVKh0Wiora11OzPB5t8kepMkiYSEBPmBTVFREQcPHuTYsWOcOnUKo9HI4cOHWb9+PQMHDnS5z7s77rbos9Hr9ZjNZrfBp32f2LKYJyUlOe0nb+/0Pg4MDGTgwIEMHDgQnU5Hamoqhw8fJjs7m+rqasrKyvjpp5+cst63b9+eNWvWoNVq2bp1K8OHD+fAgQMYjUYkSSIxMdHl+9vW1nfs2BGz2UxOTg4pKSmcPHlSflCwadMm4uLiGvWQzH4P+dtuu43IyMtjOpVw+cjMySclLYObBvRs6qYIgiAIgnCONH001ITefuHhhg86R+Li4uSfi4qKqK6uprq6moiIiAa3QAPHgDs1NVXen90V2zpvwG0CtAvFPundgQMHuOqqq9weu3fvXvlnX1/f89quxgoPD+fkyZOUlJS4PcZisTh85o1lS9hXW1srL1cA63r4/v37079/fwoLC/nss88wmUzs27ePgQMHAo7LANwlFrOtk66P0WiksLDQ7X1iW48tSZK8v/mwYcMadX22a1OpVPI+4J6ennTp0oUuXbpgNpuZN28emZmZFBcXOz0wUCqVtGvXjl27dnHy5EnMZrO8PWGHDh2c7hGTyYRWq0Wn08n7tCsUCmJiYuQ8DceOHWP+/PmAda17YwJ1+8Ruf/75J7fccovbUe+amhqMRiNqtRq1Wn1e8wsIgs3+Q8eYPucnEagLgiAIwmVE/CvyAvHz85P/wb9t2zZ57/RWrVo1ur5tlHnHjh3ylmGu2NbQSpJ0wUf/Th/djYmJkWcD2PaJdsVgMDi0+2IJ1G3bptmmTbtqf2FhoZyR/0wcPnyYyZMnM3PmTLcJysLCwuQcB/YBuf2abvuEffaKi4sbDNRt7XDFYrHIZYGBgfWuZXdl5syZfPjhh6xevdpluUKhkJPBmc1ml6P/tm3LysvLyc/Pl0f4e/Xq5XTspk2bmDZtGrNmzXK7fVliYqJ8He5mppzexyEhIXKOgr1797r97lksFubOncsHH3zA+++/36jPXhAEQRAEQRBcEYH6BSJJEjfddBOAPO0XnPdPdkehUDBixAjAOnK4fv16l8ft3bvXYQ2vu62kziX7UcPS0lKHMqVSSZ8+fQCoqKhg9+7dLs+xefNmORC96aab6p0ifyF169ZNbsvnn3/uFEzqdDoWLFhwVudu0aKFfO4VK1a4PKampkZeImGbeg7I+4+DdaaCK4sXL25UO7Zt2+Zyav/27dvJyMgAoHPnzo06lz3brI/U1FS3e5anp6cD1hkUrpY7xMTEyAnjfv31V/n3p69nB8e9093dZ5WVlXKAbstoD4738OmJ8iRJckhmt2zZMpcPbDIzM+Ut+tq1a+dy73hBEARBEARBaIwreur7qOfe5s7B/bljcN8L8n5xcXFyNna9Xk9UVJTb/dBdadGiBaGhoRQVFbFz507S09MZOHAgsbGxlJSUsGLFCnkNbkBAANddd935uhQHKpUKT09PdDodKSkp8mjm8OHD8fPzo3fv3uzevZvKykqWL1/Orl27GDJkCKGhoWRnZ7N27VoKCwsB6wjy2QSF54tarWbkyJF8++236HQ63n33XZo3b05YWBjFxcXk5uZiMBhQq9UOmfkbQ6VS0bdvXzZs2EBeXh6zZs2ib9++JCcnA9YlDL///jsWiwUPDw+GDx8uT7m2rWs/cuQI+fn5zJ49m2uuuYbQ0FDS09Plz9vf37/BkV29Xs+sWbPo168fV111FVqtlmXLlpGVZd3zNzIyUn7YciaGDBnCrFmzMBqNzJgxgx49etC9e3eUSiU5OTls3bqVkydPAo77oduTJIkePXqwcuVKedbBdddd5zKot0/auHHjRjIzM7nmmmuIjIyktraWv//+m507dwLWfm3ZsqVcV6lUyvfwoUOHmDNnDgqFgttvv52AgADatm3L9u3bycvLIyUlhZycHK6//noSEhKorKxk27ZtcnJI27WLpHDChaJSKvH38W7qZgiCIAiCcA5d0YG6Tm/E5GZ97/ng6emJv7+/PGLnLjhxR6FQ8MQTT7BkyRIOHjxIUVERP/zwg9Nx0dHR3HXXXfK64PNNkiSuvfZaeYqzbRS2tLQUPz8/NBoNjz/+OAsXLiQrK4vc3FzmzJnjdJ5WrVoxYsSIiyKRnL3k5GRGjx7NDz/8gMFgIDs7W54RIUkSN9xwA4WFhezZs0f+XWP17t2b4uJi9u3bR3FxMUuWLHE6Rq1WM3z4cAIDAx1+f/PNN2KC0RMAACAASURBVFNcXExRURFFRUUsXbrUoXzAgAGYTCa2bt3q9v01Gg033ngjS5cuZd26dfLWZzaJiYkMHz78rLbzCwkJ4fbbb2fJkiXodDq2bt3qsi09evTg+uuvd3ueli1bymvTAbp06eLyOIVCwUMPPcSXX35JSUkJx48fl2cj2PPx8eHBBx90yPsgSRI33ngjy5YtA5AfIBQVFREQEIBSqeTBBx9k2bJlpKamUlpayqJFi5zO7enpyUMPPXTRLN0QrgyDB/Rg8ICGk5IKgiAIgnDpuLgiokucJElcffXVmM1mhwRU9uW33norx44dA6BNmzYuz9OrVy9MJpOcAMueSqVixIgRdOvWTR7Z02q1qNVq4uLiSE5OpmXLli6TWCUlJcnBSX1JrmzXcHqCsW7dulFbW+syk3z37t3x8vIiLS2N6upqvLy8HNY0+/n58dBDD3H06FFSU1PJzc1Fr9fj5eVFQkICLVu2dJvYq3379kRHRztk3z6dt7e3POp7evt69+6NxWKpN2lfWFiYXP/0BwWSJJGUlMSECRM4duwYBQUFGAwGgoKCSExMJCgoyGGa+ZkE6iqViltvvZWOHTty9OhRMjIy5KnZoaGhxMfH0759e6cgHayf6aOPPsq+fftIS0ujsLAQhUJBXFwcXbp0ITY2luPHj2OxWJz2gbddr1KppHPnzoSGhvLnn3+SnZ2N2WwmMjKS9u3b07p163/14KRTp05ER0eTkpJCRkYGpaWlcnuioqJo164dMTEx9X5mAQEBREZGkpubi7e3t8Pe7qfz8vLi6aeflrPm5+TkYDAYUCqVREREkJSURPv27V3eS507d0apVJKWlkZVVZXTHvMajYYRI0Zw4sQJUlNTOXXqFFVVVSiVSiIjI2nRogXt2rVzuWyjdevWhIaGur1OhUIh33/uEkV6enrKx4gHAYIgCIIgCJc3yXK+Noi+BAwfM4m7b76WEUP7N3VThItUWVkZkiTh5+dX78ONL7/8kpycHHx8fBg/fryY9nwO1dTUMHXqVCwWC/fcc0+jEzAKwpXCaDRiMJrw0pxZwkfhwnll6lf4+njx2ph7m7opgiAIlyWjyUTSgNFsWDCNpDj3u2NdSq7oZHIfvj6GG/p2a+pmCBexXbt28eGHH/Lhhx+6zVhfVlYmr59u1aqVCNLPsbS0NCwWC56eniJIFwQXVm36kyEPv9zUzRAEQRAE4Ry6ogP12ObhBPi5n0YrCBEREYA1W/gff/zhlPW9pqZGXj8tSZK8z7lw9sxmM1qtFr1eT0FBgZz7oEWLFk3cMkEQBEEQBEG4MMQadUGoR9u2bQkLC6OwsJDVq1ezevVqunTpgkajITs7W86MDta18BdiO7wrweTJkx1ee3p6cscddzRRawRBEJqW3qTn1fWvOvzumR7PEB8Y36j6hdWFTN5W93d1SPIQrk90n8RTEE5nNBlRelwaYUNRTRHv//4+AA90eoAOzTo0cYsuDhaLBb1Jj6dSLJO6VFwa37jz5M2PvmFAr87069G4vcyFK49CoeDRRx/lxx9/lDOI27K72x9jSwgnpr3/ewqFQt4qzeaee+6pN0eAIAjC5cxoNjJ9x3SH34V6h/Jyn8YteVh6eKlD/VDvUBGoC412tOgoQ74dwrFxx5q6KY1SVlsm3+99YvuIQP0fa4+tZdKmSWx/dHtTN0VopCYN1KtqtOj0Bvm1JEFwgDVbusVioaS80uH4kMC6TOoVVdUYjHXTkD08FAT6+TaqbllFFSazmV0pR4iODKdLu2T8/tmDtr66rso0nmp8vKxZxk0mE2WV1Y2u6+OlQeNpzT5tMBipqK5pdF0/Hy/U/2SXrtXpqdbWNrpugJ8Pyn+226rR1qLV6RtdNzjATw5GnftPIjjAz21d+z4or6rGaNd/Sg8PeRlCQ3VLKyoxm+vWi6tVyrPuPy9PNd4N9J+npyf33XcfWTl5lJaWknMqB6PBSHh4CEkJCfj7+6Pw8Dij9/X38Ualsn79zrT/Av188fCwBq3/pv8qq2vQG4xymUIhEeTfyP6rrMZotwxAqfQgwLfh/rNYLJRVVGG2W+/vqVbh622diWA2mymtqOKGITeRk51DYGAgnTu2w9/f33X/aTzx/ieBltFooryq8d8/X28Nnv9kf9cbDFRWaxtd19/XG9U/2fC1Oh01Wl2j6wb6++Lxz0OHam0ttWfQf/Z94Nx/CoL8G/c3sLyyCqOpbmtKldID/0b2X2lFlUO+Blf919jr8dZ4ygnQjEYj5VWN/xvo6+2Fp9r6N1CnN1BV0/j+C/D1Qam0/g3U1uqoqW18/wX5+8oPjaprtNTa/Q1sqK7jf8NqMBiNLsvO1IBenenQJums6wuXpgX7FjQqUDdbzPx3838vQIuEy9G0bdN4ef3LBGgCmropwr/Qb04/tmZtpWO4GJy8lDRZoG6xWHhlylcsW79D/l1woB97ln8OWP/Bd9WwJx3qZG79Tv75ubc+Yf32upHNTm0SWfbF2wCYTPXXHfHMmxw9Yd0He9+hE+xKOcIn/x3nsq4kQcaWurp9Roxz+Efdk6Nu5pWnRgFQVFpBj9uftqsrkbHlW/n16W16+4WHGH37IAD2Hz7OHWMmyWUKhcSJzd/Kn9XpdedOfYlre3UGYPWWvxj35seNrrt+wVSS46IAmPPTaqZ+udBlXbPZue7R9XPl4Obt2d/y/fINcllEWDB//DL7n7r198HT//cRW3cdkF9379iKRR+/ATTcB7c98QYZ2Xny69tv7MOM18c0qm6P2552CDCfffB2XnxkBACnCkroM3KcXd26/pMkiX6jxjtcz5SXH6N3z3AAduxO5e5xb8tlDfXBdzNe45qu7QBYtm4HE97/vNF1t/44g9jm1vf97LtfmTn3F5d1XfWf/f34xox5/Ly6bl/z2Khwtv4w45+69fffY69M5499h+XX13Rtx3czXgMa7oOhj7zKqfxi+fVdNw9gysTHAWuw7Vi3/u/Q+MdGMPb+263ty8nnuvvGu6xrsTjXnfF/Y7j9But2Zzt2p3L/+LppoQ31waJP3qB7B2tiu59XbeW16XNc1nXVB3/8MpuIsGAAZs1bzKffLpfLNJ4qjqyb57aufR+8MvV/LLf7+5kc35z186cBDf8NfGD8FPakpsuvr+3dmblTXnJZ9/T+GzT6JYpKy+XX998+iLdeeAiAGq3ujPrv1TGjeOKemwFIyzjF4IdedlnXVf998uaz3HRtLwC2/LmfR1+pGy1sqP+Wf/k2HVsnAvD98o3896NvXNZ11Qd7fv1cfiA5/atF/O+nVXKZv683B1Z99U/d+vtg/LufsWbrLsD60OXJUTfz7vhHORt+vt74+XqfVV3h0hPgGUC5rpyDRQfZl7ePThGd6j3+YMFBsiuzL1DrhMtNYU0hJoup4QOFi9rx0uNN3QThLFzR27MJgiAIQlPT1uqxmM14e2uauinCefJvt2erMdTg86511kv/2P4cKTlCXlUer/V5jbevf7veutO2TWPCugm0CG7BsdJjmC1m3rv+vUZPmxeubBPXTmTK9ikEewVT/FJxwxUuAukl6bSYZU1Au/iuxdzW+rYmblHTi54eTU5VDh3DO7LvqX1N3Zzz4nLcnu2KXqMuCIIgCE3NS6P+V/UPHzvJjj2pPHTn4HPUIuFiJkkSPZr3YNnRZaxIW1FvoG4ym/j8b+uMrWmDpnHHwsYl5SysKuR42XEqaitQKBRE+EaQHJx8RkmoSrWlpBamUqOvIcIvgrZhbfFQeDRYz2Q2kVmeSVZ5FjqjDi+VF7EBscQFxjXqfWsNtezJ20OVvopmPs1oE9YGlYeq0e02mo0cLTpKTmUOSoWSxKDERr+3jdagZX/+fsp15UT4RtAurJ3TtRfXFJNSkILRbCQxKJGEoIRGnbuwupAjxUeoMdQQ4hVCq5BW+Hr6nlH7citzOVJ0BJPFRFxgHElBSec9x06Nvoa9eXupMlSh8dAQHxhPdEA0CunC5J+pNdayN3cvlfpKIv0iaRXS6ozui/oYzUaOFFkfnlksFpr7NScxOBGN8vw9fC2oLuBI0RG0Ri1+aj+SgpII9w0/J+fWGrQcKTpCQXUBXiovWoS0IMI34ozOUaYtI6UgBa1RS3xAPMkhyU732KmKUxwqOoRCUtAurN05a//lpMkCdbPZwtptf3Oj2MdcEARBEM5a2ols5v2yRgTqV5Cnuj3FsqPL2Ju/l6NFR2kZ2tLlcbtzd5Nemk6odyj94/vXe06zxcy6Y+uYtGkSO3J2OJVrPDS82vdVXuj9Aj5qx61tH/jlARYcWMDQ5KF8P+J7Jm2axMw/ZmI02+Vh8Arh46Efc2fbO10G7DX6Gmb/OZup26dSpC1yKm8d0pqPhnzE9QnXu0wuWqGr4M1NbzLrz1nozXW5P+L845g9dDZXNb+KmA9iADj5/Emi/KMc6htMBubsmcPrG153ev8ezXsw7YZp9Int4xRsLD60mDsX3kmIVwh54/P4+K+PeWX9K1Qb6nKmRPlFsfDOhfSO6U2NoYY3Nr7BjD9myFPKJSRuSLqBb277xmWwYrFYOFJ8hP/b8H/8cugXzNTlGPFR+TCu5zgmXjMRf41zrosWM1twvOw4Xwz7gsHJgxm7aiyLDy92OKZjWEc+G/YZvWN6y7+buXMmL6x5QX6vEm0JHv+19tv3d37PyHYjnd7LlYKqAt7c8iaf/fUZJhyn0LcOac1b177F8LbDnT5Xr7e90Jv0vHPdO7zc1/XsjyeWP8FXu78iPjDebaI7k9nE/H3zeXrl01Tq6/KGNPdtzrvXv8u9He9FqTi7cEhv0jNv7zz+u/m/5FTmOJT5q/15rtdzPN/7eQI1gXJbwqaEUa4rp09sHzY9uMntA5KtGVsZMG8AAJsf2kyf2D5YLBZSC1OZuHYiq9JXOdwHEhID4gcweeBkujXvJp93zK9j+Pzvz+Vj9xfsl/tx84Ob6RPXRz5HjaGGqdumMmX7FGoMNQ7nvrnFzbw38D3ahrV1avOU36fwyvpXCPMOI/P5TP6z8T98uPNDDOa6HC4dwzuy9O6lxAfFc6riFC+seYEfU3+Uyz0kD+5qdxdfDPvC6e/LlazJ0ihbLGZGPfdOU729IAiCIFwUPvtuOf+ZMbepmyFcQga3GEykbyQAn/39mdvjlh5eCkCn8PrXsZvMJv5v/f9x47c3siNnB15KL2L9Y0kKSiLKNwoFCmpNtfxn038Y/O1ghwAcwIIFM2YMZgNdP+/K9B3T8ZA8iPSNJFhjzclRrC3m7p/vZt7eeU7vX6otJWFmAhPXT6RIW0SQJojEwESSApMI0gQBcLj4MDcsuIFV6auc6pfXlpP8UTLTd05Hb9YTpAkiKTCJCJ8IMisyGfbDMD7961PM//zvdFW6Kq7+6mqeXPEkRdoifFW+JAUlkRCYgNpDzZ+n/qTf3H7Wc1gc69uu3WgxMnrxaJ5d/Sx6k55In7prz6nMYeD8gZTVltH9i+5M3zkdb6U3zX2b463yxoKFNcfWED8jnlqjY3JZi8Va1ubjNiw6tAgzZqL8okgOTibcO5xqQzXv/v4uiTMTKdOWOV2b7ZpzKnKI/jCaxYcX46vypblvc/zV1sB+f+F++s3tx4nSE3I9tYeaAE0Anh7WWRQSEgGaAAI0AY0ObCtqK+g3tx8f//UxZsxE+kaSHJRMfEA8Gg8Nh4sPM2LRCMb/Nt6prq3dFtyv0LV99vUd88HOD7h/yf1U66tJCEwgKSgJT4Unp6pO8eDSB3l02aNOfdoYFouFl357icd/fZycyhyCNEEkByfTIrgFQZ5BVOgreHPLm1w791r0JuuDIw+FBze3vBkzZrac3EJ6Sbrb88/+azZmzCQHJ9Mn1hpM51Xl0e2LbqxIX4HKQ0WMfwwtglsQ7R+NAgUbMzbS46sebDyxUT6Pt8rbIRGgAoXcj/YPzAqqCmg+vTmTNk+ixlBDsCaY5KBkYv1jkZBYnracDp92YMOJDZy+atr++9/jqx5M2T5F/v77e/5zjxXsp+3HbcmrzKPrl135MfVHAj0DifSNxNPDE5PFxHcp3zFkwRBMZpETwUbsdyQIgiAITaiqWkvpaRniBaEh1ydYt1dbd3ydy3KzxcyPB60jVq/3e73ecx3IP8C7294FoHdUb4pfKibz+UzSn00n+8Vscl/MJcQrBIDfT/7O3ty9Ls+z5vgajpYc5bEuj1H8UjGnXjxF8cRiVtyzAgnrKNwjyx+hrLYuoLRYLLy87mUKagoAmHvrXEomlnBs3DHSx6VTMrGEJXctkY8f/uNwOfCxXed9v9xHYU0hAK/2eZWC8QWkj0snd3wuP4/4GZVCxdtbXS8RMFvMPLb8MXblWZM7Pt/zeYonFpP+bDrHxx0n67ksekdbR5qfXvW022svrS3lu5Tv6BrZlaKXijg13nrtM260JmnVGrWETwnnUPEhJvWfRMnLJeS8mEPxhGL6xfazHmPScqzEcWQ4pSCFId8OAcDLw4vUMalkv5BN2tg08ifkM+/WeSgVSopri4n5MAaDyXEnCps3Nr+BhMTswbMpfbmUnBdzKHu5jP/0/Q9gnb7d48sectD6VPenKJlYwrie1iS7QV5BlEwsoWRiCXe0adwSisnbJnOk+AieHp7sfnw3p148RdqzaZx47gQFEwpoE9oGgM///tzp4c+5sj1rO818mpEyJoXj446T/mw6BRMK6BZpndE7b988vt7z9RmfN6UghZl/zgTgme7PUDKxhLSxaRwde5SSl0t4qutTAOzN38tnf9U9TPt46Md4SNYA+edDP7s8t9liZnPmZgBubnmz/Lsun3Wh1lRLoDqQjHEZnHz+JEfHHiXr+SyOjD2C4p+wbuSikXKwO+3GaZRMLCHK1zqDpH14e7kfbTMoDCYDV31+FeW6ciQkPh7yMYUvFZL2bBqZz2dyZOwRonyjsGBh4PyBTveoTUltCfvz93Nf+/soe7mMUy+eouSlEp7qZv0stCYtMR/EUFhdyNe3fE3JxBJOvXiKUy+eIsLHOrV+a9ZWMsoyzrg/LlciUBcEQRCES5hKpSLA/8zWqAqXvlEdrDvOHCg4QF5lnlP5zuydpJemE+0f3eC09zc3vyn//OuoX/FSeTmUh/uGs+eJup12jhYfdXuuF3u9yGfDPnOYvjqkxRA+GvyR/Dq9uG4kMa8qjy92fwFYHz7c3+l+p3Pe0uoW7m1vTcSnM+scrndXzi5+TfsVgAm9J/D2dW+j9Kgb8b29ze38/tDvbtu7M2snPxz8AYAXer3A9Buno/aoyxsR7hvOxgc2yjMY+n7d1+FBgT2NQsO2h7fJo4gAY3uMJcDTOqJpxMiUQVP4T///yKPSGpWG+bfPl4+fs2eOwzlfXmed9u2j8qF4YjFtwto4lI/uNJq1960FoMpQxdaTW3Fny4NbGNNjjPzekiTxxrVvcFPyTQAUaYuo0FW4rX+mtmRuAeDq6KvpHNnZoczP049vbrPuuFFtqObb/d861T8XfFQ+pI5Jdfjc/DX+7Hh0B61CrLu3vPf7e2d83l8OWXfcifCJYOaQmU7ls4fOpn1YewC+T/le/r2fxo+WIdalKj+k/ODy3IsOLiK/Oh+AZ3o8A1hnjeTXWH/3zR3fEOHnuGY8MSiRH++0Ppgr1hZzsOBgo69l+ZHl5FRZp+6vuncVT3V/yiF3QHJwMgfG1O3UNGblGLfnGhA3gHm3z5PzWXgoPJjUv25XKyNGVt27igc6PyBPoQ/2CmbTg5vkY1ILUxvd9sudCNQFQRAE4RI2uH93ln72VlM3Q7jABiUNkkeh3tnqvJTwm73WIKhvTN8GE4W9MeANvhr2FdMGTSPIK8jlMQGaAHkksFRX6vZc43qNc0oQJkkSw9sOl1/brxUO1ASy/v71vH/9+/w4/EeXbZUkibvb3y2/1pnqtsldctg62u6t8ubt6952qi9JEl2bd6VtaFuX7V2UuggAL6UX713/nsv391R6ysF0jbGGQ4WHXJ5rzm1znBLuKRQKbml5i/x6VPtRTu9hvy49r6ruIURWeZY81X9o8lCXyckkSaJ3TG9UkjUx2oTfJrhsW6AmkGtir3F6b4Wk4L5O98mv3Y3Inw3b1OrjZcedpksDdInsQuZzmRRNKJIfPJ1r93a4l2DvYKffKxVKxvYYa21f6XEySzPP6Ly2ayusKeSP7D+cyhUKBevvX0/++HzWP7DeoezRLtatOPfl72P3qd1OdT/Y8QFgDXrjA+MBHPptzp45TtP1JUnijjZ3kPVcFqUTS2kX3q7R1zJth3VrV5VCRf/4/i6/A0FeQTzX8zkA1h5fS05FjtMxAHNuneOUQyLMJ0z+WwVwVeRVTu9h/3fHNjtGaMJAXaFQkLP9x4YPFARBEITL2MBrrmLk0PpHPAXhdEqFUg5+Xa3bXnvcOspqm3Zan04RnXjkqkd48eoXnf4BbbFYOFF6gi///lIODkwm92tI3QX6Kg+VPP3dfl9uL5UX1yVcx8Q+EwnxCXGqZzAZ2JG1g3n76ta2269Jtk0RDlAHuM3i7aHwYFyvcS7LbJ9dgMZ9fbB+Rrb2Hyk64vIY2zTl09mvEbb/WW6fVLdW2P6z+SPnD/laJ/aZ6PaBi6fSkxFtRwCwO283Vfoq5zaond/XJtQ7VP75bNZru2NbnpFZnknUB1GMWjSKlUdXyg8DPBQexAbEEuIdcs4ysJ/ulla3uC3rH2f9u2vBwi+Hfzmj845oOwIJCZPFxHXfXMcN39zAp399SnltuXxMuG844T7heKu8Heo+1f0peZbFV3u+cigzmU2kFKYA1ocMtj739/SnVbB1BsCSI0to/0l7xq0ax9+n/pbrKhQKogOiCdQENmqHBbAmYdyRbU0e2T+uv5yTwJUJV9c9BDpW6jz93UPyINjL+aGIJEn4qf2s16H2d3mM/XfgXN6Dl7omy/ouSRIaz3+3JY0gCIIgXOo6t03+V/UNBiN6owEfL6+GDxYuK7e1vo2P//qYzPJMSmpK5JHD7Se3c7zsOImBiVwTd02jz1ehq+CX1F/YdWoXWRVZnKo8xYmyExRrG79/trtEY7Yg1x2LxcKB/AOsTF/JkcIjZFdmk1OZw/HS4w4j6Kfbm2ddMx4bEFvvzAHbOnB7BpOBtJI0wJpMK2xqmNv6Zktd0rKUwhRG4pj1XKlQOgVkMrtm2QckcrGbdmeU1q3VHTR/UL1bmVXr67LMl9WW4at2XA7jr/F3+z5nm/W8Ic/2fJb1x9ez+eRmcqty+f7g93x/8Hv81f50j+rO9QnX80CnB2juf/72vO7YrKPbsuTgur+9u3KsOQqiP4h2yuBuL+v5LKL9o2kV2oo3r32T/9v4f9Qaa1l7Yi1rT6zl6ZVP0zmiM9fEXMPojqPpEd3D6RxeKi/6xfZjedpyVqevdiibsXMG1YZq1Aq1w/7vCknBpgc30e6TdpTUlnCo6BCHig7x0Z8fEeEbQe/o3gxNHsp9He9Do2r8tnD2I+NbMrfU+x2wnxVRWO086i1Jkvvvv+2Bg9r9fSg4E/uoC4IgCMIlbPXmP5k+5yc2ffdhUzdFuMD6xvYlxCuEYm0xb299mw9utE6ZnfmHdc3sLa1uadQ+1XqTnqnbpvKfjf9xyoruIXnQLqwdXSO7Mn///HozbEPDAbkreZV5PPbrY/x69FenMl+1Lz2jexLpGyknx7OnNWoBHNalu+JqD3idSSePYJsxN/qBRJXOecT6bK67IfZbvJXWul9ucDpXidns191fKAGaAFbeu5LP//6c+fvnsyfPmuegQl/B+hPrWX9iPZM2T2Jcj3FMHjT5jAM4V9PpT6fxcB+02n8mNcYat8e583q/1+kW2Y1Pd33KmmNr0Jl0WLCwJ28Pe/L2MPuv2Vwbdy1zb5tLbGCsQ90nuz/J8rTlnCg7waaMTQyIH4DZYmbadus09Hs73EuoT6hDnQi/CI6OPcqUbVNYeHAhGeXWBzl5VXksPryYxYcX8/ya55k9dDajO41u1HfffpcBvVnf6O9AfQ/P6iOC9DPTZIG6yWQi+br7ObH5/CSPEARBEIRLwYmTuWj1etomxzV1U4RLjKfSk0e6PMKU7VOYu3cuUwdNRSEp2J61HYC72t3V4DksFgvTtk/j9Y3WzPDNfZvTO6Y3PZr3oFtUN7pGdiVAE0CFroJvD3yLyWJqMFg/E7YtvGwj252bdaZnVE+6R3Wna2RXOjbriEKhYPmR5S4D9TDvMApqCijRlmCxWNwGAq7Wvao91EhIWLDQP64/a+5b06g2NyYAOhdsa9KVCiWVr1Q2+mHA+ZpGfja81d483/t5nu/9PAVVBSw8uJBV6as4UHCArIos60OiHVNBgimDpjjVr28atP0yAXfqC8BtD3kAOVng0BZDKdGWuK3jpXScuTS4xWAGtxiMzqhjdfpqfkr9iX15+zhSfASD2cDGzI0M+XYIB592TO42JHkI8QHxZJRnMH3bdAbED6BSV0mRtgjAZVJFgBDvECYPmszkQZNJLUhl4cGFbMzYyMHCgxRri6kyVPHg0gdp7tecQUmD6v9wcHxYMXXgVMb2HNtgHXA9C+N8PKy60jXpiHpF1Zk/vRIEQRCEy8nPa7aSeSqfWW807h9IgmDv1ta3MmX7FCp0FVTpqzhafJTsymySg5LpFdOrwfqnKk/x2obXAAjRhJD2bJrLKdwmc12A3piRzMZadmSZHKS/1uc13rruLZfBdmZZXbIv+/e/KvIqVh9bTV5VHhYsboOF7w987/Q7tYeapKAk0kvTOVJ0xBq4uwn0LRYLepO+3mPOtYSgBMA6Qn4g7wDdo7u7PVZn1KFSqJwSeTU1vVGPQlKg9FAS7hvOMz2f4Zme1kzmSw4vYdTPo9AatczdO9chULf1o8HsPrldQXVBg++/L38fcYGuH4Luz98v/2zbq/yLYV80fFH/MJlN6E16vFReeCo9ubX1rdza+lbAer/e8sMt2eAevQAAIABJREFU7M/fT2pRKlnlWcQExMh1JUliZLuRTNk+hT9z/8RsMfPOlncwmo34qf1cfnctFgtaoxaNUoNCUtA2vC2TwicxiUkYzUambJvC6xtex4KFuXvnNipQj/KLkn9ek77GZZ4KG7PZjNlibnD2inDuXFzf5n/JZDKxZ88edu/eLf9fp2v81AydTudQt6io6Dy29syYTCa5XSdPnnR5jMViwWxumgQMZWVlcvsMhnOXMfRylZGRwe7du9m71/V+rFeqpryHBeGSJUnW/wtXpG6R3fD08MRkMfHRzo94df2rADzU5aFG1bffau3LW750u846qyKrLplcI0YyG2vDiQ2AdaRy0rWTXAYJFouFn1J/qnttN6JvmzVQriunVOt6erjWoOXjPz92WTY4eTBg3dKqvum8x0qOoXlHQ9yHcaw75nrv+nOtR1Td+uanVj7l9gGJ2WKm46cdUb2lovdXvakxNP1AWFZZFh0/6YjnO55yZv3T3db6NjnZof0UbKgbsc2vyndZ12w2N2obry0ZW9yW/XbsN8Ca7XxEuxENnsveA788gO+7vtz9890uy+MC45g2aJr82pZLwZ5t1LyguoB1x9ZZZxYAr/d93SnD/86sncR9GIfPuz4OD61slAolL/d5mRBva0LGI8WuEx6ePhkm0CuQrpFdAdh0cpNDrgOHahYLC1MXonpbRcuPWrIvb5/r8wvn1GUXqP/6668sW7ZM/v+hQ6630HBl06ZNDnXdBcRNwWQyye3av3+/U7nFYmHjxo3k57v+g3a+5efny+07k4cjV6p9+/axbNkyVq9e3fDBVwiLxcLvv/9+UX3vBOFSMLh/d1b978z3ARYuD2qlmvG9xwMwafMk/s61ZoEemjy0UfXtp3EfK3HO5AzWRGX9v67bmeBcBuq2gMxkNrkNRP8+9TdbTtYFXPbH2UYwzRYzCTMS0Bq0TvXf2foOBovrQQRboG8wG+j5RU9MZudr0xl19PjKGjRnVWa5HaE91+IC4rgx8UbAGujlVua6PG7D8Q0cLTmKGTPRftFO07P/DVv/nOksiij/KLIqsgCYvH2y2+Nso9peKsc2h/tYt6zbmbPTZb2P/viIE2UnGmzHl7u/dJkFv0RbwvQd0wFrwrkzXS5Qri+n1lTL6rTVlGnLXB5jvztA7+jeTuVtw9rSJ8Y6km+b1QJwR5s7nI6N9Iskq9L6eX6z7xuX72e2mNEZrf8G79Ssk0OZbYp7paHSqd7LfV4GrDM33tzypstzl9WWMepn6xZ6x0qPydvGCedXkwXqkiSx5LP/nvf3aWygbjAY2LnT9R+Di115eTnTp09nyxb3Tw0F4WJWVVXFBx98wPr168/plEpBuBKolEq8NO631BEuf/d0uAewJkQrrS2lZXBLOjTr0Ki6nSM644E1E/kr61/hYIHjWtq9uXtp/0l7ynR1wUh2efY5ajnc0tq6fZberKf7F92pNdSNrJotZj7Y/gF9v+7rUMc+yVqQVxA/j/gZsAYh8TPjeWvzW/yV8xffH/ie1rNbu9xn3ubqmKsZ3WE0APsL93PNnGscAqyc8hz6zukrJ3ObPmi6Q7bw80mSJKbdYB2VNVlMJMxM4P2t76M36gHr5/PFri+45Ye6Lcg+v+Xzczo1P9o/GrAGas+sfIblh5dztOhoA7WsW4W90vcVAPbl7WPw/MFU6uqCRJ1Rx9iVY1l3wjo7wba3uE2vKOvU7715exm8YLC87VlFbQWPLH2El9a9hErRcHBdof9/9s47Pqoy+//vOzOZTHpIQggJIQESAiT03kLvCLqICkhRF0QQG+Lq7n7V1XUtuBYWRRZEioqCK733jvRAQkJLCJCENNKTyWTK74/5zTXDzKSBDOLzfr18vZJ7n/vccxvmPOeczykk6j9RnE4/LW/bfHEzMV/GUKQrwkXhwnd/qr1e1mdDPkMpKdEZdbRd2NaqTRrAz+d/5o1d5uuPrh9tIwwH5uc7tcNUAE5kmFXnG3s3lkseKhPqHUrXkK4AvLPvHd7c86bVolRuaS7dF3enSGe+xxPbTLQ6vrl/cwBS8lOYe2guP5//mRuF5u/4oeYPEeFrfqfnHp7LmB/GWC0Kncs8R9sFbeVMlk0TNtltMyi4+zityEChUNC7s+OWCXeKUqnEYDCQnJxMRUUFLi5Vf8y3bt26rx0ElUrFo48+CkC9etY9SrVaLcXFtquF95KgoCDZPldX8QejoHbodDqKimxXeQWCPwIvTH4E4338/x/B/U8zv2a4SC5y1PiV7q/UuI+yj8aHRaMW8fT6p9Gb9MQsiKFpvaa4u7hzq/QW6cXpKCUlb/Z5k8+Pfk5BeQFHb9y9wMaAJgPo3bg3B64dIC4rjoC5AYT5hGHCRFphGoW6Qvw0fvw49kce/uFhTJi4XnCdTsGd5DlGtxjNwhELeXbTs2SVZPHm3jd5c++b8v52DdoxJGIIHx4yR3YrZxEoFAq+HPElt7S32HRpE7+k/ULLL1oS7BkMkrmG3+KgjGk5hpldZt5T5eqYBjHsnLiTwSsGozPqeGP3G3xw6AN8XH0oKC+goNzswGpUGvZO2ks9jf0+9nWlXVA7wFxu8MXxL/ji+Be80u0V/j3k39UeO7PzTHZc2cHOlJ1sS96Gzwc+hHiFIEkSWcVZlBvN0d+RzUfyTj/rSO5Hgz9iV8ouskqz2HZlG/U+rIevqy/55fmYMNEqoBVT2k3htZ2vVWnD7G6z+ffRf9NxUUeCvcxt4CzP1FXpyg9jfiAqIKrW9yW8XjgfDPyAOTvmcK3gGp0WdaKBRwM0Kg0F2gJ5YSvUO5S1j691OM+wyGGyoCHAghEL7H67CoWCzeM302xeM/LL83l3/7vMPTyXQPdA9EY9GcUZ8hwfDviQ2DDrdoST201mW7JZLNFyz5aOXsrkdpNxVbly+M+H6f51d67kXeHnCz+z4dIGgjyDqDBUcLPkpjzPW7FvMbDpwFrfL0HdeGDVAKKjo4mPj6eiooL4+Hjat29f5fhTp04BEBMTQ3x8/L0wsVYoFApiYmKcbYZDfHx88PERq2sCgUBQW9TqO1NoPp1wmW0Hj/P6s+PukkWC+w0FCjmVtVm9Zjb7NSoN7/Z/l5XxZsE0eyJSSoWSNg3aYDQZCXQPtNo3ud1kPNWefHn8S/Zf209yXjIAXmovnmz9JC90fYHOIZ0JdA9k0alFVBgrSCtMI8TbLETV2KexbJ8jJ1apUNK2gTkq56X2kre7ubixafwm3j/wPivjV3K14Crnc8y1xxH1IpjTYw4zuszAS+1Fp4ad0Bl1bL60mYdbPCyfS6lQMrXjVHo07sHKcys5cv0I+eX5hPuGM6r5KMa1Hsfcw3Plc96e5uzp6sm6J9bxw7kfWHBiAUfTjpJWbO4vrVao6dekH+NjxjOx7USb6/N19aVtg7aoFCqHQnYhXiHV3h/L/jAf27T6AU0HkPpyKp8c+YRvz35Ldmm27KCHeocypuUYXuj6AuG+4TbztwxoiZerF5F+kXbPC+YWeJbz367m3a1RN1Y8vIL3DrxHUm4SEhLpRekO56qMh9qDtU+s5ZvT37DkzBJO3zzNjSJzFFcpKekS3IXpnaYzqe0kG+e0kXcjjv35GP888E9Wxq+kpKKEvPI8fF19mdZxGq/2eJXjacdp26CtlSAagKvSVb6eOT3n0DG4I/+35/+4kmcu7XBRuPCnln/ib73/VuPME3vM7j6bNoFtmPfLPHal7CKz5Nfy01DvUJ5s8ySzusyioVdDh3PU96jPxDYTWX52OUpJSe+w3g7H+rn7cemFS3x86GNWn19Ncn4y1wrN5YKuClf6NenHS91eYlCzQTadCR5t9SgXci+w5NQSrhddR61Uy1kKFjuSnk/iq+NfsfDkQhKyE+TSBXeVO8Mjh/NUu6cYGjnUZu5Aj0D5G3DUEaFFQAvcXNwI8giyu9/y7wOAn5ufw3vwR0MyOSmMbDQaWfq/bTw9dthdm1On0/Hhhx9iMBjo0aMHN27c4Nq1azRp0oTJkyfX6LiXX36ZTz8196IdNWoUHTp0cHicXq8nPz8fnU6HRqOhXr16tV5lraioIC8vD71ej4+PD+7u7rWeIzMzkwULFgDw7LPP0rCh438QwHy9+fn56PV6PDw88Pb2rtU5dTodubm5eHl54enpWStbLZSWllJQUIBCocDPz6/ajAcLBoOBnJwcDAYDfn5+aDSO+2PWFsuzMBgMuLq64uvr+5upp65bt47Tp0+j0Wh4/fX/Xxuk15OTk4PJZMLf3x+1+u71PDUajdy6dYuKigoUCgW+vr6/eeZDSUkJRUVFGI1GPD098fLycvie3bp1i3nz5gEwefJkmjSxTfuqjF6vJy8vj4qKCtzc3PD19a31d6PVasnLy0OhUODv749KZbtuWVRURHFxMWq1Gn9//1rNLxDcKzbsPCz6qN/nvDF3MZ4ebvxtxgRnm1ItWcVZ5JXloXHR0Mi7UY0j83eL1PxUyirKqO9RXxbGqoqqWrJVZur6qSw+vRglSsr+XlZlTXJZRZnspDTwaHDfpfmmFaZRVF6Eu4s7jXwa3bN2cQajAYWkqHNGQV5pHjllORhN5lp6D1ePGh2nN+pJuZUCkjl7pC7XazKZMzFKK0oJrxduI9Z2p1QYKrhecJ1yQzn+bv7U96hfo/tkMpno9U0vDl8/TGzjWPZO2Vvj+3uz+CYF2gJUkorweuE1/lb1Bj1KhbLK8xSWF5JemI6L0oUQrxA0Lnf3fv0W6A0GmvWdyO5vP6ZZWLCzzbkrOC2ibjKZmPPBf++qo347zZs359q1a2RkZGAwGFAq7b/AaWlpGAwG1Go1Xl5edsdUJi8vjyNHjnD69GkrhXO1Wk3Pnj3p0qULbm62Qh6LFi2iuLiY3r17Ex0dzeHDhzly5Ah6vV4e06hRI4YOHUpISIjVB1RRUcH8+fMBaNOmDQMGDABg3rx56HQ6edy3336LSqXC3d2dZ599Vt5uMpnIysri4MGDJCQkWClre3l50bt3bzp06GDXWfnPf/6DXq9nzJgxlJeX8+OPP8o2t2rVirFjx5KcnMz69esBmDZtGh4e5n988/Pz+eabb5AkiRdffJHMzEy2b99OcnKyPL9SqaRjx47069fP7n0DKCwsZO/evZw5c8bK9rZt29KvXz/Onz/PL7/8gkKh4MUXX7Q7hyNycnLYu3evTSaFi4sL7dq1o0ePHjblBmfOnGHPnj2AeXHE3d2+Su5XX31FWVkZUVFRDB9uX9hHp9Nx5MgR9u7da1V+ERMTQ9++fQkIsK1rqilarZZjx45x9OhRSkutVWCbNGlCbGws4eG/rsDn5eWxdOlSAAYPHkx0dLTDuXfs2EF8fDyenp5MnWqusTKZTFy9epW9e/eSmmqtSuru7k7Pnj3p3Lmz1SLE7e/w6tWrcXFxsXmHwfweHDp0iJMnT1p9Nx4eHvTp04dOnTrZXVxZsGABWq2WUaNGUb9+fXbs2GH1HahUKvr06UOvXr2QJIn09HS2bdtmdQ0BAQH069ePVq1a3dO0R8GDz5ffrictM4f3Zj/tbFMEAgI9Awn0DKx+4G9EbYXalp1Zxr8O/IsuIV1Y/qfldp04nV7HmsQ1ALRu0Lpa4TA3Fze5pvd+xJLJcK+500Wbeu71qOde+9R8lUJFZIDjjICaIEkSjX0b39EcVeGidKGpX9NaH3ch9wKHrx9GISlY+vDSWv19EeQZRJCn/Qh1VdSkvZq3qzfe9b1rPbfg7vLApr4DtG7dml27dqHVaklISKBNG/s18efPm1OsWrZsWWUE1WQycf36dZYtW4bBYFYF1Wg0uLi4oNPpKC8vZ8+ePRw6dIhnn33WJgJXWFgoR+iWLFlCdnY2CoUCjUZDRUUFBoOBGzdusHjxYpuooslkoqDAnKJSVvareERJSYmVw1JWVoZCobBy+IxGI+fOnWPNmjXyNnd3d5RKJWVlZRQVFbF582YOHjzIjBkzbKLUhYWFcrR57dq1VnMXFxcjSRJ6vV627/ZzFxQUIEkSaWlpLF68GDA7wUqlkvLycgwGA8eOHePs2bO8+uqrNosF2dnZLFiwQHaqLPe8tLSUuLg4Ll++TFRUlByhrw0ZGRn897//lW328PBAqVSi0+nQarUcP36cuLg4nnvuOStnXafT2b3e2yksLKS0tNTGSa58f3744QeSk5NRKBR4enpiMBgoLS0lPj6exMREJk2aRFhY7RVmKyoq+Pbbb7lxw5xm5urqilqtxmQyUVJSQkpKCikpKQwcOJBevcyqo/Xq1UOn01FWVsaxY8ccOqUmk4mEhAQKCgoIDw+XtyUmJrJq1SrAvADj5uaGJElotVpKS0vZsWMHR44cYdasWXJE//Z3WKvVotPprO6ryWQiPT2dRYsWydvc3NxQqVTodDpKSkqqfYfLysooLCzkxx9/RKfToVQq0Wg0lJeXo9fr2bVrF+Xl5URFRbFs2TL0er28oKDT6cjJyWH16tU8/fTTNG782/3PXvDHo7RMS2Gx/ZY4AoGgakK8Q7iUd4lLeZcY13ocwyOHW/1/y2A0sDJ+JbnaXABe61l1TbNA8FtjyQIpqyjj48NmscAQrxC7InKCPzYPtKPu4+NDeHg4KSkpHDp0yK6jXlFRwcmTZqXGIUOGVDlfaWkp33zzDSaTCaVSyciRI+Xad4PBwJ49ezh48CA6nY6vvvqK2bNn203N3rt3L2COmA4fPhx3d3eMRiM7d+7k8OHDAGzcuJHnn3++2pW1N954wyr1ferUqTap76mpqbKTrlKpGDduHM2amWvcysvL2bx5M3FxcRQWFvLpp5/y2muv2c0+WLduHSaTiebNmxMZGUlCQgKtWrWq0j4LJpOJxYsXo1AoGDZsGB07dkShUFBUVMSKFSvIyspCq9Vy6tQpunT5tW+oTqdj+fLlGI1GJEliyJAhdOnSBYVCQXl5OWvWrCEpKUnWGKgNJpOJ9evXYzKZ8PLyYsaMGVYR/TNnzrBu3Tp0Oh2rVq2yie7eDXQ6HcnJyQQGBjJ58mQ5E+HMmTNs2LABg8HAqlWrePnll+1mO1TFvn37uHHjBpIkMWbMGCuNg6KiIv773/9SVFTE/v376d69u/zMmzdvTlxcHKmpqeTl5eHnZ1srdPXqVfLzzUIpnTt3BswOtsVJDwsL48knn5RLGoxGI1u3buXYsWMUFxcTFxcnP+c33njDKvV94sSJNqnv+fn5spOuVCoZO3YsUVFRSJKEwWBg37597N+/n8LCQhYvXsyMGTPsLtqsW7cOgP79+9OrVy8UCgVZWVksWrSIiooKDh48yKFDh3BxcWHixInydxIXFyd/QytXruS1114TUXXBfYOHuxuNg50XARUInEmvxr1kkbGRK0cyLnocc3rMIdg7mPiseP514F/svmru1R6gCeCRFo842WLBH51ui7vhq/HlRPoJbmlvAfDvwdWL8wn+eDxQfdTtYXEkLU7F7SQnJ2M0GvH19XWYvgxmp27JkiVylG/atGlWAnVKpZIBAwbItfCWP/odMXDgQMaMGSOfU6FQMGjQIDk6mZubS25ubi2u1LHdP//8M2COYr/22muy8wHmKOvDDz/MsGHmEoTy8nIuXLhgdy6j0ci4ceMYN24cnTt3ZvLkyXTq1MnuWHsoFArmzJljlZ7s5eXFlClT5DHbt2+3iqSeOHFCVgOfMmUKXbt2lY91dXXl8ccfp2vXrjW2oTIlJSVkZJjbT4wYMcIm7b5t27by3Ldu3arTOWpCcHAw06dPl510gHbt2vHEE0/Idm7fvr3W81rStqOiomyECL28vGSVfp1OR1xcnLxv+PBfoxEJCdZteizs27cPgAYNGhASYk7Bq/yNPfzww1a6AwqFgqFDh8rbqvo27LFt2zb55xdeeEF20sH87fXr148JE8y1nzk5OVX2Yn/sscfo3bu3/B4FBgYyduxYeb/JZGLGjBlW30mbNm3k792ShSIQ3C/079Ge5R+/4WwzBAKn4ObiRvxz8bgpzf8PX5mwkg6LOhD07yAGrhgoO+mRfpGkvZr2u6i1FTzYZBRnsD15u+ykj4wcyaOtHnWyVYL7Eac56gqFgpu/rP7Nz9O8ubnGyJEDakl7t4xzRGFhoew4d+rUicBA2+iFJEk0adJETpE+efKkVT11ZWJiYmwicpIk0a9fP/l3R+nSteHq1auyU9G3b1+7om2SJFktOmzdutVuOrdarSYyMlK2W5KkWqWae3l5odFobK7b3d2dpk3NdT16vV4uKwA4d+4cAPXr1ycsLMzuPevRo0eNbahM5WdTuWa+8tx9+/blxRdfZNasWXU6R03o37+/3fsYEREhp7xfunSp1vNanmFeXp7d/Y0bN2bWrFnMnj2b1q1/VT11dXWlfv36gGNHPTPTrGxa+T2ufD8LCwttjlEoFDz//PO89NJLTJ8+vcbtEAsLC0lKSgLM98Se+KEkSfIiFyBnptgjIiLC5vjKWQONGjWy6WAgSZJV9kjlVH2B4E55ZHAvpj0xwtlmCAS/W0J8Qrj1l1ucefYMMzvNJKJeBA09GtImsA1vxb7F2elnSZyZiFp590RaBYK6MrHNRBp7N6Z9UHuWP7yc/z3+P5GlJ7CL01LfJUnCpZapvHXB29ubJk2akJKSwo4dO2jevLn8MVRUVHD+/HkkSSI2NrbKeSr3KW/fvn2VH1Tr1q3Zv38/ZWVlZGdn06BBA6v9arUab2/7Ag2Vtzty8muDJWKsUCjo3LmzQ7vVajXR0dEkJCRQWFhISUmJjaK7q6vrHf1D0rZtW4fH21OPr6iokB3Cyk7Y7Xh7e1O/fn2ys7NrZY+XlxcBAQHk5ORw/PhxMjMziY6OpnXr1nJ0XaPR3FVl+dvRaDTyIsXtSJJEWFgYqampdYrghoSEcOPGDTIzM5k3bx4tWrSgbdu2BAYGIkkSkiQ5VDJv374927Zt4+bNm2RkZFiVU5w7d07WSahcTlK5hv/bb7+lSZMmtG3blqioKDltvy4t/CzvAFhH+29HpVIRHh7O1atXuXTpEnq93qZcQKlU2l2sqlzq4ej7/q1V8gV/XO5UnVanq0Crq8Db03FWmEDwoKNx0dA2qC3zR8x3tikCQZW8N+A93hvwnrPNEPwOeKBr1MHs7HTo0IGUlBTy8/MxGAzyH++JiYlUVFQQFBRUbZuxrKws+efqlOEjIiLYv38/YI5m3u6ou7u7O4xE17YOuTosKdsajabadl9RUVFyBLWsrMzmngQEBNyRo17Vfat83ZZIa3Z2trxYYUmvtockSYSGhtbaUZckiaFDh7Jy5UoMBgOpqamkpqayefNmgoKCCA0NpVWrVlaq6HebgICAKrMSLIrver2e4uJiPD092b17t5Wg4O3069cPd3d3+vTpQ0pKCllZWdy6dYvDhw9z+PBhfHx8CAkJITIykujoaLvvRadOndi7dy/l5eWcOHGChx56SN5n0ViIiIiwcrzd3Nzo378/u3fvpqKigosXL3Lx4kVUKhXBwcGEhobSvn17/P39a3U/LaJ9YF4AqArLgprJZKK0tNRmQczRuStvc9R54Ldq1ScQ3Cnb9h8X7dkEAoFAIHjAcJqjbjAYaNL3Sa4dWPmbn8ui0KzX67l27ZocwbSkvUdGVt/yoXL7qOqcjMoRO3spso7axNVk7tpiOX9NnIzKDpu9aP6d9vWu7SJE5Xte1T0DatyH/XYiIiL485//zMGDB0lKSpLT7m/evMnNmzc5fvw49evXZ8SIEVVG9etKdddV+Z6Vl5fj6enJuXPnHKazA/To0QN3d3fc3d2ZMmUKhw4dIj4+XnZ4CwoKKCgo4Pz582zbto3Y2Fi6d+9u9e65uLjQtGlTEhMTuXLliqxQajAY5Fr0Dh06WJ1XkiR69+6Nv78/J06c4OrVq5hMJvm7u3btGocOHaJp06aMHj26xtH18vJy+efaaAXY+/Zq8g6K9DPBvSYu6QolpVp6dHDcDlEgEAgEAsEfC6dG1EtKtffkPD4+PoSGhnL9+nW2bt3Kc889h16vJyUlBUmSaiSIVtkRrK62tnJv9bsdIa8tlvPXJI2+Osf4XjswlVPOKztr9tBq6/4uNWzYkLFjx6LX67l06RLnz5/n5s2b5ObmYjQayc7O5vvvv2fWrFl2swKqeh+qe1cq1+Pbo7KzWZXYoSPc3d0ZNGgQAwcOJCMjg4SEBK5du0ZWVhbl5eVotVq2b9+OwWCgd+/eVsd26NCBxMRE8vPzuXbtGmFhYRw9ehSDwYBSqbRRZgfzOxIdHU10dDQlJSUkJSVx8eJFMjMzZQc/OTmZJUuWMGPGjBqlk1veRYVCwcyZM2t87fYWAoQTLrgf2XHgJKnpmcJRFwgEAoFAIPPAp75biI2N5bvvviMrK4vS0lIuXrxIeXk5jRs3rlFkr7J4nL2U2spcvnxZ/tmSuuwsfH19AbMja69mtzKVxfbq4hTebSxp4UajkcuXLztcUDEajXbF4GqK0WhEoVCgUqlo2bIlLVu2BMzPef369SQlJaHT6dizZw+jRo2ye7w99Hp9tQsIeXl5crTaHpZ0frVaLadkv/jiizW+NpPJhMlkQqFQEBwcTHBwsLz96NGj7Nq1C71ez+nTp20c9cjISHx9fcnPz+fQoUM0atSInTt3AtCxY0e7KeKVz+fh4UHHjh3p2LEjYI6Gr1ixgry8PAoKCkhNTa1WxBF+dbiNRiMuLi5VfntV3UuB4EFFkiSUiqqzcwQCgUAgEPy++MMUXVYWw8rKyuLMmTMAtGjRokbHV46kxsXFVRkpjY+PB8xReEdiXb8Vt9tlccyMRiOnT592aHdFRYVcn+7m5uawTvdeolKp5KhtRkaGQ9tzcnLqJLaWmJjIN998w7///W+7c7u7u/PYY4/J2RRXr16V91XOOHCkzp+ZmVltRL2kpMRhGrvJZJLPWZVzao+ysjJWrVrFhx9+aFe5XZIkunfvLourpVVpAAAgAElEQVTBOap5t6jBp6enU1paKl/P7WnvYG7ZtmDBAubNm2f3uv38/Hj++eflMgx7yvBg+w5XXuxas2aNw3tqMpn47LPPmD9/PmvXrhXK7II/DCMHdGfXtx872wyBQCAQCAR3Eac56pIkcXztl/fsfB4eHgQFBQHmHs4WJenKqtVV4e3tLYurHTlyxKFzlZmZKdfRVqVyfjepfI7bnZPw8HDZ6d6xY4fD6G9iYqL888CBA++bqKQlGltQUGDTYx3MztmmTZvqNHdFRQWpqamUlJRw4sQJu2O0Wq1cymBZ9ABr59HSOux2LIKC1bFjxw672xMTE7l+/TqAVWuwmqDRaEhOTkar1XL69GmH4yyLDI5S0C3fR3FxsdxrXalUyu3bKlNWVkZWVhb5+flyK0N757O8g5XFCqt6hwMCAmRBxpSUFIeLMpmZmRQUFJCTk4NWq622/l8gEAgEAoFAILhfcWof9aahDasfeJeQJInhw4cDcOXKFbRaLc2aNatW7b3y8X/+859lh2LRokVWDprRaOTo0aMsXLgQMF9fr1697vJV2Keyk7V27VoyMjK4ceOGbMfo0aMBcw36p59+Slpamjxer9ezfft2fv75Z8AcxY6JibkndteEFi1ayGJ/R44cYcGCBaSnp1NWVsbZs2f57LPPSE1NrdPcMTEx8uLNtm3buHDhgtVCgE6n48cffwTMz3/gwIHyvkaNGuHh4QGYF34swoRgdu6XLVtmVUpQFYmJifzvf/+z2nbixAn5mfj7+9OnT59aXZskSbRv3x4wO7dr1661WeTYt2+fbGOzZs3szhMQECD3ct+1axcAQ4cOtesEV06dX7p0qVWnBDBH0OfPN7fNUSqV8rxgrQGxZcsW0tLS5PdUkiT5HQaYP38+8fHxVtdz5coVvv76a/n3YcOG3TeLTQJBdbz01Bg++etzzjZDIBAIBALBfcQfpkYdzOnvSqVSFvCqrUPq4+PDY489xurVqykrK+OHH37A29sbtVqNVquVW0MplUqmTp0q14f/1nh6euLp6UlxcTG3bt2SFwtef/11NBoNzZs3Z/DgwWzfvp3i4mIWLVqEr68vKpWK4uJiuY7a3d2dmTNn3lf9ohUKBY888girV6+WW43997//tRrTqlUr0tLSKCgoqFUUVaFQMGzYMJYtW4Zer2flypV4eHjg7u6OwWCgoKBAflf69etn9TyVSiU9evRgx44d6PV6Vq1ahbu7OyqVSk7pjo6ORq/XV+mwN2jQAJPJxLlz57h06RKenp7odDp5Di8vL8aNG1en6HDfvn1JSUnh5s2bnDlzhvj4eHx9fZEkiaKiIvm5N27cmKFDh9qdQ5IkOnbsSGpqquwYO4ruu7u7M2LECDZt2kRxcTFffvklPj4+qNVqKioqZDE5gAkTJliVV7i5ueHl5UVRURF5eXksWrQI+PUdtgj+rV69Gp1Ox08//cTWrVtxc3NDq9VaRdnHjRtX61IBgcCZqFR3lv1x5FQCq7fs55O/CWdfIBAIBIIHBSe2ZzPyry+/4/9mTbxrc0qShLu7O0aj0W4rMZVKRUhIiJyWGxERYXceS6T0duE1SZJo2bIl06ZN48CBAyQmJlrV2bq5udG2bVt69uxpVx3czc0No9FYrVCb5fyVW6pJkiRvv/3alEolU6ZM4X//+x8ZGRny9qKiIjQaDQqFgu7duxMcHMzBgwe5fPmyldPk7e1Nx44d6datm10n3d3dHb1eX6UDbxEPs9hqz+6qnE21Wm33eMv5J0yYQGJiIvHx8WRkZGA0GgkKCqJdu3a0atWKefPmAY5TuB0RFhbGtGnT2L9/P0lJSZSUlFBSUiLvDw0NpXfv3nZFz3r06IG3tzd79+4lNzdXTiNXq9XExsbStWtXtmzZgoeHh41drq6ueHh44O3tzejRo9m5cydnzpyRnWdJkujQoQN9+vSps9Pp6urK5MmTOXz4MKdPn6a4uJicnBx5v7e3N126dKFr165VtrerHG338/Nz+P5aOih4e3tz8OBBbty4YdUDXZIkWrRoQd++feVUdgtKpZJnnnmGVatWkZ6eLm/Pz88nKCgISZJo1aoVzz33HAcOHOD8+fMUFxfLi2MqlYqoqCh69+5NgwYN7L5DCoXCqpPA7bZX9546escFAmeTc6uAUwkXnW2GQCAQCASCu4hkqk7t6jfCYDAQ2OVRck+uccbp7wo6nY7s7Gx0Oh1ubm52HYR7iclkkmuq3dzcHDpfWq2W7OxsDAYDnp6e+Pv7/64dD6PRyAcffIBOp6NVq1Y89thjdZpHr9eTmZmJTqeT67BrIqpnMplkJXNXV1caNGhQpwi4Vqvl5s2bKJVKGjRocMd962+3MScnRxaE8/X1xcfHp0bPvbCwkE8++QSAp556yiplvSrKysrIycmRF3kCAwOrbVdoeYd1Oh3u7u4O3+GKigq5Fl2tVtOgQQOnt0IUCOrK/OVrScvM5v05U+t0/Iadh/n3ktXs/f7Tu2yZ4G7xxtzFeHq48bcZE5xtikAgEDyQ6A0GmvWdyO5vP6ZZWHD1B/wOEH/Z3gFqtZqQkBBnmyEjSVKNFNs1Gg2hoaH3yKo7Y/369ZSWltKkSRO6du1qd0xBQYHcA95eb++aYsm4qC2SJOHn54efn1+dzw3m5xIeHn5HczhCkiS7AnA1wdJuUKPR1NhJB3MGSW3fs5q+wy4uLladHASC3zPach3FpVW3chQIBAKBQPDH4g/Tnk3w+0SpVJKUlMSePXvs9iQ3GAwcOHAAMKcm11TFX1AzysrKZPV6R6UiAoHAuQT4+dC5dZSzzRAIBAKBQHAXcWpEvZ5PzRTXBX9coqOjOX78OFqtlo8//pjRo0fTtGlTJEkiOzubbdu2yTXNYWFhdzVd/I/KxYsXSUxMRKFQcPbsWSoqKlCr1TzyyCPONk0gENihe4douneIdrYZAoFAIBAI7iJOc9QVCgUXdy131ukFvxPCwsJ46KGH2LBhA3q93qaNmYXIyEjGjx//u661v1/w9/e36b0+ePBg0ZdcIPiNmPjIIHQVFc42QyAQCAQCwX2E0xx1SZIQLpWgOizq55GRkVy4cIGjR4/Kqv1eXl7ExMTQvn176tevL5z0u0S9evWoV68eeXl5BAQEMGTIEJH2LhD8hjQIqHdHx5frdJRpdfh6iyw1gUAgEAgeFBw66inXM3jylfcxOkcUXiBwiMlkApMJScrhpyNXgY3ONumBxGQ03+Pv9jruAy8QCMy8OOURnhjZ3ynn3r7/hFB9FwgEAoHgAcOho56RlUthcQkL33vlXtojEAgEAsHvik+XrCbp8vU6H3/oRDwFxSUM72u/s4VAIBAIBII/HlWmvvv7+tBDCNQIBAKBQOCQLXuP3dHxR06fJzU9UzjqAoFAIBAIZER7NoFAIBAIfsdICgUuLi7ONkMgEAgEAsFdxKnt2QQCgUAgENwZI/t3Y2T/bs42QyAQCAQCwV1ERNQFAoFAIHAiGlc17m4aZ5shEAgEAoHgPkJE1AUCgUAgcCIznhwFor2kQCAQCASCSoiIukAgEAgETkShUKC4A0d91+FTTHjlX3fRIoFAIBAIBM5GRNQFAoFAIPgdU1qqJe1mtrPNEDiRc+fO8dRTTznbDEEdkSSJFStW0KJFC2ebUmcKCgoYMGCAs80QVEPPnj35/PPPnW2GoIYIR10gEAgEAicyb+nP3MjM4aO/THO2KYLfKTdu3ODatWu88847zjZFUAfef/99rly58rt21EtLSzl58iRLxr+DxsXV2eYI7HA2/SJrtm1zthmCWiAcdYFAIBAInIiuQk+ZttzZZgh+53h5edGnTx9nmyGoA19//bWzTbhrDGzRTTjq9ykBnr6suXbQ2WYIaoGoURcIBAKB4HdMaHAgI/qJ9mwCgUAgEDxIiIi6QCAQCAS/Y9q1iqBdqwhnmyEQCAQCgeAuck8ddb1BT0lFify7UqHEU+1Z4+NLdCXojXr5dy9XLxTS/ZEUYDAaKNYVA+Cp9kSpUDrZImuKyoswmowA+Gh8nGzN/U9heSEmkwkXhQvuandnmyMQCB5gnh47DL1BX/1AgUAgEAgEfxjuqaN+6PohBiz/VREy1DuUlJdSanSs0WQk9NNQCssL5W2pL6US4h1y1+2sC+ezz9N+YXsAkp5PIsLPNrpx+NphujTqgkpx7xMZYr+J5VzWOfw0fmS9lnXPz/97o+PCjqTkp/BUu6dYNGqRs825bzh64yhtGrTB3UUsXggEdws/X687Ol5brqO0TIufr/ddskggEAgEAoGzuefhaIPJIP93teAqh64dqtFxNwpukKfNszr+fsKEyaFdqfmptP6yNYO+HSRHte81RpPxvrxv9ytGzPfLhMnZptwXZBRl0PbLtnT/ujs6g87Z5ggEgkrsOHCCP814y9lmCAQCgUAguIs4vUb9x4Qf6dm4Z7Xjtlzecg+sqTtuKjc6BHUAwFVprXb5U+JPxGfHOzUK2SKgBSqFCm+1iLgIas/my5s5m33W2WYIBA8kW/cd41ZBEeNHiR7EAoFAIBAIzDjNUW9erzkX8y6y9fLWascajAb+uf+fALSu35pz2ed+a/NqTaR/JCefPelsMxzy49gfnW2CQCAQCOwQf/EqqemZwlEXCAQCgUAg4zQlthldZgBw6dYlTqSfqHJsYnYiN4puoFFp6NCww70wTyAQCASC3wUKpQJXtYuzzRAIBAKBQHAXcVpEvXtod5r6NiU5P5mvjn/F4tGLHY7ddmUbAK0CWuGqcnU4zkKBtoCtl7ay7sI64rPi0Zv0tPBvwYjmI3io+UMEegbaHFNUXsTXp78G4On2T+OicGHDhQ38nPQzcZlxaJQaujfqzhMxT9CzcU8bVffskmy+O/cdAFPaTcFX40tidiLbrmxj/9X9AFQYKpj3yzxUChWxYbE2iw7ZJdlsvLCRDZc2cCHnAgpJQevA1oxqMYqhEUPx1fja2H017yprL6zFTeXGtI7T2Je6j/f2v8fN4psMiRjClHZTiAmMYUXcCnLLcnFVuvJc5+fk409lnGJ/6n7qaeoxqe0k0orS+O7sd2y5vIWbxTcJ8QphUNNBPBbzGE3rNa3ynm+6uInV51dzIecCnq6eDG46mEltJxHhH8G8X+YBMDxiOM0Dmlf7DCuTWZzJ5oubWXNhDcl5yRiNRqICougT3oeRzUfaFe77/tz3ZJVk0ci7EY+2etTuvFduXWHDxQ0ATG47mXpu9eyO0+q1bL28lRVxK4jPjifALYBBTQcxNnos0YHRtboWe3PvTtnNusR1HEs/Rqm+lIaeDeka0pWRzUfSvVF3VErzZ2oymVhxdgW3ym4BMK3jtCrLKZadWUaeNo+IehGMjBopbz+fdZ6NFzey5fIWMoszUavUtAlsw6BmgxjZfKTVfbDco6M3jsrbFhxfgJuLG11DutI9tLvVOYvKi9h0cRPrL6znXNY5jBjN73DzUYyMGom3q23pRUZRBj8m/IiLwoWZXWZSoC1gZfxKfk78mesF1wnyDOLhFg8zud1k+RtIzU9ledxyNl3aRGF5IS38W/BM+2cY3nw4kiTV4UkIBL9fRvTrJvqoCwQCgUDwgOHUGvUhEUNYcGIB+1L3ORxjMBr44vgXAMwbNo/lccsdjjWZTJzKOEX/5f2t1OEBEnMSWXNhDQBbxm9hcMRgq9Zu+dp8Xt72MgD9w/szae0k4jLjrOY4k3mGBScX8Eq3V/hw4IeyAwWQUZwhHz+y+Uh8Nb6cyjglbwOoMFYwZ8ccAD4d8qnsqBuNRjZc3MDDPz5sc03x2fGsTFiJn5sfuyftpk2DNlaOSFJuEi9ve5kA9wB6Ne7FgOUDZMG6+Ox49EY9nw39jI8Pf8zZrLP4afysHPV9V/fxyvZXiPKPokVAC3os6WEleHch9wK7r+7mnf3vsGPiDnqE9rBxhM5nn6f3kt7c0t6y2n48/TgfHPqAbx/5Vr4Pod6htXLUf7nxC/2X9adUX2q1PTE3kbUX1jJ722wWjlzInzv+2Wr/p0c/5UT6Cfo36e/QUU/ITpDtGhE5wq6jXqIr4fHVj7P+4np520UucvjGYf6x/x98MvgTXuz2Yp3aBBaWFzJsxTAOpx222n4x9yL7Uvfx0eGPeLTloyx/ZDluLm5IkoSr0lW2OTogmkERg+zOnV2SzTPrn8FgMrD4IfMimMlkYmX8SiaumWgjahiXGceKcytQouTEtBO0a9gOgPiseKt3GOCvu/8KwNt93pYddZPJxNmbZ+m6uCvlxnKr8eezz/Njwo/4uvpy5JkjRAVEWb1DqQWpvLztZTzVnoxpOYaWX7Qkvzxf3p+Um8Te1L28f+B9rr18jdM3T9NvWT/K9GXyGMv3PbjJYDY9uckpnRUEgrpS388HvV60ZxMIBAKBQPArTm1CPi5mHACX8y5zKfeS3TEnM06Skp9CgHtAtaJzV25docviLhSWF6JWqnk46mHOTj9L4oxEprafipvKDYBh3w9j44WNDufptaQXcZlxNPZuzLyh81j/xHqeavsULgpzauEnRz9h79W91V5f+4bt+WjgR4yMNEczXRQuvN//fT4a+BG9GveSx60+v1p20t1UbkzvMJ2kmUmcnX6WkZEjUSvV3Cq7RadFnbheeN3uucr15XRc2BGjyYivxhc/Nz/UCjUT20ys1k6A64XX6fZ1N5Qo6dO4Dz+N/Ynlo5fTqWEnAMr0ZQz7bphVH3uAnNIcenzdg1vaWyhRMqDJAM4+e5Zzz51jUNNBSJLEuJ/H1ciG2ynVlTL026GU6kvxd/Pns8Gfce2la9x4+QZzB87F19UXI0ambZxGUnZSnc5RHT8k/MD6i+sJdA/kp0d/Iv2VdD4f8jk+ruZe9K9sf4Uvjn1Rp7mnrJnC4bTDqBQqnmn/DKefPc3N2TdZ98Q6Wvi3AMxChK9uf1U+5vGYx/FUewJmIUZHvLf/PQwmA15qLya3mwzA1fyrTPh5AkaTkRb+LfhhzA+kvZJG4sxEnuv0HCpJhQED7f/bXo7aR9eP5qOB5gUDC//o8w8+GvgRA5sOlLfFZ8XT7r/tKDeW46p0ZULMBBJnJHJl1hVmdJqBm8qN/PJ8Wn7ZkhuFN+zaXK4vp+EnDSksLyQ2NJYfxvzAstHLaOLTBIDM0kyeWvcUsUtjzfev7RQ2jtvIm7Fv4uHiAcD2lO3EZ8bX7kEIBE5m8pghvP7c+DofbzQaMRqd01FEIBAIBALBb4NTw049G/ckzDuM1MJU3t77Nt+N+c5mzIYL5tTkNoFtqpyrRFdCyy9aypHCs9PP0ty/uRy5W/jQQj4e/DH1P66PzqBjzKoxZMzOIMAjwGauoooiFj+0mCntpsgp7iObj+Qf/f5B+OfhGE1G5h+fz8BmA22OrUyr+q1oVb8VCoWCjZc24qJ04ZUer6BWquUx6UXpjP+f+Q80T7UnmbMz5egpwPpx60nISqD1V63RG/VEfB5B4V8L0ag01jbripCQOPL0ETqHdEaSJMr15TbjHFFaUYpGpeHmKzfx1njL55/QdgJv7XmLfx74J0W6IuIz42kf3F4+7tXtr1JQXoBSUnL62dNE149GoTCv/2x7chs7r+xk8HeDa2TD7Xx77lvyy/PRKDVceeEKPhqfX8/b81XGtR5H6KehmDAxZ8ccNozfUKfzVEds41h2Td4lR2lf6PYC0ztNJ2ZBDJduXeKf+//J812er1XKtclkYusVs5Die/3fY06POfLxo6JGMSJyBLFLYzl8/TAbL23kC35dDIgJiOFo+lGWxi3l82Gf46H2sJl/06VNADwe/bhs9zv73gHATenGqWdP4eZiXrgK9grmi+FfMKnNJLovMUfIj6cdZ0jEECL8I5jTcw5fn/6anxJ/kq+/chmGwWhgxPcj5N+vvniVBp4N5OuZP3w+f4/9O8GfBAPQc0lPUl5MsSkfqTBWALBvyj56Nu4pH/9EzBM0/qwxmSWZfB//PQA3Z98k0CMQSZIY0XwEE9tMJHJ+JABzD8+1+2+JQPCgsmXvMT5b9jM7ln3kbFMEAoFAIBDcJZwaUVdICp5o/QQA+1P32x1jqft+t9+7Vc51NvMsepM52vvT2J9s0mslScJb482xPx9DQkJv0vP9ue/tzlXfrT6T2k6yciQkSSLEOwQvtRcAJ9KqFsCrKd+f/R4jRiQkjj5zFHe1u43dMQ1iWPHwCgAqTBUkZCXYnauFfwu6NuqKUqFEISmsHP6a8Jcef7Fy0sH8jCa0mSD/btELAMgtzZXv4aMtH6V1g9ayk26xfWCzgbze8/Ua21CZ5LxkwLyAYa+2OcQ7hE+GfMK8ofN4p+87dTpHdbgqXfnpsZ9sUqnVKjXzh80HIKs0i/nH5tdq3qySLDl1O9wn3OY5KRVK3ox9k7di32LhiIWYTL/2c1/40EIADCYDPyf+bDP35dzLXMm7ApidXAunMk4B0MCzgY3WgyRJtGvYjukdp7Nk1BLaNKh6Yawyu1J2yZkeP4750cpJt8zd0Ksh25/cDpizNxKy7b/D4T7h9GhsXV6hVql5pv0z8u9LRy+1OUdTv6Y09GwIwIHUAzW2XSB4EDAajVRUVDjbDIFAIBAIBHcRpzrqYI4eAqQXp5NWmGa17+C1g6Tkp9DYu7GNaNXtLDuzTP45NizW4bi2QW1p4NEAQBYSu52pHafiorRV0FVIClr6twSgpKKkSntqisXxDfEOqVKYbEDTX9v2LDy50O6Y6Z2m11lISyEpeLHri3aPr+9eX/65oLxA/nl3ym45CvqXXn+xO68kSTzcwrb2via0DzJH7nPKcuj9TW9OpJ2wclgBXur2ErO6zrKK8t9NBjUdRH2P+nb3DWw6kEB3szBhVWno9ghwD8DfzR+AF7a8wPIzyzEYDVZjhkQM4e1+bzM0cqjVc2kT1IYmvuZ08FXnV9nM/eLWFzFhoqlvU/qE9ZG3D44wZzZcLbjK02uf5lr+NavjNCoNC0Yu4Kn2T9HQq2GNr2XLpS0AeKm9GBs91uE72DG4o/zzruRddsfM6jrLbr1/VECU/PPQZkNt9iskhfxd361vUyC4V3y25H/M/tcCZ5shEAgEAoHgPsLpikudgzsT4hVCWlEar+98nRV/WiHvs0RrezfuXa0Duu+aWZBOLanxc/OrcmxDz4bcLLlJfJb9WtZ2Qe0cHuvpaq4Ptjiod8r57PMANPJqVOW4QI9A1Ao1OqOOPSl77I7p26Rvne1wU7lRz92+6nnlaLLOoJN/PpZ2DABPF88q71mkX2SdbBodNZrWga05l3WOQ9cP0XlxZ0I8Q+jSqAuDmg5iVNQoQrxD6jR3TekU3MnhPoVCQceGHdlyZQs5pTny9uc2PefwGIAFIxagVCiZ1GYSn/7yKZmlmUxeN5nnNj1H5+DOxIbFMipqFB0adrDKUKjMiMgRzD8+nx1XdpBdkm21mHD4ulmc7tmOz1oJHr7S7RU+PvwxAMvOLmP52eU0929O90bdGRoxlBGRI+T3uzacvnkaMH8Ts7bMcjiuwvDrN1NZRb4ylbUbKqOUfs1ucVHZb0Nl0ZAQCH5v6A0GdBVCTE4gEAgEAsGvON1Rd1G6ML3TdP5vz/+x9sJaKgwVuChdzDW8l801vDM6z6h2nuv55tRbP3c/m9rX27E48nnaPLv7LbW79qiLundV5JblAsjRVUcoFUrqaeqRWZpJRnGG3TFBHkF1tqOq63K0SGKxXaPSVLmQUtX9rAqNi4bNEzYzfcN0Nl0211ynFaexJmkNa5LWMHPzTPqF92Nml5n8qeWf6nSO6qinsb94YcGSkq/Va+VtX534qspjFowwR87mDp6Lh9qD+cfnk6/Np1Rfyr5r+9h3bR/vHniXiHoRPN3uaV7o9oJNHfobvd5g4cmFlBvKWXJ6iZzR8MuNX2TF9FEtRlkd09CrIaemneKZdc9wOvM0JkxcyL3AhdwLLI1bikqhYmyrsczpMYf2DWueoWDJhNHqtXKHhupwJCgX4GarGXE7EvbfNdGWTfBHpXnTUJ5+1DbTRCAQCAQCwe8XpzvqYI4O/t+e/6NUV0p2STbB3sFy2ntEvQh6NO5R7RwqpQr02KiS28MSDXfUwsmRI/BbYHGQLfX1VWGxu7IYXWXutaNiuX/V3XODyVDl/qpo5N2IjRM2kpKXwsITCzl0/RDxWfHkl+djwsTuq7vZfXU3b8W+xdv93radwGS7ycLtLcrsYapqAn69tros4CgVSt7t/y5/6fUXlp5ZypZLW0jITiC1IBUwd0P4656/su7COvY9tc+qrjzYO5jujbqz/9p+1iSt4S+9/oLRZOSpdU8B0DWkK1H+UTbnbN+wPaemn+Jg6kGWxy3nZMZJEnMSKdOXoTfqWRm/kpXxK9k1aRf9m/Sv1fV4ungyqe2kGo21pO7fjqMMAoFA4JiopqFENQ11thkCgUAgEAjuIveFo946sDW+rr7kl+fzzv53+GrkV/znl/8AZie+JkT5R3Es/Rg5ZTlyVN4RmSWZQPXp5veCYK9gruRdIas4q8px5fpyuU95i4AW98K0amlarylgrlvPK8uz24cczMJpd0qTek34YNAH8u97U/by6ZFP2Z6yHa1ey9wjc/l7n7/bLL5U5YwXlxdXe96MIvvZCxZultwEsBK7M71VtXN/O55qT57v8jzPd3kegJS8FL48/iXL4paRXZrNL+m/8OXxL3m5u3U/83Gtx7H/2n6Opx8nqzgLlVJFYk4iAH/v/fcqF256hfWiV5g5zVyr17IuaR0fHfqIUzfNgnNP/PQEGbMzqs1OAQj1CeVy3mU81Z58MaJureoEgj8yUx8fgd5Y9wVNgUAgEAgEDx73RfhKpVTx195/BcxCaaW6Uo6mmWtYx7euWW/ZvuG/1mdX5RiaTCZ5f6cQx/XH94qY+jGAOaX7dqG0ylQW2nuo+UO/uV01wRJxNWFi5bmVDsedyzxXp/lzS3PZd3Uf628huKQAACAASURBVJLW2ezr26Qv68av44MBZue9tKKUo9d/rXtW/P9Xu1xf7nD+8znnq7XBkTo5gLZCK58zol5EtXNVplhXTEJWAsvPLLd57k3qNWHu4LmcmX5Grs22p+7+dLun8XDxwGgyMvfQXA5fOyzv69qoq9VYg9FARlEG6y+stysi93jM45yYdoLOwZ0ByC7NJjU/tUbXYhH9yy3LrTK7olxfzoq4FSTlJFFUXlSjuQWCPwI+3h74+9p2tqgpBUUlXLmWfhctEggEAoFA4GzuC0cdsKox3nBxA9cLrxPlH0XnkM41Or5yyu2S00scjlt2Zplcm15ZEfu3RFHFbbbUEWeVZPFjvGPl8EWnFv16TNQoh+PuJZ2DO8sLDRaRstsxmoy8seuNOs3/yI+P0HdZ3yqPr5zeXbkW3vLzhdwLDo91pDxema2Xt5Jbmmt33ydHPpFLFub0mFPtXJWZd3QeMQtimLxuMmczz9odE+wVLOsp2BNKU6vUPB79OADbkrfx/sH3AXgi+gkC3K1rvfO0eQR/EszoH0Yze9tsu+eTJImRzUfKv1cWoquqHMSS9VJhrOCVra84HLf9ynYmrZ1Eyy9asu6C7eKLQCCoG/t/ieOZ1+c62wyBQCAQCAR3kfvGUW/s0xiNUgMg19lOajOpxnXXUQFRtPA3p4S/tfctViesthlzKv0UUzdOBcyiVTWN1t8p/u5mobhyfTlFWutI4riYcXIK/uR1kzmfZRvlXR63nA8PfQhAqHeoVasqZyJJEv/o+w8AUgpSiPkixiqF/3rBdfp800dOx64tT7Z+EoDEnERe32Hbi91oMvLBIXNE3c/Njw4NO8j7+jQ2L8Lc0t7ipS0v2Rw7/qfxHEs/Vq0NepOeAcsG2ESK96Ts4d397wLmrgRdGnWp4VWZmdV1Ft5qcwTtmfXP2LRmA/jo4Edkl2YD8Fxn+0rylnc4MTuRwzfMEfV/9P2HzXfj7+bPlLZTAPgp6Sf2Xt1rM1e+Np9/7v8nAK3rt6aR96+lIYEegfLPt0pvWR0XGx5L1xBzBP8/x/9j1SrRQkJmAmNWjQHAVeF632SFCAT3A6s37+PLb9c72wyBQCAQCAT3EfdFjTqY1d//2e+fvLrzVcr0ZQCMaF6z+nQwC5vtmbyHpvOaUqYv47GfHiN6XzR9wvrgonDhwLUDcv2ti8KF3ZN32yhp/1Y09DT3pDaYDDT6tBENvRoyqc0k3u73Nm4ubqx5fA1dF3dFZ9ARvSCajg070jO0J3qjnj1X98iOrr/Gn9PPnnYogucMHm75MH/t+Vf+dehfJOQkEPTvICL9I1GgIDk/GZ1BR0v/liTmmq+hNqJrT7V/ikWnFnEi4wQfHf6ITZc30S2kG35ufiTnJXM8/bgsvPbXXn+1ck5n95jNFye+ILcsl3nH5rEzZSct/FtQpCsiISuBtOI0JsRM4Lv476q0oZFXI+Ky4gj+dzB9wvoQ7hvO4RuHOZZ2DL1RT5BnECseWVFrIT8vVy9mdp7J+4fe52TGSUI+CaFjw47E1I+hSFfEsfRjnLl5BoDeob0Z02qM3Xn6hPehqW9TkvOT5W1hvmE24yRJYu7guSyNWwrAwOUD6RDUga6NuqJRaTiXdY4T6SdkwcIlo5dYPasgz187CrT6shXBXsE82vJRPhr8ESqFih8e/YHoL6Ip1ZcyZd0U3j/4PrFhsXipvTiefpzjacflufdO2YuPxqdW90sgeJBJTcskNT3T2WYIBAKBQCC4j7h/PD7g6Q5P85ddf8FgMhAdEE3rBq1rdXyQVxCXZ11m2sZpbLq0iYTsBJsa4/7h/flixBf3VJCtR2gPBjcbzPYr29EatKTkp7A7ZbesUt4ppBNx0+N4ev3THE8/zsmMk5zMOCkfLyHxWPRjfD70czk6f7+gkBS80/8dWgW24s29b5Kcl8zF3IsAeKu9eTv2bYZEDKHjoo4AVsrl1eGidGHduHVM3zCdDZc2EJ8VT3xWvNWYepp6zB00l2c6PGO13VvjzdrH1zJxzUSuFly1eRdmdJrBR4M+qtZRf77L8+SV5fHh4Q/5KfEnq32xjWP5etTXdh3jmvBO/3fwcPHgnQPvkFmSyebLm9l8ebPVmKntp/LxkI8dLnCoFCpmdp7J7B3mdPa3Y992eI8D3AM499w5xq4aS1JuEsczjnM847jVmMbejfnh0R/oGNzRantMYAwPRT7EhksbKDeUk5Kfwv7U/fL+cN9wkp5P4tkNz7Llyha57Vtlgj2D+fZP39rUzwsEgjtDqVLipqn5v60CgUAgEAjuf+6po966QWu2PbkNwG7rKB+ND1uf3IrRZKSxT2O7zsmL3V6Uo4v2nNZg72A2jt9I3M04dqXsIiUvBaPJSBPfJvRv0p/2DdvbjX7Wd68v29YuqJ3Da/jXgH8xu8dsWeTLQhPfJvLxwZ7BVvs81B5sHLeRnVd2kpCTgAIFLeu3tBoT0yCGo38+yqFrhzh07RDXC6+jkBS0DGjJgKYDHKa7d2rYST5vZeXx21kwcgHFumKbWuc/tfwT0YHRNtdTGXeVu3yOMB9bp1SpUDKhzQTGtx7P5VuXSS1IxUvtRevA1rir3TmdcVoeGx0Q7fA89gj2CmbduHWczTzL3qt7Sc5LpsJYga+rL+2C2jEkYojD6GyvsF4kzExg04VNHEs/RnFFMeE+4QyPHE7rBq0xmUy/PjMv62e2dPRSyvRlRPlHEeYbxvjW41mbtJaMkgwCNAH0a9KPvuF976idmEqh4m99/sbUjlPZmbyTE+kn0Bq0uChcaFW/FQObDqSZX7Nq52lVvxVgbtv3Ru+q9QBiAmM4P/M8B1IPsD91P5klmRhMBhp6NqRzcGeGRAyx+31oVBrWPLGGnck7SchOwGQy2Sx2hfqEsmnCJuKz4tmVvIvkvGQMGPB382dws8H0CO1h95tuEdBCfg6VU+wr069JP3mMp9rT7pjPh35Ooa7Qbj2/QPAgM7xvV4b3FQtggt+GWzfiOZ6QZrNdkiRUag2+fvVp1jwSH439PykLM5M5cuYSLl7h9Osexb3oJGvIS2H3sYuofBvRp2v0/VPnKRAIBLXgnjrqfm5+DG422OF+haRgYNOBVc7Rqn4r2TGpirZBbWkb1LbGtmlcNFXaZuH2SKMFL1evKo93UbowrPkwhjUf5nCMQlLQO6w3vcN6V2/w/yfAI6BGdvcItd+LPsw3rNqIsEqpsnuOEl0JqxJWEeoTSvug9vi7+xPpH0mkf6TVuLQi8//gVQoVDb0bVmvr7UiSVOvnacHdxZ2xMWMZGzPW7ryO7t3tz6BNUBvaBLWp9flrQqBnIOPbjGd8m7ppJlgi/U18m1TZltCCJEnEhscSGx5bq/MoFUqG/D/27ju+pvuP4/jr3HtzsxcSYhMrYovYI4gtKLXVKFodNlUdOumvpWqUaksVtVVLbWoLjb03NWJnz5t77/n9EQ0hMcPJ+DwfD49Hcs+473tz3Xs/57tKNKVpiaaPPHf5vOWfqjeMm53bY1/D+Z3zP3Qx5UE1CtV44vsUIjMpVigfjg52WscQIk1ndy9iyMfLHrmPwc6dFj3eZugbnfB0SH3hP/ToOoYMmYJbmZ7sWPbeI6YmzTiWi38zcsgEHCt3YOtvn72EexRCiIyXqbq+i6zFqDfSf2V/zKqZd6u9y+QWkx/aJ8mSxOTdybfbG+yfaoy6eLzQqNCUydvGNRr31GPlhRDaa9/s6S6aPchisWK1WrGxkY908eLYOJSky6u10d39mFGtFmIibnH+7FnOnbvAip++YPXKLaz5cyoFnI33jrNzoVChQrjkddcoucgerKxaOZjpV60PbVEUBb3eSB6XvPh716Khd3mKu7qmvFaFyKrkU108Mxu9DY2KNWLd+XX8dOAnOpfvTAXPCtgabLGqVuKS4hi+fjgbLmwAoG/lvplqIrys6tjNY3g4ehAWF0b7xe0xq2aKuhalnU87raMJITSwevNuJsxawpb5E7WOIrIxWxdfRowciT6N4ifm2gHaterB1es76DjsVzZO74v93R29a3dj3bpuLzmtyH5Ubt48xj//mlEUPTYPDD1UVSsWq4UVB1YBCu92mMIHVcpLsS6yNKmaxHOZ3GIypaeWJsGcQO1ZtdErevQ6PaqqYraaUVEBCCwWyISmEzROmz30+bPPQ0vLTWo2SaM0QgghcjqnfJX4feU0aga+SfiOiWw+0ZoW5fI9/kAg6vo59h09i84xLzVqVMT2CXqG3Tx/mEPnb1PUpzIlCzxLS72VS6eOcPrfa2Drgk+FKhRwl+EnWYVfvbEsD3xgKKoKVjWBcXP6Mv3sdaYsHUYpj8V0KuymTUghMoD0QxbPpVTuUoQODaVT2U5A8hJ0JouJJGsSKip57POwtMNSVnVbJd2yM0jlfJVTflZQmNFqBkFlgjRMJIR4Ht/OXMKQL6ZpHUOIZ6coOOWrSa9SyasPzPpzL/91UD615Wf8/Pxo1HUiVvXeIcHzv6JeDT9qNmzN2wOHMOD1rlQuX4l6zbpwODT63o6WcN5v4Y9/ncbEhB/mlUY1CWjVmUED36FNYB386zZn9o5LT5Yz4V/6t29K1UqVaNauCwMHD2XggL4E1q6Kf51G/LT7Fv9FPL1iPH5+fjTsMgxzWucyX+b1xv741X2FYwlqWnuIF0SnM2DU26T+Z7DBzsaZT3vPoYVnLiCRX/du1DqqEM9FWtTFc/Ny9mLhqwuZaZrJ+fDzJJgT0Ct6PBw98HL2ku7uGezbpt/yVrW3MFvNFHYtTB7HPFpHEkI8B6tVxWyxaB1DiOei6Az07lWPX97fwMnNm4kY1YpcelAtScTFxWFMMKXsG7F/HkP/N5dIxZWg3v1oWLkkpvB/mfv9JI5cOkSf3h+w4s9J5LdTABVTfByxkQn0aNWDU5H2dH7rffyK2LFh8WzW7bvAhIHdcF2ygXbe6beKWxIi6BrYhiN3TOTyrs4bnYMokd+V2/8eY9m8ORwJvcbEvm1otnMzhVxtKdGoJUW+/IUTR4NZcd7EK8WNqc53efNyQkJjKFCzKj520hCRaehs6eFTlNU3wzh97RxJwH/T7KqqhXV7F7LgSAihsTGYrSpGowOlCvkzpFFXits/vAKSNSmKhdtns/DkMaKTzDg5FaBf4Fu0co9k8u6dOHuU5/VK1VIfZI5iztZfWH76OBGmJIxGF6qWasRHjVpjn/rsbApZwL5oI73qtGD+qrH8dfk69o756dv4TdoUKfBiniORZUgFJTKMo9HxqWb7Fs/GwejwwmagF0JkPRXLlmDUG120jiFyPAV3/2oY2UDi9TPcjLeSyyntjpsr5v1BZJLKq6Mm8OlrNVNub9m6OW0aNufs5U0EH7lG+2r3VvtQLWZORbgzbfkK6pfKjQI0b9aMuWMH8dWi3fxv8GjarJiALp3ee7f3/syROyb0+eqxaMEUCjj9V741pE2b5rwaEMRZUwQ7bkXTxdUWnWNpmjfw4cTK4yz6+U9eGZt69Zg/V23BjELd1h2le2omY9Qn/0XufyUkxF6g24xBbL8V+dD+By4dZvn+tcwfMpd6zvf+mnGRJ+g7+0M2Xr99395n2XPuH3pVr8Xi3ZsoVKbzfYW6SvStYDrO+pJ9ETEP3McBFu1dzW9vTKCGm8PdW638vX8+P4XaEnFzHT8fOpNyH6V820qhLqRQF0IIIbKywvk9KZzfU+sYQqBzy3N3srkoEuJVcEp7v6i4JADCbt9M1eKp2OVj1NDhXLfzpFrxB8cWK/gPnUG9u0U6gGLjTKcBg5mztDPXLu3gvEmlhG3ahbpD0WZ880UBEgvWJ79T6qVMbd0K0biUnrNHLdyJ+a+ju47A5i34buVxzgYvJk59FYf/Tm06z+aQM+jcy/FqU+8nfn7Ey2Bl2ZnkoRAl8xVPfm2pCcxcMpLttyLJWyiQya26U82rIAZLLEcu7ubLld+xK+wK/Zf9xdGeQRgUQE3km+VfsvH6bfLmq8HXbd6gQYECXL1+iK9XTmD27k0P3bNqiaD9j2M4GGOiRvmOjGrQlkoeubl15zSzt/zI94eO0OGHj/ln8Ffkt7uvBDPdYdbRBEZ3nEgf3zLsPbwMzxKPX4paZH9SqAshhBAaeqNrayzS9V1kA6o5AVUFFD26RzQzNw6szE/bzrDp59G03LmCoKCWVK9cltKlS1KrQzozxOvtGdTF56HWa1uPkjTxMTL7aAKrziYyyNc+zcOdC5ajZcFyyb9YzUSE3eb2nTvcunmdU4f2sPpC8v9Bi+XeePPCNRvjn/tbdt88x+zDMQyo6IQC/Lt2HqfDLZRr14yS9tKerjlVxWRO4GZkKJtCfmbp5ZugONHNrwEA5vg7rLqtw9nGjnmvDaei090hEjauVCvTlK+U69SbPYuI87sx0RoDCpFX1jDn1GVsnUoxv/84yt/9O5co5M+P/adyZ2JPtofF3h+CU7u/5FCMifwlejCvU19c7vakL5KvAh+/+jXhoW2YfyuEmWf/5aNyqS/w5C/akcGVqwDQ0K/HC326RNYhhboQQgihIWfHtAuLJ3XjdhjnL1+nZmVpgRHaSrpwIXniNYMHzk4Pj/f9T5n2o3kj5Dwz1+znyolgpp0IZhqAzonm3d/gjdfaUzK/W6quyzobIyWNabSWK0aKFckNR69x9mwSpFOog0p82FWW/TqNmQvXcCM68f6TYEij3lZsC9Phlers/imYheN/YcCcd0CBOUt2YsFA8xZNHveUiBdgz+ZheG5+xA46ezo2HU3XIh4AGBwKsHr4ojR3tVpMJOGa/IuakDzhoQIbDu0kGqhZpllKkZ7C4MEblaqy/e9tKTep1ni+3hiCCgwObJlSpP9H0TvweatmLPplBfP3/sP7vt7JLffJW6lSodkTPnqRk0ihLoQQQmRh/xw8KeuoC+2pKofXbiYJsC1TGS/jo3Y28tZXc+g98iKzv5/EwtW7iIqLIzEphjVzJrBm7o9MWrqaQJ/cqQ9LZ842a3IzPoa0Fnm/KyH8HA3rBhGpgs5gxMnZBedc+ahSqz5tX2nLwS/a8P2hh+d39w98Ff1PwYQfX0S09R2cLZfYceoKes+6NK0uY4i1oNfb4WC4rxJWklfB0esM+BSrz2et3qCCm+NDx1mtSUQnxBJ6+yy7Lhwm+PwBtp0/SoTZ+tC+h2/dAKBE/jJpZqhWpBQ67ivUk+LYkpD888jpnRn5iPxh104QroJHysvVhlJ5cz3qIYscSgp1IYQQQkOzlqzl+u0wRg/oqnUUIZ6Zao7jm0XnAQhs24h0hoqnYp+rKAM++pY3PrBiMSdxbvdy3hgyjlvx0Uz4YSmNJr2R0tXdajFzx6LyUEO9msSFi7cAAz5lbUiTmsSy0T2IVMFYuBlrlozD08GATqdLXjpWjWNb7N0u7w/UbLl9/AnMp7D2eiTfBcfz2qXxXIlRqd+zHXnlW7Qmqtb9nD8fXEcdBUVRUFBIaz5BU+J1Onzbg3+iTA/+ibG3cyM+ISLVbdFJyT0u7G3SXknAwc6e+1+KFmsS8U+YX02IxZTqFgW7R1xkEjmXvMUIIYQQGgqLiOLazTtaxxDiOahc2TKZo/FWwJlu9X3Ta/wGTHw5pC9bj8by6dxF1MxnQKfTozPqKVOvC39NCaVu35mEXr6EGUhpmE+KZ/buGMbUc011tqSbp1lz0oJi60jbwmk346umcFbuTJ7te/h37+PlbJtquyX6DpvOJ49RNz3Quqro3en+RgvWfrqKZeNn8G98CCoG2gZUf8RjFC+SoujQ69IfWvEgS8J12o3vQUisCQzudKreltZlq1PaPRdOtk7E3N5FtelfAPfmJ3C1SX6NRMZHp3nO6Lho7u9/oUN/9/WgsGTgYiq7P9yif48epwdePOksViByOJkBQwghhMjCDAYDTg7PN85diGelmuPY8Os4Xh02FxVo99E0yuV71OvRhrjroVy5eoK58/56qHVz387DJAGFihZ/oDXJwuKRvbgYed/Ycms8v00axy0r5CrTnjzptUrq9TjfPdn+wzfuK8cASxwLJ4wm9G6QuNgHEymUqt0VA5B0eg67r0RhLBFE9VKuiKzhwtWtyUW6kpedoxYzpVUvmhT3oYh7XnI7OJKYeP3unvf+9pXyegFw5uqxNM8ZfPFMqteRzsaOsgqAyrH4JFzsHB/xzw6dFObiCUiLuhBCCJGFNW/gT/MG/lrHENlc/J0d9OnVK6XlT7VaSYyL5trVy9yKjANFT+N+n/Hhq5V5dC9ehXcGdmFT/wlsmf0pXc/soF61cjgakjh3eA8rN+xFVRzp2735Q61J+phTvNquC21bNcbL2cq+revYsv8cRpfCfDdpYLprqCt6N17vV52dU/aw9vPXsRxpR+WS+Ym7c5Xd2zez9+Q1Chd049KVCK5ciebufGIpHL1K0bmUkXmnE1FVCOrdHleDVFpZRVRU8nJtOocKFHR4oNeFNY4VO/8CQFVNyasWAIFVGpF7x24On17D1vAO1He/1wvDmniJGYf2pzqNonfk3Yqe9Dt4k+83/EnXvgNwu/8/gmplz5bRfHAilpIlX2FKYIAUYeKx5DUihBBCaKhCmeIUyJdH6xhCPJIl6TYhIbdT3WawtSe3pxf1a1elZbsutKxVOnnM92N41ezN+I9j+Oy7ORzevprD21enbHPKV4qBo7+kTZX8qQ/S2fH5zx/wy3tj+e3nqffOVaYOoz79jKqeqbuzp6Loqfb6d3Q/2pcFW46xYdkcNvx3f57evPHxZLqUPEWDHpMJWb6MmB4+ON9XZCl6R3oO7sy8t+YATrSvXvqxj1FkHu6uyUuhWWO389eFq7xSrAB6BaKjLzP772l8c+pui7oalTzrO+CYryFvV1rOZweO02fGO7zfrBfVPDwJjzjH9+un80/EAyPSFT0tWn1MrqMDuXVxEW//5c5Xga9QyMEWqyWRPcd+p8v6YOKA+nUGSQEmnoi8ToQQIgsLCwtj//79j99RPDOdTkfdunWxsUlnoqrn1KSu33Mdb7ZYsFis2BpfTD6Rs/l3+JzjHT5/5uPLNBrA8eMDHrhVR51XB7E2qA/79gRz5t9rmLChkHc56lUvh40+7ZGZ7uXb8sfGxmzZsJFLdxIp7ONHXb9SPDha2Vj5dQ4cfz3VbXqjK6O/X0Lvk/vYefA4CVYjBb19qVGtHHY6gACOH38z3cfhWrYhCnNwrNSdkvkcnvp5ENopXLAerTxn8dfNaN7+qSufuxfCVW/m4p1rJGJLXZ/GHDixkRj1JjFmC64GA2BgQOsPORs5igXnTzN60eiU8+lt3Ghe3Js158+hu2+svI1DOeYHtaPTiuVs2P0Dm/bOoVguT+JjbxAam1zYV/DtzSBf7wcjCpEmKdSFECILW7hwIcOHDyd//vyP31k8kwsXLrB+/XoaNWqkdZQ0rdm8R5ZnE1mSztaZavWaUO1pDrJxpUGL9s98n15lqtKhzIMzhj+GauXs8u9RgT5DO+IgMzxpQMHTwwc/k4XSro+aqO1hemMeZrz9K+/P/4BNodeJTYjAorfDu2A13gx8h87eHoz/7Tp/x1jZFRXHq3YuycfZF+C7fr/Q6/hqZuzbzuW4JIp4VWRgQGeiDk1kzflzGPX3zQqvKFSpNpBdBasyYuVsDt6+xZ3oO+h09hTPW5igWm8yslqVVOunF8pbBj+rmbw2MpRCPEwKdSGEyOL8/PyYMWOG1jGyrS5duqCq6uN3fEax8QlYrVacHaWVTojMxGJOQtHpiLt5mpFTQ0DvxatlPbSOlUPpaBk0lZbPeLSNMTfje/2Q7vbhPb5n+H2/m01xRJrN2NvYU6lsENPLBqXaf2VMFAC5nB9+PXh41WZ2/9pPkErPm20nkH4/DpHTyTVBIYQQQkPT561g9PiZWscQQjzgp5GvUrlyZWo27sAVi46g8QvIZf/ky4KJrOvWmfn4fh5Eg1+npLHVxKKTRwGF8oXLv+xoIgeRQl0IIYQQQmROigHvyv74V/PD7SV/a82bz4OkJDMWxZbWgyfzRRMPWe86h8hbsgHl7FQunl9Fy9+mcej2bczmBI6e28Krk7qx4UY0Tp51ecO3gNZRRTYmXd+FEEKILKxGlbJM9HpL6xhCvBg6F976dhZavMLbDptGg9cjUWwdcXN61NrwIrvRGUswtfMgOs2fTMjRRQQeXZRqe+68NZjz2kg8ZJk+8QJJoS6EEEJkYR653PDI5aZ1DCGyHUVvg3tuWToxpypT+hW2D6/GltP72B96nohEC24u+ahUuDwNvMvhZiNllHix5BUmhBBCaOit7kFYrFatYwghhHiAi3MhgqoWIugpFwoQIiPIGHUhhBBCQw72ds814/uFy9f4Y+OuDEwkhBBCCK1JoS6EEEJkYUdPXeC7WUu0jiGEEEKIDCSFuhBCCKGhHxf8xSeT52gdQwghhBCZiBTqQgghhIaiYuK4Ex6pdQwhhBBCZCJSqAshhBBZmI2NARenZx/jLoQQQojMR9NZ3ydMmEBoaKiWEUQOV6BAAYYOHap1DCGEeGbN6vvTrL6/1jGEEEIIkYE0LdTff/99eneqisGg1zKGyKGsVpXhE4OlUBdCaKpWVV98SxXROoYQQgghMhHN11H/aEgzbG01jyFyIIvFyoy5wVrHEELkcLWq+D7X8UlmM+YkC/b2thmUSAghhBBakzHqQgghRBa2dss/NH99lNYxhBBCCJGBpFAXQgghNHT9VhiXr93UOoYQQgghMhEp1IUQQggNzftjI1//uEjrGEIIIYTIRKRQF0IIIYQQQgghMhGZxU0IIYTIwhrWqkyV8qW0jiGEEEKIDCSFuhBCCJGFOTrY4+hgr3UMobHw8HD27NmjdQzxDE6dOqV1hAyz49x+7GxkBYrM6MjVM1pHEE9JCnUhhBBCQ++81har1ap1DJGFFS5cGG9vb77//nuto7wQVquVAwcOUKhQITw8PFAURetIGcrHfNKDngAAIABJREFUx4dy5cppHeO5ODo64u/vz7fHlmod5ZmEhYVx69YtSpcurXWUF6pDhw5aRxBPQQp1IYQQQkN2tsbnOv7E2X/ZvvcI/Tu3yqBEIqvx9fUlJCRE6xgvVLdu3Zg/fz6qqtKmTRvatGlD3bp1sbWV1tvMwMXFJcv16Lhx4wZLlixh9uzZnD9/nnnz5tGtWzetYwmRQiaTE0IIIbKwsxevMn/FJq1jCPFCjRkzBoDLly8zdepUAgMD8fLyYvDgwWzevJnY2FiNE4qswGKxsGPHDvr27UvhwoV599132bdvHzY2NnTp0kXreEKkIoW6EEIIoaEfflvBxxNnax1DiEytUKFC6PX6VLeFh4czadIkGjZsiJubG2+++SYhISFERkZqlFJkRqqqcvXqVebOnYuXlxd169Zl5syZmEymlH1y586NTidlkchc5BUphBAiFdWSSGREBBEREcQnPXrsdGJcNBEREcQkWl5SuuwnJi6B8KhorWMIkanZ29vTqlX6wzvMZjMzZszA398fNzc3OnbsyNGjR6WlPQdLTEzk+PHjNGvWjIIFC/Laa69x69atNPf18/N7yemEeDwp1IUQQqRyZeXn1K5dm9q1a/PBj1seue+K8f2pXbsOoxZfeEnpxINsbGxwc3HSOoYQL9yPP/742H0cHR2pX78+RYsW5dSpU0RERLyEZCKzGTt2LK6urvj6+rJ+/frH7j9kyJCXkEqIpyOTyQkhhEhl8rwdWFUFRbGybfViYt9uiGN6O6sqqqqivsyAIpVm9avRrH41rWMI8cJ5enri4eGR0iqqKApOTk4EBwdTsGBBbG1tsbW1zXazwounExYWRteuXenYsSOxsbHcuHGDGzducP369ZQJ5C5dupSyv4uLCw0aNNAwsRBpk0JdCCHEPbEh7Dl3C2OJ1jR138PKkD38sv0W79T10DpZttWkrh+xcQlaxxAiS6hXrx7Lli0Dkpele/PNNwkMDOTgwYO4urpqnE5kBrly5SJXrlwP3a6qKmPHjiUhIYGSJUty5kzyuuLe3t4yPl1kSvKqFEIIkUxV2TH1G24nqlRv0pC2jesBiaya/fMzn9JiiuPfc6c4cvgwZy5cwWx9fNu7KfoWJ0+cIirBnM4eSVw+e5LjJ88Ta3pwbLyFS2dPcuzkuTS2ZU4VyhSnZpWyz3y8KclMTFx8BiYSIvP6/PPPU3728vJixIgRDBo0CF9fX65fv65hMpHZLVmyhLFjx7J161Z8fHxSbpfWdJFZSYu6EEIIAFRrIuOXnwZ0BNWrRLV8bhT6dgmXDm3iQOR7VHZ98mu7oce3M33az2zYtZ+ohHsFs42zJ03b9WTEuz3wcEz+CLJGXqRHt7eJti3Nh10LMnTsbMLizdg45WXU5N+obRvMgA9nUbzTBF5z28qXE2dx+kby5Gu2rvnpNvAjhneuzZG1v/LR1z9w+kby5FF2rvnpNugjhnSun62vSq/b+g8TZi1hy/yJWkcR4oXz8fGhaNGiXLx4ES8vL/R6PSNGjMBisVC6dGkOHDhA8eLFtY4pMpnt27fTqVMn/vnnH8qUKUOZMmVYsWIFAL1799Y4nRBpk0JdCCEEAAkXl3Mx2oTeKxB/Hw8MNrlp36AY3627wPgftvHbe0/W6hB7aQu9ew/kcrQVL++yVC1WADu9yu3Q8+w/epa/5nzDHRsPfhrWKrmAtpi4dOECYUoU/T9Zh1fpqlTOa8eRo9cp5p2XpDNRXLhwgYStM+m7ZxUe3hVoVCEfMdfPsvfIeWZ99T529GT655MoUrYKgZU8iLh8kv3H/2Xml6MoUG4tnctl3i6xZy5eJT7RRIXSxbSOIkSWUKtWrZRCHUCn0/H+++9jMpmoWrUqu3fvpnTp0hqnFJnFoUOHCAwMZOXKlVSrljyfR9WqVQEoUKAA5cuX1zKeEOnKcYW6GhfNmWvxYLDFu7Ar+kfMN3Ij9DaR8VYcc7lSwN325YV8QpYkM6rBgEHDOVPMZgt6gx6ZtkWIrE1VTcz/bAImFVr264OHjQLoadSmPZPWjefEyu9IHNkA2yf4zz5jzFdcjjZTrvUQ5v2vH8Z7d8LhOYPp/r8N7F62nGuDWlHgvk8h1XoHh6r9WTp7EI56hZiYaByc9FxIHkbIteBVVOoyjl8+aIOtDsDElHeCmP73JaZ9PhX/Xt8yc0Szu+/rZr59uy0/bz7PygXr6Pxlxwx8tjLWnxt28m/oDaaMeVfrKEJkCUOGDGH+/Pnky5cv5TZFUfjkk0+wWq3UrFmTXbt2UaZMGQ1TiszgwoULBAQEMHbs2FTL+/1XqMuybCIzy869AdNkOriFBm0mU2/AOqIeM1Ty249nU6fNZEYvvPToHV86lfCrl+jaexEXtRqCabUQevwEHQf+SXqjSIUQWYcp/CqTQuIAG3rWL5Fye/EajajqDAlhF5h+JO6JZncvHRhEgH8V3u7X/V6RDqAoVOg+lDz2oEbfJtL04Nl0vPvF6zjevYLq5OSc6kNKMTgxZXjLu0U6gJG6gYHJP7kX4eeRze67+GogoF5NACKunX+SpyDrUhSZ5VrkKH5+fpQoUYICBQo8tO2zzz5j4MCBVK9enbNnz2qQTmQWkZGRBAQE0LNnT4YOHZpqm7e3N05OTjRu3FijdEI8Xo4r1LOFpBs0bfcjW87Fahfh34M06PQbB24kaZZBCJFxru6ehRnQ+/SkRD6HlNsVu8L0ea0WkMTsoeMwWR9/rpZd3+L72fOoX8I+1e2qNZ51C5cQnQRgRX3wXDo9dd2NpEdvWxVHW32q2xwck7u0O7mVeaiLmKNT8qJyVmvWmFTuWbUIqM76X7/WOoYQL1VAQECahTrAmDFjGD16NJUqVeLy5csvOZnILAICAqhfvz7ffvttmttLlSpF27ZtX3IqIZ5cjuv6nl1khjWLM0MGIUQGMIcxbfwfABRyu8q4Tz5JtTkuLLnQNV37k9MRoymfy/6hUzzIGneTudMm8fumfwiPiSMxIYHYuHhSJn3XP/weoih6jPr0rx/r3PKie7Dl+O7ver3DQ/vnlFZmvU6HXpYWEjlM7969cXZ2TnOboiiMGDECOzs7KlasyP79+ylatOhLTii01LRpU4oWLcrPP/+c7mdB+/btKViw4EtOJsSTk0L9Od26eoMzV2NxzZsb3yKPn6zImhjP8VM3iUiw4prHjTJF3bF5zPerxNgYDp+6Q9EyhfBwyIAvY4mx7Dt+B69i+cjv9nDr1Y3LN7l4LRqr0ZZixTzJ55p+C9fjRN0O48T5CIxuLlQslUe6cAiRCd0+u5+115OL8YvBa7iY3o6qmU9m7mPJiDqP/L8cunMWPYdP5Wrkf2uDK7h4FqJ+QC2at6jB18MGc9uU1pGPLqx1Bpv098jCRfnAXq+gqnLpU4inUb16dczm9Aff6XQ63n33XQwGA35+foSEhFCsmEzYmBN06dKF+Ph4li5dio2NTbr79e/f/yWmEuLpSaH+TKysX7iRcbP3cfxKbEqrkFs+Tzr1bMxHXX0wppqlzsqxrXv4cOpu/jl5h6T7vo85uLrQuGVNvhtVF6eUb75menSdzHG1MJ90dOW9sdu4Ha+i2NjSKTAX2/dHcz0eVK7Srtk3GPPkY+fCHtilF9cSw5BO09me6MD8Yb50fO9vQmOtKDZG+o3qzhedimOKjWLi1ytYvPkCl8MS7x2r01OsVGEGDm9Ltxq5AZg66AdmHr6TPMb/3En8A7/BJX8Btv7aNeWww5t389GUnYScCcd89/Hau7nSNKg2E4bUwPlxVyeEEC+JlX9W/IIVcK3Wj//1q5ZmEX7n9EreH7+SE/O+4Oobf1HIJZ2PD2ssQz+cxtXIBCo37827PVrhXawwHq7J3dAxX2QCAKp0y7nLaPN8H8X7j55h9dY9fPh29wxKJETmp9PpMBof3ZCg0+kYMGAAOp2OSpUqydJt2ZyqqgwfPpwDBw6wbdu2dHtc/CdPnjwvKZkQz0YK9Wfw59RFvD3jGCaDkVoNylO+iAsRoTdYteksM/43nyvRnflhQLmU2ZHP7NxN87dXk6AoVKlZliol3LHFwunjF9my9zor5q8nzsmT+QPvLSVy82YUlyPPMGJsHLnLlKJdWRe2bzxG7bw27DH+N8u6go1Rj9FGn1bM+6iE3YzkckQ0rQdew6VsCfpVdGf31jP4ls2Laorl83dnMOOfSGzcctO2XQUK5bIj6k4EO3ac5tzJC4waPo96mwdRyAb0Bj1Ggw4FUBUFo40eG8O9r/bH1myk/egtRCbpKFetNDXK5MEUGcGmTcf5Y85qTl9P4M+vAnA1Zt0WMCGyC0vUOX5ZegB0dgz48G3qlUz7i29iuYJ8OX4lMUmX+HP/Jd5pkPaXXWv431y4GQe2pRg9Zhi+LqnLftPlHUQnAIoVq6ryuFZ08XhXr99i4859UqgLkQadTsebb76Jqqr4+vqyd+9efH19tY4lMpiqqkybNo25c+eyb98+PD09tY4kxHPLsYW6GhPBilWHcHzEd8Rztx7um5l04wQjZh0jyc6F76b1oWu1e1fjPj93grqvzmfVtCVsCChCKx9nsMbzw8SNJKAj4M1uLHirNLqU+7Ty+5QFvDnjBAfW74aBD6z5GR+Le+2abJreEjsdWIc0RrF1oNPAG1SrPZVL+vwsXtGfEk/4V1StVqK9yhD8a1dy2epIGpiIxd6WiyH/MOOfSAwOudi6dhAl7jXtk3D7Cm3azeBAeBg/70/i0+o2DJjQj74X9lE2aDnm4qXZsawTKR2LzJH0/mw7kWYb3v3iNT5oWyyldS4x4gZBbaZxYP3f/NTKh+ENvZ4suBDihTkdvIFjMWCXuzBd0ynSAWxd8/NuTVfGBUcye+p8Xqv7AS5prW9pSUpuKLeaSTJbuH/OUqspnDFDvydOBTCRJHNRAjBt7p9cvXmbL4e9rnUUIbIlRVEYMGAAZrOZGjVqsG3bNipXrqx1LJGBVq5cybBhwzh+/DiFChXSOo4QGSLnFuphlxjx/lMuu6ZaWfzln0SYoOWwtqmKdAA37zL80jM/LX+6yrSVF2jpUwHFrFKvQwPMR+/wyYD7i3QAHQH1fNDNOIHJFIeVh6fhbxVUFbu7N+rsHJ/yUT6s5eA25Lq7tpGNoy02gGOePIzs7c9F5zJ4O6ZOYJenAK/UcOfAmjCuXEtE5RFjRFG5vHwFl6ItFGrShFH3FekAtm55Wf5dbUr12Ma0WQd5O8ALe2lME0I7qol1y38HoHCtno/+QFCMvPrxUCa0GEPc8UXsOfUWgWVzPbSbLk9DvHIZOXPnPB+M+JxPBnfBzU5P5PXTTPrkI/Zds6DTKVitUcTEWiC3DIOJS0gkKiZO6xhCZGuKojBw4ECsViv16tVj+/btVKpUSetYIgPs2LGDV199lX379snQBpGt5NhCXZenKJPer4HDIwrF335Yyd+n7y2BplrMzN6d/GWqXjF7rt2IeugYrwAfbH+6yv6dZ4mxVsDZ6ECbzvVok3wGrBYriYlmEk1mYsIjWbbiGFZIZyIhA6W9M3L8jJ4mtR6erdnTuzjDh/33xqZiSjRjMplJMJk5d+Q0a44lPwfWpMcscaRambfoLFagXk0Pbqfx/JCvDI622wg/fIbzsU3xdZIv6UJoxXR1F79vDwWdCz0HBj12f9uCbSniOpYzEYn8unIHjcumcYzOje9Gd6Pz+3O4ELyUnsFL7x3v6MagHxZyamIP1p66xfGT56lfuPTD5xBPxdnJAe/C+bWOIUSWMHjwYHQ6HbVq1WL37t1UqFBB60jiORw/fpyAgACWLVtGuXLltI4jRIbKsYU6Di40CSyH+yPqxB2L16b6XbWYuXB3Jrj33pnBe486/81IwlX4bxqL+IhbjPlwGfO3XcWsgorKYyf5VYw4O2Vgk7NOh6chnfOpFvat3s7g8Vs5c8eMqj5BvgdPYbVw8N/kg377dA6/PXLvKCKiVHB6uvsQQmQcm/x1+fvQYQD0+sfNdQGKzsDv20LuzgGX/F7yyofzaPcBKLp7xxdrPpxdDfvy1/w5bD1wFvvcBanfuiONKhVBp+hQa2/iaxUUJfkNWHEvyea7OXRp5CheoyeHD/cARceDW0sG9OLw4Z6kNdbdu9k7HG7ydprbspMGNSrRoIa0DArxpN59913s7Ozw8/Pj0KFD+Pj4aB1JPIObN2/i7+/P//73P4KCHn+xWYisJucW6s9AvW+S4p59GlHU/RFPn40rrne/G+5aspKuX+4h7r5VRLyKehHYsDxtyuh4deTatM+B8kBX+eeX1vnMUXfo1vkHNl+KT7nNYGdPFb8SvBJUhciNfzFu/Z0nOn/i3eq+dZe6VMn/8LrG9+gp4py9vzwLkdkpOj2Gp+nUoijoDanf9/T6tN4HFfS27rTpPYg2vdPYqjekGhajKAoGQ/rvp4pOhyGddcIf9Rh0Oj1ZYXnx9s3qEZ+Y+PgdhRAZQlEU+vXrh9FoxN/fn+DgYGmNzWLi4+OpVasWb731FkOGDNE6jhAvhBTqT0Gn0+OsKESjUrtxFdpWePy66YlXz/LWuD3EWfQEDerAyGaF8PJwwsnOgALcObAveUfNlilSWfPrX2y+FI/R1ZN501+ldEFXPNzsMegUwMq0jVaAuzM0p0/RKRRyViBBpaB/Od4OLPAS8gshRNZWrFC+5zreZEoiwZSEi9OjLo4KIe6nKAo9e/ZEr9dTu3Zttm3bRsWKFbWOJZ6A1WolICCAgIAAxo4di6JIw4/InrJAW0MmYtDTtEByx8slwdfSrK0tN/9lzfbzXAlLAODMkX8JNYFL/gLM6FeeUoXccL5bpAOcPX8jeYw6qja1umpi0+ZzgELQ+72oX8ELr1wOd4t0wBzL3mORyT9arCmHpf2WaKBtQPLFixV/niUhzScokr/+Ps2ZazE8ZsS7EEKIJ7BuWwhB/T/QOoYQWY6iKHTv3p3vv/+eWrVqcfDgQa0jiSfQunVr8ufPz+TJkx/ZG0uIrE4K9aeg6PQMHVoZowIbfl7N6hOpJ0uzmhMY+c48eg6Yxatf7SMJ+O8in9lkIvaBwjXm+mW+/jm5Rd1qsT55oa7o0Cmgmq0ZUuwmZ1S5fSP6gZZ9KxvmbWT11eQCPT7u3nJ1ikGHDrDcn1tRaPBmc5xt4OqWLfy0+Vqq+1GtFn77bB6vD5xDo36rCTMjhBA53oFjZ9gecljrGELkSIqi0K1bN3788Uf8/PzYs2eP1pFEOlRVpU+fPoSFhTFr1izs7R+eIFmI7EQuQz0VhbwBrWhb4RSLD4XRr8+PvPlGAHVKuWKOjeb3uRv5/Xg8GJ354s2K2AAlyhejsN1mLt26TtM3/uSjbmVxMqpcOf0vU2bu4t94sOVu10UVnmjuOJ0z9rYKhN1gwZKj1C/mRI3qRZ9tqTPFSONGpfjt1Em2TfmFbxxa4V/MGXN8LJtW7Gb2hkvYOdsSF53IjdBIUPOBAoq7M056CL9yhZlrT+HrbqRu9WLoPcsytGlBvvjrCp8Pncmpng1o658PXVICW1ftYvqaa4CB998PwENefUIIwaZdB/g39AZ1q8ns00JoQVEUunbtiqqqNGjQgI0bN1K7dm2tY4n7WK1WvvrqK/7++29CQkJwc3PTOpIQL5yUSk9Nx9Rf38TmrV9Z9s91po5fztT7trrlzc1n3/amUfHk6cxt8xdn+ph69Ph0B+d2hdBrV8jdPRW8ihVixpSW/Pnej6wIjeWPK2a6F3qCP4nOnkaV8nLy7+tM+3Ih02xc+X3XcOo8W6VO0x4tabv1On8ci2D8l/eWUrKxt6dhx6YMqa/S4u31XNt+AAulMKCgcypCvYqu/LYvkjHD52Jwy82Z7UNwVODtr/qSYJjL9DUXWDxzLYtn3rs3e1cXeo/sQv/aHs+QNeOlvSyeEEJkHYqiPNGs/UKI9P3XDd5qtRIYGMj69eupU6eO1rEEyUX6ggUL+Oqrr7hw4QK5c+fWOpIQL0WOK9Rta7Um9GjrJ9r3fz8P539pbTA4M/HHd/ji9k2WrDjCkX8jMTo7UyegIi2qePLgnBbVWjfhSONaLF28h5Bzkbh75qZF66pULZJczLde++mDd8C6jZ88MttHk98iYO0/rNwdio2rO7lNKuk2qeud+XXbF+mey+Dszo+LhjHmyElmrzpDuEVP6fLedGpaChfb5NERN4/We+AoGyb+Moimv+9mw+E7uOT1JEEFRyU5/7AvejPo/ShWrDzInpO3UW0dqFK9DB0DiqDLZJN+7Ny5U66cCyGyrFaNatKqUU2tYwiRLbz22msYDAYaNWrE5s2bqVWrltaRcjRVVdm4cSP9+vXj6tWruLu7ax1JiJcmxxXqGckxjye9+jR6on1t7J3o0rMRXTLs3nXUaVaDOs0y6nwKBcr78EH5p1hLVGekWYd6NOuQ9maDowuvdK7HKxkT8IXp3Lkzly5dkllDhRBCCEGXLl0wGo3UrVuXnTt3UqNGDa0j5Vh79uyhZcuWHDx4UIp0kePIZHIixwsICKBly5ZaxxBC5FCD+3Rg4gdvaR1DCHGXoii0b9+epUuXEhAQwI4dO7SOlCMdP36cxo0bs3DhQnx9fbWOI8RLJ4W6yNEUReHbb79l7969zJs3T+s4QogcyKDXYTA8+xjznXuP8O6nUzIwkRBCURTatWvHggULaNq0KVu3btU6Uo5y7do1mjZtyqeffkr79u21jiOEJqRQFzlenjx5WL58Of379ycqKurxBwghRCYSFhHNkVPntY4hRLbUtm1b5s+fT5MmTaRYf0liYmIIDAyka9euDBs2TOs4QmhGCnUhgFq1ajF48GBq1qxJYmKi1nGEEDnI1Dl/MOrrn7SOIYRIR5s2bVi2bBkBAQFs2rRJ6zjZmsViITAwED8/P8aOHat1HCE0JYW6ECR3cRszZgzx8fFMnjxZlm0TQrw0CYkmYuMTtI4hhHiEVq1asWrVKlq2bMn69eu1jpMtqapKUFAQTk5OTJ8+XZadFDmeFOpC3GVra8uhQ4cYM2YMISEhjz9ACCEyAc88btSqIhMtCfGiNW/enN9//522bduybt06reNkKxaLhbfffpszZ87w+++/Y29vr3UkITQnhboQ93F2dmbixIm0atWK6OhoreMIIcRjVa9UlrHD+2odQ4gcoUWLFixfvpygoCAp1jOI1Wpl6tSpzJs3j/379+Ps7Kx1JCEyBSnUhXhA//79KVu2LEOHDtU6ihAiB+jVvimjB3TVOoYQ4gk1bdqUNWvW0KxZM9auXat1nCxv6dKlfPDBB4SHh+Pk5KR1HCEyDSnUhXiAoij89ddfrFmzRpZsE0K8cHlyueLlmfuZj080mYiIisnAREKIx2nYsCEbN26kTZs2rFixQus4WdaqVavo168fR48elTHpQjxACvVsqH+nbylTZyxLD0Ted6vK7ZPHeH3GeWSatMdzcnJi5syZDBw4kNDQUK3jCCFEutZv20vbNz/SOoYQOU6jRo1YvXo1nTp1Yvny5VrHyXK2b99O9+7d+eOPPyhatKjWcYTIdKRQz4aio+IJi4gj0XyvJD+zdRNVOiwg5EqiFOpPqGnTpvTu3ZuuXaVLqhDixdn6z2FWbArWOoYQ4hk0atSIVatW0blzZ/744w+t42QZR48epWPHjkyaNImAgACt4wiRKUmhng2Nm9qHTUvfonnZe5NxxIVFIIv/PL1PP/2UyMhIPvvsM62jCCGyqZBDJ9mwY6/WMYQQz6hhw4Zs2LCBdu3asXz5clni9TGuXbtGUFAQQ4YM4bXXXtM6jhCZlhTqzyA6IppLoRFEJ1hSb1BVYsKjuXQ1/OFtaYiLjuNKaAQ3wuOfopVb5c6tCK7eiCI+yZrmHkW9vShfJj+5HJ9urI+qqkSGxXDpagR3YkxPlMmalMS16xFEPsHjzYqcnJz49ddfmTBhAidPntQ6jhBCPESn02FjY6N1DCFytHr16hEcHEy3bt34/fffpVhPR2xsLA0bNqRt27aMHDlS6zhCZGoGrQNkdpawUHoNWok1fzF+GlGJsZ8uY+aWq1hUUIz29BnYho96lEMNv8U3Xyxl+sarqIBiY0+fwW34sJsvjgYl1Tmvnr3IN+NXsXTXNUx3a22vUt589mFLWlX2QK/c2//Qxu2Mnn2cWt3a0a3gHQaN+p3gf+MBsHVx5fU3mzO0sy8uxnvHjBk6m703Exk0uitNSquMGrCA3VfuAHBn23padd+GT/MmTOhWDADVYubY3uN88tUatp35b0kyhQp1q/DZ8IbU9Hbl/kfw3qBfOBpux5iR1Rg7chG7LsVjsHXg7S/7MbqZB6kfbdZXoUIFJk6cSN26dQkNDZUvxEKITKVlwxq0bFhD6xhC5Hg1atTg77//pnHjxlitVjp06ICiZLdvRc/ObDZTp04dypYty/jx47WOI0SmJ4X64yQlcODQZZKummnUZBsXsCFXbmd0VjNhEfHMHL+Q8Ji2XFrwBwcSjHh4OIPZzJ2IeGZ+sxCTvjcTunsDyS3Wl7dtoM6720iwgqOzPe52BswmEzdPn6Pfa1NoNqIPv7xWNKVYj74TQcjByyTlD2HS6mDsHe3I6+GMNSmJsMhIpn29kCOX2rL0Q7+UAvn0iauEXI7nVqwFVCvnT13jTERyi3dS+B2OxOiwqZqYnMlq4fepCxjw0ylAwdXNEXsbHQnxCRzZvo+2O4/ywdQBDKqXJ+UpOXH8KiHX9fR/9wy3YxTyejgRE23CqbB7tivS/9OrVy9++OEHevXqxdy5c9HppDOKECJjONjb4eLkoHUMIUQG+K9Yr1+/PlarlY4dO0qxDlgsFpo0aYLFYmHBggXyPUqIJyCF+hMKv3mNGCcPjmx9h9xGHQqwYsp8+v14gt9/+APnfIU5sb0fLgoowF/f/srrv5xl1eqDfN3dGz1gir5NnYHJRXrrQd2Y8XoZ9EpyAX96yxbqDfybtd/MZHmtUXQomXodyYMd9K/bAAAgAElEQVSrgyneqBnbv62FQZf8hr9j3nLa/28/O9fv4dZoPzzTes/Tu7Nw88ccWr6MpmMOkTeoMwc+K5My5uHMlh289dMp0BkZ9fNgBvk5o7ub6bevfmXY/HOMGzmPxlsG42t333nVWK5Zi7B9ax9K2utISIjHaJd9X046nY6NGzfi7u7OwIEDqV69utaRhBDZxIBurbWOIITIQP7+/uzYsQN/f3/MZjPdunXTOpLmBg8ezO7duwkLC8NoNGodR4gsQS5nPTED7/zQnzy2enSKgqIoNA+qgLsCYGTIhNdw0ykp21r0rIanAuHXw7ljAVAJmbmIBAvkqtWYyX3KYNAl76vT6Sgd0IDFrxcEYOTne4h/YGiTXR5PNn5bGxu9DuXufdTpVJ/q7mANj2JPZNrj1bl7ft3d4l5J+V0HWJi3YA8qULd3R4b4u6C/L1P397rxRk03rDG3eX/SsYdO3aZnHUo66FEUBXt7B/TZ/IKxs7Mz+/btIyAgQJZsE0JkmP/e05/Vxh376DTw8wxMJIR4XlWrViU4OJi+ffsya9YsreNoauLEifz222/cunULOzu7xx8ghACkRf3JOTjQvbx9qq7dhtxOuCoQ7uRKC9/Ubzx6FyecDHDLYiURwJLA7GXXAXj7rYo4PlDVKooO/54tMcyaQczB/VyOCqCU673rKHnyFsXpwWOMLnjl1kGEhegYwP0pH1PiTXYejAIbF97pU+qhbuuK3kjb1uWZEbyd87sPAb6ptlf1zpNtu7qnRVEUKlWqROfOnenWrRsbN25Er3+6CfuEyGiKohASEkKLFi20jpJtXbx4EVtbW61jpCs+IZEbt8O0jiGEeIC/vz+bN2+mUaNGWCwW+vbtm+O6wc+ZM4exY8dy6NAhHB0dtY4jRJYihfoTMhht8HiwJlMUFEAxGnB/aJsO5b7+CtZEE0eikn+u4Zn21USjvTu2egWzOYqoaDO43usaZOfuksYROgz65DuxPsPsopZbYYQmgC6PM1Vd0u5cUaxwHnRAXEzEQ9vcnDPvF9cXacaMGZQrV46pU6cyaNAgreOIHK579+5UrFhR6xiPFBUVhYtLWu9hWYNOp8Pf3/+FnX/y7N+5cv0WX49644XdhxBCG/ePWdfr9fTu3TvHFOt//vknw4YNY9WqVRQqVEjrOEJkOVKoPyHlblGe/vbHnMBiJe5uLW2vS3vn++/Dak1deCvpHPM8rIlJmAC9QY9tOqc32hhQ0sgDSkp3+pzGxsaGxYsX07BhQ2rXro2fn5/WkUQO5uzsTK1atbSOkS5VVenYsSPDhw+XuR3SYUoyE59o0jqGEOIFqV69OsHBwVSvXh1FUejVq1e2L9Z37dpFv379+Pnnn1/ohU4hsjMZo/6SKDZ6PO4+27dMaa85brWYMasqYMDW9sVfQ9E5O+CkgDneRFg6Q9wjouKwAjYy8UcqFStWZMSIEfTt25e4uDit4wiRaYWEhLB06VL69u2rdZRsq0iBfLQNrK11DCHEI1SuXJlDhw4xcOBAZs+ena3XWT979iwdOnRg3LhxtGnTRus4QmRZUqi/JIqtHXWLJfeP//NINGm9PcfePEOSBbDzIpfri//T6HN7UiK3DjUygjXn0m7NOXL8CirgktvrhefJakaNGkXevHkZPHiw1lGEyJRUVWXcuHEAHD9+nIsXL2qcKHuq4FOcwb07aB1DCPEYPj4+/PPPPwwZMoRffvklWxbr4eHhBAQEMGjQIF5//XWt4wiRpUmh/rIoRvq/WREFmP/lSi5Em1Nttpji+XrEX1iAUm1qkt8uY7tE/ddN3WK5r+lc70azegVATWDaF+tJfKB7uyn6FjPmHwEUarSRbktpmT17Nr/99hubNm3SOooQmc6uXbv4448/ALBarSnrCovUXu/YnI/f6aF1DCHES+Dj48OePXsYPHgwP/74Y7Yq1k0mE+XLl6ddu3a89957WscRIsuTQv0l8mrYgtL2Ooj6lwbtZrL7cjwACZF3GPjad/x80gwYmPlWaTJ6LnEbd3sA7uw7SZzl3odCj9cD8FDg0r7dVO26jDtJydsi/j1LyzbT2XXDiluJkkzo4JHBibIHLy8vFi9eTKdOnbLVh60QGeGLL75I9fvly5e5ceOGRmkyL3dXZzxyuz3z8QmJJsIiojIwkRDiRSpdujT79u1j4MCBTJ06Ves4GcJsNlOyZEl8fHz47rvvtI4jRLYgk8m9RDqjLRs2vUOroOkcun6ZoBZjMdrosSSZsaigt3Ni0fJBlMqV8ePB8xYpjcIurFcPULraEXLXCuDA1PrYFS7J6rntadZzGTePHsSnyiFsbfSYTGZUIHeJUvzxSxfssvmkJ8+jefPmdOnSBT8/P/bu3ZvtJ4gR4kns2LGDdevWpbpNVVWaNm3KoUOH5P9JBtqwfS8TZi1hy/yJWkcRQjyhkiVLsn//fmrUqEFCQgIjRozQOtIzs1qttGnTBqPRyF9//YVOJ+2AQmQEKdQfQ+fuxcyfepNksMHmgW2KXV6m/tSbBIORh1aG1HswZXpv4g22eKR8H1WwdfFk9eph7N19imXrTnL6ehwuuXPRuElFmtYqQj4Xm1Szy5drUJNlRcvi4JorjXQKAz95jS5xCiU8770pfjCuK28lWilZ+l4qt8LF2Dm3C5Nm7+VCmAmvQnYkqOCoKBSpVImQv4uwc9sxlm06R2i0Ga9C+QhqUZG6VfLjZpe6ff+Lr7sRabJSytv+6Z7MbEqn0/Hll1/i7e3NTz/9RP/+/bWOJITmPvzwwzR7mRw5coTjx4/j6+urQarMadXm3YRFRNOjXaDWUYQQL5Gvry87d+6kTp06WK1WRo4cmSUvYg4bNoyjR49y6tQpbG1z5tK9QrwIUqg/hmK0p3p177S3Geypls42dHb4+ae9zcbBiZoNq1KzYdXH3r9b3jzUzZsnna06ypQvTpkHbi1XqdjDWRUdJSr7MqVyWl+OFZxy56Jpu7o0bVf3sZkqVH74/Dmdi4sLW7duxdfXl6ZNm1KkSBGtIwmhmV27drFjx450tw8ZMoR169ZlyS+kL8KJs5f4N/SGFOpC5EAVKlRg165d1KpVC71ez7Bhw7LUe+OECRNYunQp+/fvx87OTus4QmQr0jdFiAzi4+PDuHHjaNKkCdHR0VrHEUIz77zzDhZL8jKUHh4eeHp6Uq9evZTtGzZsYP/+/VrFy3Z0ej12soSmEFlWuXLl2Lt3Lx9//DGTJk3KMpNu/vrrr3zzzTesX78eDw+Zy0iIjCaFuhAZRFEURo0ahYuLC2PHjpXJ5USOdODAAQ4dOgQkrxscHByMi4sL3333HUOGDEkZu/jVV19pGTNbaRlQnbWz/6d1DCHEcyhVqhSnT5/miy++YMqUKZm+WF+7di3Dhg1j0aJF+Pj4aB1HiGxJCnUhMtjff//NjBkz2LBhg9ZRhHiprFYrbdu2xWq10rFjR4KDg/H29sZisWBra8uECROYN28eDg4OKV0lBfyfvfuOiuJqAzj8m92l9yaIKCpiRbGAvddg77G3mGgSTTGaT40tUWM0dhO7xpJYYos9drGiYgEVC6KgKCIoIEjfne+PVWApligu6n3O4UTmzp15l9nszju3OdrbUMy5kL7DEARBz1xcXLhw4QKTJ09m7ty5BTZZv3TpEj179mTx4sU0aNBA3+EIwntLJOqC8IZZWFgwb948evToQUxMjL7DEYS3Jjg4mIiICBYvXsz69eszJhVSq9WoVCokSaJ79+4EBQXh6OjIzJkz9RxxwdC7QzNGfPrxf66v0WhQqwvmDb0gCK/mWbI+adIkpk+fXuCS9djYWBo2bMiMGTPo2LGjvsMRhPeaSNQFIR/06NGDJk2aMHDgQH2HIghvRXp6OtWrV+fmzZs53vcajUZnuR5XV1fCw8O5cuUK165de9uhvnd2HjpFkz7D9R2GIAhviLOzMxcvXmTSpElMnDhR3+HoKFmyJGPGjKFv3776DkUQ3nsiUReEfCBJEn/88QcXLlxg7ty5+g5HEPLdkydPCAsLw8XFJceMxc9a1LNSqVQcP36cR48evc0w30+yrP0RBOG9UbhwYQICApg7dy6jRo3SdzgkJydTuHBhevfuzdChQ9+pmekF4V0llmcThHxiamrKqlWr8PHxoX379hQrVkzfIQlCvrGyssqzTK1Wo1Qqc2w3NjamVq1a+RnWO2H28o3cjohi5g+f6zsUQRAKkBIlSuDn50ft2rWRZZkpU6boJUFOSUmhSZMmVKpUienTp+f6eS4Iwpun10RdkiTa9FmCUika9oW3T5blfP+yqVOnDiNHjqRt27ZcuHAhX88lCAWVRqMRN3bPka7WkJaeru8wBEEogNzd3Tl58iS1atVCqVQyceJEnaFE+S09PZ2BAweSnJzM0aNH3+q5BeFDp9dE/cCBA8TGxuozBOEDZ21tne/n+Pbbb9m+fTvDhg1jxowZoruY8MHJq0VdeDPKlirGoO6t9R2GIAj5pFSpUpw9e5bKlStjZGTEDz/88FY+U2VZZsyYMfj7+3P27FmRpAvCW6bXRL1u3br6PL0gvBUmJiasW7eOChUq0K9fPypVqqTvkAThrco+mZzwZrkXd8G9uIu+wxAEIR8VK1aMGzdu4OHhgSRJjBo1KsfcH2/a7NmzWbNmDadPn8bU1DRfzyUIQk5ijLogvAWurq789ddfVKtWjejo6OeO5xWE901uk8kJmT7t1op0tVrfYQiCUMDZ2tpy6dIlPD09kWWZ0aNH59tn6/r165k4cSJHjhzByckpX84hCMLziSYOQXhL2rRpQ+3atenfvz9qcVMufEDEGPXns7Iww87a8j/Xj4mL52rI7TcYkSAIBZWtrS2BgYEsWrSI8ePH58s6635+fgwYMIAtW7bg4eHxxo8vCMLLEYm6ILwlCoWCw4cP4+vry44dO/QdjiC8NWKMev46duYig8fO0ncYgiC8JTY2Nly+fJklS5YwbNiwN3rshw8f0rhxYzZs2ED9+vXf6LEFQXg1IlEXhLdIkiSOHDlCjx49CA4O1nc4gvBWiBb151u34xBzV27RdxiCILxDrK2tCQgIYMOGDXz++ZtZ2jE9PR13d3cWL16Mj4+PmPxWEPRMJOqC8JZVqFCBwYMH06tXL9LFkkzCB0C0qD9feEQUwaHh+g5DEIR3TOHChTl58iQ7duxg8ODByLL8n48VHx+Pi4sLI0eOpHv37iJJF4QCQMzuIwh6MHXqVGrXrs1PP/3ETz/9pO9wBCFfaTQaMZlcPlKqlJiaGOs7DEEokKKioujbt+97PTeMk5MTixcvJigoCBMTk/90jJCQEB48eMDevXs5cODAG45QeGbs2LFi1SvhpYk7J0HQA5VKxapVq6hXrx5NmjShQYMG+g5JEPLFsxYe0TqTf1o2rEHLhjX0HYYgvBWpqakYGBi89GfK/fv3OXr0KBMmTMjnyPSrS5cuKBSK//xZK8uy+JzOZ8uWLcPPz08k6sJLE4m6IOhJ2bJlmTx5MgMHDuT8+fOYm5vrOyRBeOM0Go24+XuBUq7OWFma6TsMQXhn+Pr6UqZMGZycnF7q88Xc3JzOnTu/hcgEIW9+fn76DkF4x+g1UY+KiiI1NVWfIQgfOKVSiaOjo94Sic8++4y9e/fSp08fNm/erJcYBCE/iUT9xdo3f73WFbVag0ajwcBAPHsX3n+GhoZUqFCBDRs24OzsTJ06dbC3txefM4IgvHf0+q3u5uZGuiZdfLgKepOYkEhgYCAVK1bUWwwLFy6kRIkS7Ny5k5YtW77S/w/R0dHMnz//tSaQEfSve/fulC5dWt9h5AvRnTL/7Trkx4zlGzi8RizRJnwYHBwcqFevHocOHeL27ds4Ojri4+ODubk5CoWYJ1kQhPeDXhP15ORkTsb4YWRspM8whA9YW482pKSk6DUGe3t7Dh48SIMGDYiPj3+l2bEPHDjAlClT6NKlSz5GKOSn48ePc/v2bZYtW6bvUPKFSNQFQcgPHh4ePHr0iICAACIjI1mxYgWWlpZ069YNY2MxuaIgCO8+vfeTkyRJ3MQJeiNRMN571apVY9iwYZQsWZIbN25gYGDw0nUrV67MxIkT8zE6IT/Nnj2bx48f6zuMfCO6vr/YzKUbuB3xgNljv9R3KILwzpAkibp16/Lw4UPCw7XLGz5+/JjFixfj4OCAj48P1tbWeo5SEAThvxP9gwShAFAoFIwZM4akpCRmzRLdV4X3h0jUX0wjy6g1Gn2HIQjvHKVSSYsWLTAy0u2ZGRUVxerVq9m0aRPR0dF6ik4QBOH16L1FXRAELWNjYwICAnBzc6NZs2ZUqVJF3yEJwmsTXd/zX5UKpahb3pmdO3dmbPPy8sLR0RGAe/fucf78+YwyhUKBj48PoH2Qsnv3bp3j1atXD0tLSwBu3LjBtWvXcq2rVqv5999/deo2b948o0fQxYsXuX37dkaZkZERTZs2zbNuq1atMv59+vRpoqKiMn63sbGhdu3aAKSnp7Nnz5486/r6+pKQkJDxu7Ozc8bnafa6kiTRsmVLQPte3bNnj856225ubpQtWxaAxMREDh06lGfdXbt26cTk4eGBq6urNn4LY5RpjzOu0YuuQfXq1XFwcAAgPDycgICAjLIX1W3QoEHGKiLXr18nODg417q5XYOPPvooY/hVQEBARks1gImJCY0bN86zbtZr4Ofnx8OHDzN+t7Ozo2bNmsDzrwHAoUOHSExMzPjdxcUFT0/P59bt2LEja9eu1YlHlmXu3r1LeHg43bt3JyYmBhsbGwRBEN4VIlEXhAKkcOHCTJs2jS5dunD69GlsbW1z3c/f3x8vL6+3HJ0gvDqRqOe/Ik4OdG7dTGdb1jG6JiYmFClSJOP37NcjaxmgM/TGwsIiz7qSJOWom3UiL2tra52kN/uQnux1s7Kzs8PQ0DDjd1NT0+eeN6tChQphZWWlE8fL1nV2dkaTpXfDswcWoG29fZW/o5lZ5pJ7qWlqDCVVxj4vqpu1hfhVr59KlXlrZ2lp+UrXL2u5jY2NzkSlWa9HbufNyt7eXuc9mHX50RddA0dHR50VgbIm13nVjY2NzfN4sixz7949sQSqIAjvHJGoC0IBM2TIELZv387o0aOZP39+rjPYTpo0iT///FMP0QnCqxFd319scI82Ogntq5IkicqVK+dZbmNjk2dLokKheG5dR0fHjJb5V61btGhRihYtmmuZUql8bl03N7c8y15Ut1y5cv+priRJVKpUKc+6RkZGz637vJieJKchmZnmus+L/o52dnbY2dnlWvaiuk5OTjg5Of2nusWKFaNYsWK5lr3oGpQqVSrPshfVLV++/CvVjYqKytGrALQPd8qXL4+xsTFTp059pblfBEEQCgKRqAtCAbRp0ybc3d1p3LgxXbt2zVEeGBio0yVREAoq0aL+YuZmJq9VP+LBQ4JD71G/uv6WmRQEfUhKSmL79u0620xMTChfvjw1atRApVJx8eJFPUUnCILwekSiLggFkLm5OYsWLaJfv340btwYe3v7jLK4uDhCQ0NFoi68E0SLev7zD7wm1lEXPjgajYa9e/dmzEdgYGBA5cqVqVGjRoFeSz3h+EIG/X4EOdt2SaHE2MSCIiXcadaqDZ7uRbE0fXPLF8vqdCJvXMDWrRqGqv/+mXxj04+M23QNj7ZDGd2t1huLTxCEnESiLggFVNu2benTpw+dOnXC19c3Y/ucOXOQZZnbt2/rjIEUhIJItKi/2NL1u4iIesTYIb30HYogvDOOHDlCWFgYALVq1cLb21vPEb2ctOgbnDhxIkeintWqxXNAZcOkVVvpVTv34QevQp0Yzf96fMTGACXngvywfY27//g7lzhx4gySZ7fXjksQhOcruI8cBUHgl19+ISoqinHjxmVsW7FiBQCXLl3SV1iC8NJEi/qLxT5O4MHDGH2HIQjvjCtXrnDx4kXq1avH4MGD35kkPStlmfac9PfH/+nPmTNnOH3qFAe3raZx2UKQHsPYPj7M+ffma58rKTqMzRfEMnWC8K4RibogFGDGxsasXbuW6dOnc/Om9sv62ZJFgYGB+gxNEF6KSNTzn0qlwtz09ca5C8K7Ij4+Ho1Gw8CBA6lSpUqO2ejfFZLKGHt7+4wfBwcHCjk6UrJSPZZtP8joLt7I6U9YMG4YISn6jlYQBH0QXd8FoYDz9PRk1qxZNGrUiC1btmSMxxOJuvAuEF3f859Pw+r4NKyu7zAE4a0wMzOjQoUK+g4jX0kG5gycMINjZz7iSGgAvyw+wZKhtXX2SYm5zZYNGzh+Nojo2Hg0kgpLW0dqNutAjzb1MHk6Dv3GqZ3sPeaPBkB+wl8rl2Fq5EiXvm2wfNpcF3//KmvX/M3ZyzeJjU9EUhlhX9iVxm0/pn2Dinm26iVF3WDZ4iWcCrqDwsgCz9rN+KRPB6wMlTn21aQnc3jrGv49coZ7D2JI1ciYWdpRrlp9+vTugpNZtjqaJI5uW8c/+05w7+FjJAMTirpXomvfT6jmapXj+CATffUIi1duJigskjTZAOcSZWnfvR8NKua9HKAgFGQiUReEAuLatWts3LgRCwsLLCwssLS0zPhvjRo1sLe3p3v37hn7R0VFER0turIJBZtI1F+sSvlSuBYppO8wBOGdUJAninuTFGbF+Lh9Q47M3kXg7r8gS6IecngVA4dN4dajpBz19u3awvrtg1i7YCR2RhIX965k2rLTT0sTmPHLJFBVo2nvNlgqNJz8expfjlnEo9Tso+aPsmPTOrb1H8/y8b1zJOsJYSfo0f4Hzt+Nz9jme3APK1ZvZMWaxVQtYpm57/2LDOnXn8NXc96zHNq3i9V/bmTtjr/xsH56lvQYfhzYjT8OX8sW0mHWr1jOlzNX8137Khkxyeokdvz2A9/O2kx61v1PHuWfDevo9NVEfh3aHvFNJLxrPoxPO0F4B5QpU4YuXbqwd+9ePvvsMzp37kyLFi2oVasWVapU4dy5c1y/fl2nTnBwsJ6iFYSXI7q+v1iTOlXp0rLhf66fnq4mOSXtDUYkCEJBUNGzMhLw8EEwGSl5eiRffT+FW49Sqdf1G7Yd9OP6jRucO3mAqcO6Y6KSuH5wETtOh2qP0bwv3w/t/7SyOd+NHMPYH/pho4D44H18NXohMbIpnb+awmG/84SEBHPywDa+7dEQQymdw3/N50i0OkdsAbvWEaxxYdxv6wi4fJl9GxZSv5QVj8P8+GTIr5mJvyaRZSMHcfhqNA4erVi+aS+Xr90gKOA0f8wYRRl7Y+LD/Rkx9d/MY68az8rD13DyaMKyzXu5ci2YgJMHGN23ESo5gd+//4bL0alP95YJ3D6HobM2k27kwKBxczjmH8ilcyf47ccvKWqWwsZZo/hpm7hfEt49IlEXhAKkdOnS7Nixg5MnT77UEjPZE3dBKGhEi3r+2334FB/1/17fYQiC8IYVKuSIEkhPTODO02dxiec38CjNAJtKXfjtl2+oVNIJQ5UK28JufPzVFHqUswPg8u27AJSq0Yo+XVprb/glM3r2/YRP+mu7vZ8/cRy1mRml6w1g+rDuFHeyQak0oLBbJb6eNJ/mZcwgNZLTl3MZJG9gx5QlfzGgdU2szMxw9/6IlXsOUtzCgJjzq9ntfweAtAfB7LySgqmlI5u3/k7jaqUxM1JhalWIRp0G8ePwLgBEnjqScejdey+iAXp88T+aVC2NiZEBVoXd+HTCcuq42GBlnkRwaCQAmiehTBy3EJQm/LTlMKMGtMPF3hJzW2da9x3BynmjUWmSWP/TMHI+bhCEgu096voukxz7iCd5TbghgSQpUKpUmFiYYqjKOX6mwJHVxEXHki4rsHSwwSCf73U16nQkhVLcVBcAXl5e+Pn5cfToUXr16sXt27dz3S8kJARbW9u3HJ0gvDzRov5i8QmJqDUarC3N9R2KIAgFiNLAQJuoq9UkPG2gNvUewsnzQ3LZW0adlkIJFyO4CMnJL+5lU7/vT5zr+1OuZampGuztrYBEkhOTAFOdctdmn9LKQ/f+Q1LYMqxFUb7aeJMdvufpWbsYBk6e7D11NtdzaNRpmFo4af+dnpix3dpCu3785jWraF/9OwpZWWJsoL0/XXn0vM4x7gb44f8YLJwq0ad8ziVrS9RqQX3bCRyMucXxJJn6JuL7SHh3vFeJ+o5+LZiwPed4nRwMbfjfPyvp3cIt/8N6Her7fF2xBf7xzqyO2UuVfJzYNDHyGl82HseSwHW8C88wPhT16tUjLCyMI0eO0LBhQ2RZdwxZQkLCG0/Uw/+dwfgNQQAoC3kyZ8pXPHc+aU0Mc4eNICBeBiSmzf4du6dfsm/DrTNbmLRwBzZuLZk+upNuaMmxPEqzxN5CdB7SF1mWP5gxpf/VorU7CLsXybzxQ/UdiiAIBUhqcrJ2zLVSlTHxmw5NCtfOn+Lo8eMcOXyIo+euZ67P/ryF2nM7VHoSF/x8OX7sBL4H9nEuOEI7AR0SyDkPVr22R85uuZJE02Y1UWy8ydVLV4F2uuWyTOStixw5epxjR3w5dOw0j1M0OY7d/7tezD8whtBjf1Lf608UBmY07NiPUaO+xd1aN3UJv6Ndqjb+/imKFy/+nFeYzJFLadT3fjdXCRA+TO9Rop7JvHh5PEpa6myTZQ2JDyO5FBiGnBrD1FYdCZ23gLGf187jKB+OuMtHaVbtc9QWZfQdipCH+vXrk5iYyK5du+jRowcpKdquI89mgH+THoee5+CBY9rveMmPf3p8SveKeafqDy+dYO4/+zMmcElJfbudyx7fD+HAgQM4Piqts33nb8MZPf8A47acplMZkSjqi0aT8yZMEARBeLH7ERGoAQMzc1yy3LHf9VtD/29/5daDONLUup+xduZKHia8/Pfw2X9m8PmEP3gYl4A6az4uGWFuKpPwJPeWeSvz3O8LlIUcMACePH6csS0x+jpf9OzDyZtRpKTpxmZqbkliwmOdbUZle8cZaCEAACAASURBVLBtrQmDhozhWlQSmrQnHFz/OwfXL8DMyoaOw+YwoW9dlEBCTMxLvlIN0Q/F95HwbnkvE/XiHw9nyc81cs7uKMskx0axdsjnzFh3lQ0/zKBDt5p42BTQm3ilE7MDD5MuK7AyyL/TyOlpJKfJ5OMphDfA2NiYjh07cv/+fVasWMHo0aN58uRJvp3P0NCQ1NQn7N68k+4VO+e53+mDW1ArFBhoNOhjOqtCpWrwxRcazJ1rZNmaxsZte4hLesUmBeGNE2PU81/tah4UL1pY32EIgvCGXTiv7TJu51iOZ/3UUm5uoX2/sUQlq7FzrUS7ti2pVaMKzg52OBQqzMExHzFy552XOn7A1hn0HDaPZI1EEY/6dGzdlOqVy+Ngb4+TkyO/fdGUpUfu5do4n5Sa+ze+HB+PGjA31w7lUcfdoH+bdpyKSAIjB9r37kSDujUpUcQRBwdH4i5upOXAn7MdRUHxGp3YddyH8LBbBJ4+zMYNm/G9EMKTuIesHt8XM6sNjGxfFZWRtoW8ULVB7Fw48Lmv19jy7fX2E4Q34b1M1PMkSRjbFKLf8nlsO+BDcNRVjhy8jUen3LrKpHPv2k2i49IoVKI4Tg45x71kpU5O4ObVUJLVKlzLl8LS5MV/2tT4h4Rcu4eRvRMlizvkEq8S60L2zz1GelI8IVfuYFWyJE7WxtlKNcTeu0d4+CNQGeLoVgJ7K6P/tjyFrCE2/DZ37j3G3MkF12K2KF50oLREQoJCMXYqRhFHMfbyTbG2tuabb76ha9eujBo1Kt8mlHOp0wzZbyfnj+0imc5kf3cBkB7Jlk1HcCpeldRb/jzUQ15cuFw9vi9X7+2f+A3y9fWlV69eL71/9iEQ+vCyMSQkJGBgIB4D5ic7G0vsbCxfvKMgCO8MTcptNm8/AUh4teufce+2fNx0opLVlGv9LetnDsXSULex6U6Etsed5oWf0WmsXfUXyRqo88lsVo1thzJb+aMYbUu3nEvPqJshkbkcU+bs8bOkAyXctcNLLx/9h1MRSRhbl+PA8R0UybZeesSJB89esc72qPBwzAq74OpeAVf3CrTp8QVxkTdZPmYgc/bfYv2GfQxvXxV7R+09fOK9Czg45HIvLQjvsA8rUX9KMnLE3s6U4KjHREdGA1kSdTmZzT9PZ+n8bdy+/7S1UmGAe536fPHLaJrWcCJr41B82GVmD/+VHTv8efJsKQqVCZWaNmXo1GHU8ni2Nq6GUz8OZOK6SIZsXcrjFbOZM283cYlqQMKhXGU+nTyK7m0rZB5fHcnI+p9w6Ukhpp1ZTvmn97qjmnblYoQF30zyYe6Qqdy8n4jCwIw2s1cyaXA5pLRY1k+ey9pVewkJi8l8EiqpKFmzDkNmjaeZtyMS8M/or1m0LhANkBobQrsKrZAMPFl5YQp2SkCTzPGVK/jt13VcvBaV8bodSlek+/++ol+f2mR8R8hp/N6iM7vvaBg1fTDzv/6ZgFuxSCoj6vf5jIfHtpMATD6wHk/n7Im7zKW5wxi54DpVRkxn4oBy//HqfjicnZ1p2bJlviXqklVVmta8yGLfc2y9kcrHpXKO64o6f4DDd9L46Ns+nJjtn+exnkTfYvu2XZy7fJ34JA2OxUpRp4kPjb1L69wYyLKavbt2kmJQmBbNvLhz9gD/7D7IrftxmNs6412vKe2aVMdAmfk/YczdKxzxv46xrTst6pVHHXWZnSeu8SA+DWSZc4e2o7pqgncrH5wzPvFkrvsfZM/B44TciUStMse9QmVadeiEm53u63x45xLHzoXg6NEQl9jjLF6/l8caC2o2bUv75t4Yv4EOOVZWVpQvX/71D5SL/GrNfpXjjhgxIl9ieF982astall0yRSE53n2cPDD6KGTxl+Tf+DE3WRMnb35vneljJLAMO29afWGNXMk6aTdZ0dwLADpOl3MM27UMjdp4gi/FwsYUqvFR2Sfniju6i6OX4sHJFLTcraen939D3e+bkNR08wYZDmVOVu1y6A1rVcRgAd3bwFgXqR2jiQddTz7tuzR1tU8W24tjZ7NqnM8OIWZ247TsZKNdrMkYeXkxuD+zZi/fzHJiYnIgFsFb6wliI26xKaQRDq6meo0SKXFBDNk4PfgUo4hv/zMc0byCUKB80Em6ponN4mI1I7ttXO0y9yensSCzp1YuD0MpYUdXi2qU8jakMjga5w/eoBhDU8x8dhO2nnZIwGapEh+6vAZuwMe41ShErU9imJICiGn/Qn8dzufn7vF6gurqeiovfFPirxL6PVw9o4eyoEtV3CuXJWapQsRHXyFs+fP83OXXiTt3smAJs7aDxk5nfshoYTGp5KS5bP1/s3bhIbBhEEXMLB1o3ndwoT4X6RqE3ckNMxu14Ole8IwsnGkuk8THOxMSY59yJWT/tw86cuwBn3ZeHMrZZ2MSE9JJSVJ++EoyxqSE5ORDFO1H+WaVDb97zvGzzyMpDKifN06FC9mRUzYTc76XWLuJ59x9dZUpv3Y6ukbSeZRyG1CQ1MZ3WsC6dZFaNrZm3sBl3Bu1pyKwSv47Wg881ZfZfH/vHQmIZGTHzL7p72ExsDYpi75du2FVyHRtHkTFh/6gw0rdvLxpA459jiwezdppsXp07EcJ2bndox0zu1cxhff/cL9ZN2n+ysWzqFe9xHMHj8Iu4xsN42x339LtGULJlxdw+RZW3Te++tXL2Flh5GsnTYI86fLINw+t5Ovv/4Nxyqf06JeedKu/8N3Xy/J6Ib/1y/D+EuyZVGLp4l66iPm/fA5czacyhhXD8CW9cyc+ivjF66hT+OyPHsWcPP0Zr7+bjlVu/+Py2un8mxhiX/PxtCkmXfuPQ1eUeXKlRk9evQbOJLwLjIxeb130c3b9zgXFEznjxq8oYgEoWAKCwsjNTWVEiVKvPM9deTUBMLCwjKGHcoaDanJiURGhLJj1Tw2HL4KRnZ8PfFnihlnpp7li5qy+04s+zb8w4DGFXG1NQVZTWTIBX4d9ilh8dp7uicJyRl1VCrl0/vKxzxJU2NrogKFFc5OVhARw64Vi+nl+SXWRgpATcgFX374dgKRqQAyCfHxOeJPvX2IEePnM2vspxS2NCI14QF/TvwE//uJmBRtTNva2nmP7J1dAYgL3c2ZW1/iVdwWSYKEqDDW/TaRxUe03fQ16c/GqRtQu6QTx4OvMGfKFCrM+IEyzlaATEpcOBOnbyENqF+vBgaAQTEvvu1QhvGbrzG8fTusVy2hgacrKoXEk+gwFk78H3vOnsf4dhqzRZIuvGM+rERdlomPusfSfl8TGqNBZetBo6auzwoJ3z6dhdvDMHSqyPITS/B0tXhapubU7xMZ+NUGxjT4lFqRG3E0V3Jvzwb+DYilcO0O7Do6KXOMtyaBr6q15GDgJdauOkXFEbrdcvduuUL9ET8za0o7jCRAk8q/475h+BRfZrUcSKuH23Ayf9GliSfNoSkb/GdR2ERBWmoiSkMV6vBtrNkfhmRahHknNlK7dGZ3yLTHd2jp1JKIlDscDbxDWadSdJ6xgKZ9DlK/6lAMbNzZc2sjqqcZSsSe1fw88zAKE1u+XLOSQW1LZhwraN1cPv1kCXsn/0TVZjXpVddOJ7oYRXHW+62hnKMB6qRkkoyMSS02gN/rzMFv2u88+GoZTiaZqfrDGxfxiwHsGlC+sOgmX1BUbdQMZ4M/uH50HWl00J3HID2a3fv8KFr5Yyqb596sfPvYanoNmUKiwhDvlr0Z9/0g3Kxh/8aFTJn7F0fXTuULyZQ1P/fVeZqveXiIn+ZC7U5fMGJIP0pap7Nl8RQmzN/OxS2/sLN3az6umvsDHWWROgz6Qsn2dcsJeyTTpNsnlLEzo4RC+zBq2dBOzNhzCyObogwcOpJ+Heqjib7O0umTWL7nPD9+0gaH7cdoXdFR57jn1k6jcNUOLJkzDoPQfeyNdsVBrJAgFACXr4fy26p/RKIuvNckSaJ48eLs3r2bI0eO0KBBA1xdXTE0fDdn8VYH76Bpgx15lls7ufHNz7/Tr7G7zvbPfhzGqjb/496ptTSquQ1395KkP75PyJ0oMLSie7tqrN96lrBb4aSjvdE3tLDG1QhupiTT0seHwoa2zNu6lh59erAt4HeCds2g2sHllC/rSlz4DW5HJ2Bq60rd6oU5djqIu9euAmV14qjs7cGFTdOpt30RbiWKEHHjKo/TQGXhwtxl0yhqpr0v8KjXAW+nFZy5f48ujapSzL08FlIiwSGhpGJMjboNuHDMl5Sku6QChsDgyT+y63w/Lp/8mxZ1t1CslDtWyhSuXAkhHbB08WZEnybaQCQjuo9bxP6AjhwNCeaTDg2xK1ISRwuJmzdCSE4HAzNHhv++4vkr2AhCAVRAZ1F7PaHrpzOw2QA+yfIzoFFv2ro1oFbh5izbE4ZkYMJn88dR3kr7J5BTY5k8YB0yMHrHvCxJOoCSGoOH07GkEpKvs+uydjzNg7vRyICFXSHdoTUKc74c1p6G3btQp0ohslMV82HSxKdJOoDCkBZjJ1HLBkgPY3dQ9Eu9zmaDu1D4abJrYGiKAkh6bEmX/i1pPWYstUrrjlk0sChMd29ty03ko8Tsh8tGZv2CbaQA1QcM00nSAcp3+4qv+nuDnMCmX1fnqO356WDKOWrTOqWJMeYKsKrYGWsDCWJPczbwfpa9NVxeuwyQaPzLmIyWUkH/lE7VaVfTnsfh19gZqTtTa8zpzZy4k0bN5u1z/yCRU/h95jwSZYka3SezYf5YKhYvhKl1IdoOHMeu1T9io4JTf//GnnvZutWlJlH7s2msnP49FYsXwszamV4jZjKyhvZr9p8joXnGbFC8IcO//46S9kYgGdGy/3d8P2IopQ1Bk+DPrAO3QGHOnD//YeSAVjjZWODsXo1xCzcwr4sbkMaIkfOJV+v2AFCYObBz4yw8itpQpl5XhnaokXsAgvCKFq3dwYS5K/UdhiC8E3x8fDA3N2f37t2sWLGCmzdvkpZL1+yCSmFig4uLS64/bmU9aN6uJ7NW7cL/5AH6NS6bo76Re2e2rppM+aKFMDWQuX3zBlGP0ynt3ZoD/heYMu1HPEu6oAk+RcgT7c2pwqIoKxZ9h521JemPwgl/cJUHD5Ko3GEEa2d/SxF7G4ykZG5cDyZObUyN1p+x33c/v37bh6IuLiTd8s08v2UhXFxcaDTwZ1b88gX2pgpuh4ahNrKiaPkm7Dt+kGalM+dXUlm7s2rnVpp6FMXC3JSo8FuERTzCvnhVZvy5i/UrZ9CxcjEKWRqyJ0obr9K+Olv+3ULHuhWwsTQm6s4tboRGYGZjh3fbLzi4dy1l7TMnhjO0Ls6qPceZ0K8JheysSHoUwa2wexiY2VDG24cN+30ZWP35cz4JQkH0XraoJ4QGcSrv+3jMS3oxf+9cqpawytiWHBXJyccASmoUs8k5UZLClI/7erBpfAD/br5F/xqFKeNVHiPg+vZFNKxwjuEzv6ddi3JIEpTuPYzfeud+/iZjBmGbrceWZGTD0C8qcHLyZXb+fYP+1Z1e+DrLly6a87WVb8iIRQ21v8hyltFIGiLOHuPYLW2XKHX6CyYZkRMJvHgLMKXFgNa57tKmRzOmLDjF7aALOcqq1iuSY5vS1IphLa0YuzWWZSvP4lPdGYUEmqRwls49j2Rsybg+Tv9tsjshn6ho2rE9C44u5ffZ+2g/5aOn22U2bdpDmsqV9h2qguZWjprq+74cPP8Iybw0P43vkqPcxrMbfZsvZ/au66xecZiWo5tlKVXQ3ae27ntBMqBT+xpMOnWYqPtRvDqZa0t/5Ek6FG49kmYVdHuBIKlo9ctGxm2vSszlNQSGjaROyczn75a2lbB9Lx9tCvoWn5DIw5jHL95REAQAunTpwrJly0hOTmbHjh2oVCp8fHxwdXVFkqQCPY7dqvkPHG3+w2sdw7l6N3Yd7ZZHqQdbDh7Ltk2iWMOhnL0wNMfeVdp+zfG2X+d+qFrdOHpM9zzlB/zOsQHPfquEX9fvXxiviZ07S3cczbN8yj9HcmwztC3DzD93vvDYz0gqE/pNWEa/CS9dRRAKvPfytrPs0Nn4RhzhSMQRfO/5svngVFzMACQq9vsfB6+s0EnSAZLiHz5tFFfzUSFPKqo8sv1UpOv4AADu3ggDwMy7A6O+qQNA3PUzjG3dhSpmXtQr0owxo/4kOl5nBGyGKtUsctkq4eRdHgkIC7rxEq9SwiyPNSwBLm1fz2e129PIuT61batTzaQKzWt8yem7uceUQ/o9Yh5pwMABtzK5P88xdi+GgwJS4+JylNmY5NIVTVLS7rf/YaKA6yuWcj1W+xe/d/oM5xPB0s0HW2XB/XL9UFX0booVEL5vXuZGTRx7Tl6kSK1mVLfM/WMk+nIQ0TLYlnCnVB5DCStX1k6Q8+DyuWwlZtjbWuXY39DCAglQp/+HtdrldA4cvgpAkxaVc0ycAyAprHAzNwHSeHhfd0Zbo0JlXv2cgvAWGBiosDR//sokgvA+USqVtGvXLuP39PR0tm/fztKlS7l+/XqBWBlDEAThdb2XLeoqU0tsC9lltMbZObZm4yVXenp04+KKqXR/+JjVf3+JpWFmUqjRPJ0iSrKn13ftMVHlnTAalnnaFUlhQKep86jW/QL/LFjN+j8PkZCaTGxkBFunTeHfxcv5euVi+rQupVPfVJX7wFbF04lRNLksg5FTXk+MkxlRryN7T4bxrOeu0tiMMrXqUL99c1L/nsxyv6QXH15OR6OWQaHMGLOeg0qVa7IDoMhj7TaFcyvcHCdyKeIGhw5do2zHMvj9/TdgQKupQwr0U/APlaGzJz28zFlwPpQD8dDEAmJP/EHgvVS6fdEUlZR9URWt2JhYZMDM3CrP94mVtXY219SkWN0CyQBlLv8Pvt77I527kdpIHe3zfsjlaKj9WNSkJOtsVxqbvsa5BSH/fNSgOh81qK7vMAThrXJ0dKRhw4YcPnw4Y1tycjJ79uzh5MmTeHl5UaFCBT1GKAiC8Hrey0Q9N+bFPFhxYhbNqg4jZPsCRk4ozpzJrXk2HNrA2Fr7DzmZ3qO+ooj1y80SJamMKOFVg2+X1WDob/HcCLzC5eN+/DnrL4LvRfLbyDm0azkPqyyNjvdjU3I5kkz89TBkoHDJYv/tRcoazk78jD0nwpDsSzN2wffUqOaGcxF7DFUKkNNZuvFn7a4vetqstMfcXIIHcURGqqFozr+H+m4kMTIoTV+lJUfJ4C6lGDI3kG1/HWZgEyUb11zC0MGNwS1sRbf3gkhhQqt+XVngv5yfZxyj0YS6rF65mxRlYZo1qZpnNUMjQyQgLS01z31SnibDSlXOxPnNvxcUmJlIgExiat4t8onqp48dVNm7AYh3p5A/alUthzItAT8/v4xtFSpUwMJC2/vqzp073L17N6PM3NwcDw8PQJuYXLigO/yocuXKGBtr5yO5efMmDx48yCiztLTMWAowMTGRwMDAjDJJkvDy8kKp1H7eX7t2jZiYmIxyW1tbSpcuDUBCQgKXLl3KKFMqlXh7e2f8funSJRISEjJ+d3R0pESJEgA8fvyYoKCgjDIDAwOqVauW8fv58+dJScn8nnw2fhcgJiaGa9euZZQZGRlRpUoVQPuQ+8yZMzrfbyVKlMDRUTsxZHR0NDduZPZYMzExwdPTE9C2yPr76y4xWaZMGWxstA8TIyIiCAsLyygzMzOjYkXt8lOpqamcO6fbK8jDwwNzc+3EqLdv38ZcmYphuoyfnx8WFhYZCWRu169KlSoYGWnH34aEhBAVlTnUx8rKinLltMuXPnnyhIsXL2aUSZKEt7c3CoX2huPKlSvEZenxZmdnh7u7dmKy+Ph4Ll++nFGW/foFBgaSmJg5l42TkxPFi2uXso2Li+PKlSsZZdmv39mzZ3XGjBctWpQiRbTD4V50/U6fPq3zt3Bzc8tYGzsqKoqQkJCMMhMTEypVqsSjR4903segfY8dPHiQc+fOZfx/JAiC8K75YBJ1kLCp0JR54+sxeNwRjkwdz9p65ejj4waAmY0DdhI8lBM4e+shRXJMAicTefY4EThRqkIJzI2VXNi5Dd+DARTv8Dnt6tqjMrGgbI3qlK1RnTZdPGhZZij3g0O4kQrVsqy+c3DTNQbXddEdd6BJZsuf2puEhm3+WxdbWZPKyrkBaIBuMybwcUdP3XJ1KseDtDc/6vSsbaC5JCBKW4qXtCcgMopjO6/QbLBHjl3O7z/DExmcXHKOlX+e+iM/x37R59z5dxeb16Rx6TGUatdGjP8twEpWbYcpywlZ+zPxI/9i14UwHGr1x9sp79l2nYoXwwh4dD+cOA06D6ueuXnzJgCWLm75FHlWBlStaMWyWzFcOH8PuUHpnO98OY3riSmAhPnTG3RByG9eHqVJjn3AkydPMrap1ZkPk1JTU3XKVKrMr25ZlomLe0y6WoOxUc5eWSkpKTp1s86QrdFodMqy91hJTk7WKTczM8uz7rPk/pmkpCSd8tTUzAd2arU6z5hA+wAhOTmzR0vWpC/7ebP+nZ7Vzfr609PTdf6dtW7WhF6WZZ2y7HXT0tJ0yp8lw3nVzX79lMhIaGPPev2yv57scWW/fs8S+NzOm/36Za/77MFBbufNGhPkvPZZr1/2utmvX1JSks6DlqzXL/u1z3qtZFkmMTFR5/VnrZv9+j17zVlfV3aJiYkYGhpmPLgSBEF4l3xAiTogKaj1w1wabWjM/ouPmDt0CnVOL8DN1gCVtSOft3dk0pZIfvlsHl4HxuJsmfnlkxx1gy8bD+JqArRfvplJfctwc/8Olsw9jvtNC1rW+Yask5WnJSWRrgGFjTUO2f7KVxf8wukvvKjp/mwMrszd47tZeTYFJGs6V885U/zLepZ/JyWmIJMlBdekE7RlGWfjtDcPKUmZNxGSQvF0fc20LJPPKfFpW5OtJ7ezf/ZM+nZZSEm7LH+PyGvM/30vIFGtbdtXilHhWJcq5RzYd+Emc8evA8mUtiPymhTlwxQTE0NAQAB16tQpEGvFmjq58XEZI/64FsTJvXO5FZVCz/81yVy5IBcm5epS0UHJmbsXWXUigqF1C+uUaxLvsGv/WcAA7+aN3nDE0tP3vkzGPZ+koFGf7qi2zefU2mXcGViXYjrLIMrEBCwnKiENTD0o4Wr9hmMShNwZGRnRpEmTPMvd3Nxwc8v9YZaJiQmpSnNmrNzA4TWzcpSXK1cuowU2O3Nz8+ee91lrc24sLS2fWzdr62x2NjY2z61bp06dPMvs7OzyrKtQKGjUKO/PEicnJ5yccp+o1cDA4LkxFStWjGLFcu/t9qLrV6pUKeLUhzE3Nsmxn6mp6XPrli9fPqMHRHYvun6VK1fOs8zKyuq5datXz3soxYuuX926dfMss7e3z7OuUqmkcePGedYtXLgwhQvrfo/cunWLEydO5NjXyMiIsmXLUr16dW7cuKHz4EcQBOFd8QG2YRrw65ZxOJopSb51komj1pEuA5IhHZfNx8lcweNzm+lW/yt27/HnyoUrnN6xjUE1u3M1AQzsyzGkvXapMp/PuuJoqiB42zL69p7N+VOXuRpwlbP/7mBA85+ITgOvzm0oli1Rl9IjGFyvH+s3nyTo/GX2L/mdrk3GopYU1P95HsXsjHKG/RIkhSHd+5ZEArZ+PYKlqw4TdOEql06eZuGQr/i420LMLLXHfvggMSMpNzY1QQmkPonkyKkgLp+5Topapu5XQ2lSwZq44FN0r9KTHf+e5cqFK5zZsYVeXr3xv5mAnWdzhg2r9YqRKujdrQoSEPcwDtNSnnSrJbqmZWVjY4O/vz81atTg6NGjOi07eqEwp+/QDgB88/1KkiVrmtWo+Pw6BsXp2aUJyE+Y/01//K5HZLznEmPuMX3YFxy7k4xlydoMbub8hgOWMFCpQE4lNjaz+6ZJ1a8pV8gYTeRRhv24iHtPy2RNOncuH6VVl6mkytD48+8oYfEBfjwKenEvMprQ8Psv3lEQhAxxcXHs2bNHZ5uhoSEeHh7079+fBg0aYGIiVs4WBOHd9WG1qD9lUKIZo76qz7Aph/BfOocVXZoxsKkThlZl2R04n451RhB68SgjWmZZSkKSsHYpw/KAdThZaf9sJuWaMnvRIAYPXkbg2iX0Xrskc3+FipLNezF9Vvcc528y5htCFi5gYpeBmbsbGuM14Ht+G1Hlvz89kRTUm/UXNfb5cOpKNHP6f8mcZ0UqI0o178Vf48yoW3cRgXtPkDSuPqYKCaNibrQoa872qwl8Xa8rYM2miCOUKVSEafuW8VXTzzgZFMTIVn10Xp+zd3MW7p6G4394F1X9vA+uP+0jNFGm8kdtENN05TR8+HAuXbpE/fr1KVWqFNu2baN06dI5upi+LU51PkPJOpKTNZhV64any4u7Erb/djInTwSw/sJVujWvha1rWYpbyVy6fI1UNRiYOzN+1iwc3vhLUlLEwRaI4ddPm7HbvTjd5q6li4sRG/6aTIN23+O/4Vdqb/6NMuXLoIm5Q3D4QwDsKnRi+mcNP8SnmIKerNl2kLB7kcwbn3PpJEEQcno2y/uzLvkqlYoyZcrQuHFjMSmtIAjvjfcoUVfQ+R9/Or/k3k0n/UbgpJzbDVzrsT3cj7tnjrB+5V5uR8RjW6I0rT/tQdUyOcesVuwxhOMff4r/5i3s2OnPo3g1RStVpcdXXShik3sioyzagO33+3Jg0RJ2H7yBk2dNBgzvim324b6qIqy4fylH/T9u+uXYlsmUpZd8CT22jzUr9/EwUUXp2nXpMaglFk+v9nn1V9letB0/XzhM/XmL2XPsBuZFSmKhUgNKjBzLsujiEeLDL7Nq9gau34qlUNmK9PymO8UdsqXXkiFjQ84z9jnRZTCvTDUvJ0KPJtL2i1YvU+ODtGzZMk6ePMn169cpX748tra2BAYG4uzs/NZvRoytCtPOQWJzlEzXT9pg8jKnN3Bg6pYj1Jv1HUPn7uBR2FUePS0qWetjXyAqPQAAIABJREFUViz6mWKW+fPg4bux37PnzGDuxj/g7LkoipyIoktXJ4zdO3HylCeDu/Vi7+X7XLuonchJUhrz8ehlTB5QB7FKoCAIQsEkyzLbtm3j0SPtt4mnpycNGjTQc1SCIAhv3nuUqL9ZRbzrM8y7/svtrDTCq0s3vLq8yjhrA5oM+oImg/5TeC9UvG4zRtdt9tL7SwYm+Az7Gp9huZdbuFTgy+lvcJmTJ4GcPXsfu5odaO4u3oZ5USqV7N27Fzc3N9RqNY8ePaJo0aKUK1eODRs25Ms5yw/+k1uDcylQmDDzzC1m5lZk44b/rdDcDygZ0frbeTT/YipPEpPRyGBgZIK5mQmKbA8bJMmY05dDcj8OYNpqLrdazdXZ5tlmOKFthufY16xUCw6du0RCYjKyrMDY3DIzXotSLNp+nMQnCaSkpoNCiYmJGSbGOecD8O40jtBO4/KMSRD0rUndatSokvs4dEF435w4cYLw8HC8vb2pUqWKmChOEIT3lsiQBL3YN3EBYU9kevTtgKFovXwuV1dX9u3blzHJjizLBAUFUalSJVxcXPKcHKlAkSQMjc0wNH6Vpfxen6GxGbZ5nFNSKDGzsOLtRiQIb56psRGmxv9tbhNBeJdERERgaGjIJ598orMKgSDkO1nD/fuPcSxsLRZrFd4akagLb82T8H2M/d8+1HERHN9/HuPSDenTPe9Zad+W5cuXc+DAARQKBZIkoVAoUCgUKJXKjH8/+z1redZtz/Z9Vp697vN+su6b9VhZf1xcXBg2bBgzZ2a2Z6vVasLCwrhz5w59+/blu+++o2LFimJ8niC8Y4b0aY8my5JUgiDkJMsyNjY2OWZ+F4T89vjuBX4cOZZTxYZzdLIYZiG8PSJRf4tMHItQvLQKB0v9L7elFypz9q/fiUYGqxKV+OmvcRQx1/+UXbdv3yYhIQFZlpFlGY1Gk/GT2+/P2yevf79M3Rftk3294Gc0Gg2+vr74+fmxYsUKatV61Vn4BUHQJ2Oj7BOUvJpL12/hezqQL3u1e0MRCULBI0mS6OYu6MWVA8vYdPQiRXrqOxLhQyMS9bdGQY3xy9kxXt9x6I+ZY00OXN3C/XglpT1KYGSg/yQdYMKECXh5eek7jOdKTU2lZ8+ebNy4MUeZsbExHTp0YPjw4djZ2ekhOkEQ9OnW7Qg27DosEnVBEARBeI+IRF14eyQJh1KlcdB3HO8YjUbDvHnzciTpNjY2lCpVCqVSyZQpU/QUnSAIr2vBX9u49+AhE7/tr+9QBEHIgzr1MddD7mJoXYSSjsbcuhqI38kz3H8CZSt7U9O7CrYmSpDTuXU1AL8Tp4hIgLKVq1PDqzJ2ZjlvuRNjI7kRHMzlS0HcexiHysSa8p6elC1TDhcHi8yx0LKaeyHXiUuDku5lUD++T+D5s5y9dAOVdWGqVq2KR/nSmOSyiIomLZnbN29w43oQV0LCSZGVOLmWplKFcpQp5YpRLsucpCVEc/lSIGfPXeSJZEGVmrWoVrEsmqgb3IlNp1AxN+zMdHsCpSZEExR0mbNnAohLU+DuUZlKFT1wdbTOFlASwddDwcyeUkVsuBcShJ/fKUKjkihZyYta1avhZGmkfc03g/A76cetB4mU8PCmdk1vHC0Nco4Rl9VEh9/kcuB5LlwLQ2nhSJWq1ahQrjTWpll7scokRYURGp2EfZHi2Bqlc/1yAKdOnyNObUr5qtXw9KhAIYunr02TQmjwTcLuP9a+xpg7XLlyBVO7YhQvJOZIEPKfSNQFoYDbtWsXw4dnzmpuYWFBnz59+PXXX9m2bRuzZ8/WY3SCILyuJ4nJxD5O0HcYgiA8x5Ook7T0GUTRrrP4OOUPft0aqFNuWqQOZ3z/YOP/OjNhUyBZZ52wcWvA4X9XYGXwLMWUuXZgKT2//Jno5NzmpzBlwsqt9G3grk1K5UTm9m/Fujuwc+sCPu89hNuP03RqFPLsypHNUzHOkninxIUyun93Np2LyPU1ebT+hr9nf42pKrNO4oNAOrf6mKCoJJ19HSp1YoL7Ub7c9ICxfx/ik+olnr4UDRFBB+nccSB3U7KdQGnO4KkrGNHJK3PZ0/Rgerdvi6bGF4ysFMqwebuyvXR39vhu4eaaUXw5azuarGWGRTl8ej/FrTMnz9SkJ3Ng2Rg+nZKzx6F50RqsWLsULxeLjG3X146g3cwzDJm5lPtrxrPR/65uJaMibNy/C6+iVqAOZ3gnH/yffjxH7RpDy13gNWQNG4fXzvVvKghvUsHoeywIQq6Cg4Np06YNoB2fN3r0aGJiYvjtt98wMTHRc3SCIBQEhoYG2FpZvnhHQRBeW8Q//+PXrRdp1HsUR06dY+uiH7CSIPHucdp2bMOETYG0/fJn/C5c5O9Z32KlgJgQXz6ZH8izOSPVd3bSa9BkopNlKvt8xk7fM9y4HsTWP37FzdoQSGTC12O5nZo9idfQvsNgIpQl+GX5Vi4G+vPrV+1RAA8CNjDwr/CMcyCrmTakJ5vORWBi6860P7YSFBzC2aM7GexTCQVwacdspv1zPePospxGq2adCYpKwqxodRZuOsD5k3v5vE1logI38eWmBzn+HrHBh2jaSpukO3h24O/9J7hwxpcxfRuhUiewcHg3ftqec/nWhycWM2zebiq1GMjeo/4c3vw79hKQGMyAbq0YOms7NTt/i69/IHv/nIa9Eki9Q68pB9FkvEaZA0tGaJN0hSEdvp7GiQuX8d2+koZlHUm4c4ruHXoSmuPvCMtGfs7G83F8PGIWZwIvsXPFz1grgJS79PpyHk80MkhmeDVqhldZ7eo6Ri5VadK0KdXcbF7+DSMIr0Ek6oJQQCUlJdGsWTMMDAyYNm0asbGxTJo0CaUyl75tgiB8sFrU92bzgh/1HYYgfBDSUlMZNHcLy34aRDFHWzxbDOSPX7sCEBJ4jeF/HWLW8B44WVtQvcNXLPy5NwA3/lmXcYzV0xYRlQ5eH49l4++jqeDqgMrQFM9GXdh7cj/FrZQQe47Am2k5z2/bkMPHdtKtsScWlvZ0+XYmaya2A2SOzZ7Nswb6tOBtbDh2F4V1GTb77qJrI09MDZTYFa3AyPlbGNHWE4Cg06eeHlnm6oKPCY1LxaJSLw7vW8NH1dywKVya7+ds4p9fu+Ty10hl8aTRPEGi5ud/4PfPLKqXcsbawZWBPy5j77JRGJDO3798S/bGdnVaOh8Nmc3mBWMoXdSe4lVbcnjHNxgAd0PC6DjuD1b/+jWu9paUrtuFHVvGARC+bR2Pns6tm3rHlzEztiOZOLLC9yyzvu2Ks7UZrhUbsHyHLyM7VyUtKpBhP6zNEXlSqimzt/ryy5cdcLA0p0LD7pw6+zdmKkgO/JurkWpQOTFy3hJG9PAGwL7B1yxdupRRHcq98H0iCG+CSNQFoYDq2bMnw4YN4+7du4wYMQJLS0ux9JogvIdaNqxO7w7N9B2GIAgvQ7KnYx0PFBlfxxJOZZ91g7alS+ViOmVFXD0ASE+KQH7aIb7DuEX8u3M7s0d8jCrbnbjSpAiFbMwANUlJ2dNbaP39SJzNsoy7lhQUr+aj/XfcTdLU2nMoXJuyff9etq1fQFmLbKsNSUoqlCkKQGqytl+3nJbAj7+fQwZGjf0MB+PM0bGSQknF1v/DNVs7Qfqdk2w4FomBXSl++64RusPdFZRs1JMOFUxIirjGqqvZHjpIVnTs0CLL65cwK90KYwMASzo1q53leBIWTk//xqn3SXnaQn5izw4i08G9dncaFrXQObxCZUyvfr0xAa6e3ET2Rx42NT/Gp4JdlvHuEoZWVbEyNQSekBCfjCDo27s1Rl1OY4p3G/Y/SM29XJJQqFRY2Nji6lmZfqM/w/ONdE+Rue9/gJXnC/P9pxVyTmLxAbq9/lcGjNhNiTb9WfJ77ywlGvbPnYlLu0GUdbXIs77wfDExMSxZsiTfZnGPvebLxqPBAEimjvTq0Qaj51WQUzi0djUhidpfW3fqiZON6HovCG9Ceffir1U/NS2N1NR0zM3E/5OCkO+My2FjpZuxKpVPJxZTumNspJt5qwyeTbqW2f3aysEZKwdn4P/s3Xd8zPcfwPHX3SWXvYUEsffee+9NrSqlLTrsUlWjtL/q0KpNl92iqD1jlZi1gthbSCKJDNl3yd19f38kQpYZLuH9fDw8HvJdn/f3Lrn7vj8TDPpYbl69zNWrV7l47ix+587hFxgLqHjYj/2hmlXcMjyHWlo+eN5KTD1FY+VA4eIp2xUjYYG3uHz1GpcvXeCsnx+nThxP3pVyvCEhhhNxAFoqe3lkKFdj7US3chqmn324VGzApfPcM4GlPpLvx4zKcA4oXLmvASWWQ/tv8GGZ0o8EXYhCBdM9eagckys5NAVxc0tbuaDSPPhZSX0lz5+7AEDknaOMGpWxfCUxHA0QGxHCzSQo9cgli5QujVWGB3oVNmo1YMSUxZK4QrxKuStRRyH6bighwXocPDxwc0y7nqaimNBF3+fqrQCunPJj30Yfvt22iPa1Mn7gPIuzK2fw/rsLKTRi4Qtd53ViiIsmJDAEp4i41G2KQce3zTqz+lAgfzQfYMbocj8Xl5c7/inMdzPffbsm+ctO7Yx9rda8XSLrtZx1oVcZMf5bolN+rtSoiyTqQuQQO3yOM23RP+xbMcPcoQjx2lPZOWGpzqLJRq3NpOdb5see3bea2b8s4dCpi8QnPZKQq7Ro1EqW59lnsrRtVr3t4kKv8MfsWazZ5kNgRNoJK62t0ibCBoOe5NTUAWurTNIDlYYiXtZw9uFzX0R4OJA8S/y6desyjeGBeyGhwMNEXWVjl2biu7RlWaDWPKnTr4nwiPvJ175yhHVXHnNoop4QE5R6ZJO1bebNE9JxUeQkuSxRf6j1D1P5ul+1TPfdOfovE9+byImr/vz86WyaHPweuxfo5B/pfwt9ZpNyvsHytx/Inwe6Yp3nkUoQk4HTJ4OQlyr3UKvVmEz3+WfJVt7+9q0sj7vuu5loQANIHbMQ2evyjTvE6/RULVfC3KEIkeOFhITg6+tLs2bNsLJ6bF+wl0OlfuGelZe2/sw7w+cSa1ThVrA4VUoUo0jRYpSrUJlGTRsxumtdjt2Ky/R56mnLNsbcZFifnvx79T4WNs5Uql6HQoULU7JMOWrUboDuwEwG/Lz54XVT7kshHoPBRIbRsYpCdEy6Hq0pFRZ5SjTm9x+HPzYe27zpP99ULzz+VpXyajQZNJthLQo85kALSqTv/f+CZQvxKuTaRP1xvGo349d/ImhR/SvuHdvPvpsG2hfPeKuKyUBcVCy6RAMaSyscXRzIqnLviRQT8VHRxOuNWDs4YmebyTqPz8CYpCM6Mg6VlQ2OTrZpPsxMSXqiImNQaW1wdLZ77AedYjISez8GvcGErZMTNlaap4orMT6O2Fg9Wjs77O0yfhFa5ytM1XyFn/W2ADAmJhATFY+i0eLgbI9FVjXTj8YTF0NMgoKLmwNqqe7MNh7lK8Gl01w5sIok3sIys4NMCWxd9Dc2Dl7Yx93hnimzg4QQz2vzniP4B4Uw56th5g5FiBwvX758nDx5kpEjRzJjxgyaNm2KtbX1k0/MMZL4ZuqfxBqh6YApzJ/4drqH8UT0ickjqpVMur4/rcN/zeTfq/exK1CdNVtWUtYl7Tf85u3xacrQWjvgqoIwJYG7kVGUdk879E4x6fA5k3akt7t7XlRAgj6GitWrk3W/vJdBjbu7GxBIbLSR6tWrv9LShXgVXtvJ5GzKNaFYXhUoUdy4GJ1mX1JcFLtmT6N9/rrUyVOfJvkb09C9DjXd2/LbylPok1IykaQAJnfqz6yFvgAErJ3GgBb9+WnFzdRrKSYDQWcOM7ROa2q51adJ/kbUcajOgH6zuRWSeW1oRib2fz+aAa0+4XK8jgvrF9LWsy4NPRvRwLUW3Tt+y93oRBSTgWvef9I6b20aejamgVttenT6noD7GScbUQw6LmxdTa+SjajrXp8mng2p7VCLkaP/JjQqMU1cpvu3Gd2qP4O6f0dSfDQrP/+U+q61aeTZkDpOdXiv9zQCI9Kup3l3+2IGtOjPV98m18aGnvNmQJsh3NGbAIVpA0cwoMVADl81PIiIxKh7rPx8FPUda9HAoxEN3evQqHgPVm05j96Q9pUyXNnJ4Bb9+WG6N75/z6GBcx0a56tLk6pDCUlfoyuem9qtOl3r5SU64BLbQjNvK9cHnmbZ8WgKtRyc9QeGoqCLvU+g/2W2r1/FooWL+WfDDq743yVWl34KF4WI8HvcC7uPUVFIiInkkq8Pfy5Zwpbd/xF0LxKjKbO/HAWDPo6QoDvs37mJpYsWsXzVOnwv3iQyJj6rwIiPjuDSqQMs/3MJG3YfJTgiBpOicD/8HvfCIjFkUlRsVDiXTh1kxdLFrFrvzfWAEBKSMtZQGPRx3Lt3j8iYBBLjIzi+ax3L12zj1t1wDJnegxAvgUolE02KN8qXX35J5cqVadeuHcWLF+fAgQMkJuaSZwNjKIHhMYA9b/fumqHFTB/yLwH3EgAFo/H5a8ZPn78BQOWm3TMk6ZgSOXDycvJ/TcnPaWprBwbXswdg/uYT6b7DFKIDz7A77eM0+StWoZAlxAVeZfXVjN/DiknH3z+PZ96SNfhHZX9/vKrVqwBw5eBK4o0Zv3N1AccYP24ya3f990K9AR88+7xAvYkQz+W1bFEHUOJvEhauABrsnW0fblf0vF+2BWcCkz9QHjzcKIpCYuRt5vZ5F58zv7D8+8ao0XF+/1EuxySfm3DnAsfugNI87sHFOPrrdwwcvjrNtcDIseW/02H1Wqaf2EyrCk9a31Yh9MIpju6LxGdsH+bMu4SScj1FUbiy7W961g5k3scKvT87kFqWoihc3rqcPi1C2XN8JhaqB2EpTO3QjT933Up7j0Ydu2d8y+65C1l1fRPlC6S8LklxnN57lPuOEQwq0YD/QoypD36KksjJVYvofOAw+2+vwTblWgl3b3Bs71Huu9cCQB8dzDGfE6l3dOnYSUBN5xgFUIi9c4bWRfsQlfIhlxyTQvTti0zu3JPlHQexcf3Q1LFBSnQIx/ce5frtu/x9/TamlOMjzl/HUpNpu694Lhqadn2LuT6/M3fmbjp/3zrDEacPbyNa7cT/RrZiyoZxGfYrisLFbdPpMGQOmT1SaF1L8feu7VR3ezD5ThL92jfkvKEWq+e0YUCf8USnO7HR0F9Y/FlbNKm/EAqxgUdo2Kg3kZkVYmHP6KX/MrR+3kcD4/LOeXT++GfSz936ydwN+E19myORZdl9cgPFU36lFJOJs/98Sc9xK9ClK8fGvTI+RzbgrlGl/p7e2beYZh//TOWOIzD9Owu/B0P3VHnY8N9/VMn32n7EihykY/O6dGxe19xhCPFKrVy5kgsXLnDu3DkaNWqEjY0Nhw8fplKlSqjVObgdSuOCtVYNxHLq9EVaF6uY+kyHEsfbHUYSngSgoNc//8zjLo7JSfeNC8cxKL2weOR5d/f0QfxzPACAJF1KQ4zKkv4LljK9YjcOzfmYb/P9zaTedVCpFGLvnqFji94ZGp80eWrwQZeyfP3PRSZ370L7UztwVj18Rj295mfGzV0Blruo1K07z9cPM2s1O/ag7OQ/ueh/lLc+XYb37HeB5O9oxaRn6oTPWeHjz+4zAXRrWee5y9FYJfcViI+LT87WpWJUvCI5+JPsxfwx8EfuJILGowKtaj3ouq1wcmJf/ALjsS7dgo2BR/HVneFMoh8nov5j8cyWqICz06dw674JLIrw+7UD/DS+IQDFPpqJT/ABZg0vA0Dkf2sYOWo1aJ34dNNGjsb4ckbvx/HII3w/qiGqpDC+7P4F9562Gs+oZ/a8S/RZvJSjMb6c1p/G59RM3FQQeeUAfT8/woDV6zkWd4oz+tMcODMdTy2EnznKpmuG1Msc+99HLNt1C6w9+OGgN8fjTnNad4ojwbtpW9oWku7yQdtvCTekLV53/yr/3XPgN7/dnIxPPmf/hfkUswdd0BX+t/xelj0E8td4G5873pTQJv9KTffZzP5gH1pXtEDRhTKhcX+iFLCr0pNdwcmvu2/sCTbv+QZXC7ix5Q+Gz76Y4fqB129T+f0xya9H/DFWHP4dZxv5gMxOFWo0xwUI3Dk7k716vP/ZiINXadrnyfx1v3FoKZ2HzsGksqBx39Gs2rKTvbu3MXXsANxtVCRGXGHYwDEZzlNi/RjY/0s0XtWZOn8lu73X8nGbkqiA/XOHsfro7dRjE0Iu0qxZHyJN4FW7G78v28C+fXtYPPMrKue3A0MsswZ1T5OQhx5ZRPch09ABJRu9y8rN3vyzYArFnbX8NqwnR++k74micH31ULqOXYHOpKZFn1Gs2erN6kUzaFzalYR7Z6hfpSmhCRnXtT2z7RcumPLx3cI1rJg1hgrdPqVCXknShRDiZVGpVGzbtg0bm+SJTRMSEqhatSqenp7s3r3bzNE9jg3d6yavw/3HFz1p1uFtPh05gl4dmlGpXBVO30uioJM9oBAaGvbcpXTp2xUnNQT7rqda7UYMHPIpQz/sQ50alfl43h4KFy2ACoiKCnlYyW5Tnb8mdcISWPJlb8pXrESVSpWp3rArd0yWFEkZYfBwEKWa3mNnUN1VjT7qCjXLV6Jtz/cYMfQTWjeqTY+xCwAVDd//mgYvYSEgtWMFps8egxq4vHkSlarX4b2Ph/LJBz2pXbUqC338UVl78vWc6S9Ujn3+5CqG+1s+4+PhIxmz4IjMxyReiVybqJ9fs4oZ42ak+Tft8x8Z9/ZgupRszLw1FwELek/+jALalA8Uk5FbCcUoXSIvn88dSXEPeywtNKjVaqztHaj6wQRsLFVgCCIm2gAqC5zyuGJvn1yTprF1wNXdFUe75Afwv6avIMYALcf/wMD2JbC10aLWqLF2cKTTjzPp3rgA8VcPseDva099X+riXRnWuzp2tlZoNBa4VWxMt2YugIJ95V4M61oSW2stao0FLhVa0KapJ5hiOHs8IuUKSfz4uy8mYOjSuXSo64W1lQUaC0sc3D35yXcrRVytiD+/ma27b6YrXUOPdWupX84TK23yOa6l6zJkWF3AxIlt/5HVJ5NGa4NrHheSJ+lU4eDigqu7K1aWKm767GCPvx6tY1G2H/oST/fk193S2oaiTboyb+knoBg5/O1YEtN3XbLwYOB3fbCz0WJhZUelmoV5iiHt4hlY5q9E79qOxEfe4t+YtPv0Nw+wwTeaUvV7ZT5+HQPr5/9KkqKi3pDFLJ08lNoVSlG0RDl6fDKRTQu+RguE3PYjIf2puvu41nqPPd6r6NGyDiXKVGfsr94MqZ0XMLJx7+nUQ896/0JoooJV6b54L59K6wZVKFKkOE27fMDqTSsobQVJMWHsiX8Y1/dTfyfGoNBy0Cy2Lv2WOhXLULNFL3YeOkiLEo6k71Gou3+LruO3YVAs+GnlHn7/djg1ypehVrO3WLRpH192KEJS7C0GzjyYoeeAotgwad0O+jSvQb3Og1n7/TupPVyEeJIR73dl2vhPzB2GELmOl5cXmzdvTrMtNDSUli1bUqZMmSfORG4eKvpPXcLwztVRGXTcPH+MDes3cvT8LVwrdmD9niNMHZjcQ8Zn377nLsW+XDf+/GU8nrYqokPvsHvrBrbsOsQ9nQOjp69gy5q5lLJTEXLRlxNRD7/Vqvabyc5183mrcRUsTTr0aKnTsT8bdu6mQsqDgI3Fw+XptG5l+GvXboZ2rI4hIYZLx/ezcYs3V+6EonYoyGfTljN/bPuXNHmbirItP2L3ml+p7mVHTEQI+3duwXvvMUKj4vGq0oblmzfQrrjdC5VStGo32pewB2M8OzdvYMOWf9FJpi5egVzb5HNx6xYubs16v1PR8gz+aTw936rycKPagu7TptB9WsbjTYYkrh87wYM80WR6wrggYygn/rsOKnc6DGyQcb/amiYtKvGPTyBntvnAu083m2/5vu9i++gTvsoSDy9XIJKS3bs+7AoMgAZXN0cgGH18Slti3FHuRujAviKt2pbO8MGoss5Lv+b5+eafmxzwOU+/NkUf7rS0pl8L93Q9elS4ly4CHMEYGUnWC4Zk7fLefwHw7DQYFytNur0qyrdpQ3HL37geHcR5nYlqdg+P0XiVoJq0TL5cKmvavdeTeUcX8N30wzT5ql5qDd7BnduJVJzo3r8dkPk48F4T5lOjXxgl6mf8O8hXoQL51eCflESsCWzSVQ12e6cPrjYP31+VSs27XWsw7+g2goNCU7eXbv0pfxfrCoXqYmuR9iJWriWoUUTN5ctGwmNMYKvGGLKHw+dCUbtVZ+ywjmgf+aXV2OXlx//1pUHvGWla4EOOLCDaBE71RtOpVtE0E0tqrBzpOW4K327pxdmlPxP8aRPy2z48wNqjCD3LOj+MSZv+9/zxrl27xrJlyx57zJPGIL/oGOWXff3suEZOiDGz/RfPnECtVrF2rf1LK+NxAoLvcenGHVrUq/Zc5z9P+a/De/mi5z/L9a9fOoeNtSXbt7s+0/k56R5exvlPc42n2f/++++zZMmSNNsvX75Mt27dKFas2JOf6Z6CY4HW3Lx1K9N9+cq25FYW+/LX6MKtW13SbNPY5GHUrH94d/QNbt8Nw6S2ws3Di2IF3JLvd9h8bj06t6TagSkHbjAli9hcS9TLpHw1ldt8xL4G3bh67RYxCQZsHV0oWaoEtilLvO04n77BJvm8otVaMmNpyzRbFUMMoSlfmh52aZdntXUrxujZ/zBw/G1uBoaiSzJh6+RG0WJFcLROV82vrcR/lzJ/rVQW+ThzJfN9tm7FM3+NVRYUq9GWf/Y15/b1q4RGRGNSW+KWryBFvDxIu5qdisrD/+FWFhPUq9Qadp+6lGG7pX0BZm/7j8HnLxKtM2Dv5pVF44UQ2SvXZkB1PhlMt4bJSaYxSc/Noz4s/nUXiVjR7bsfGPtZS2wyWWsSAJMO3+3/cvTwOW5e8SfgZgCDSZfsAAAgAElEQVT+V/yJisvYpTUrpvjrBIcYQbnHiIKVHnvs/aA7T3lVFYXKeGRIhJPHWqlw83DPcEb6dSaTLviiM4BlmcoUsM38/ms3LgH/3CTwWlDa0i0syJNJM6Bam/xxpDzXF52R2xf9ARUVWtfNNMtXO3pQpZiG65eTOB1kpFrJh0mOratLhuROJDOZTPj5+WXLtYpW7YQdC7i+4ltixm7ByUoNpgS8vffiULwanYtbgy6zRN2CgqUqUTBlcVJDQhT+t/y5fec2169e4tSxgwSZAJRMxq9bU6xYoXTbVDjnyYMaSNI/nBjIybMEdT1TKruMOgJv++N/+w43b1zj7Onj7LqVfHVjyjCTkCM+3EuCghVrUDSTvwO3Wp0o5DiTh8uumjjhndxV0p7b/DIzYzc5kz4meeka/UUiIxPIb/tw7gtHZ09eZM7h69evs3z58uc+/0VmBs4J5+f2GK77B6FSqQjzv/BSy89qf3hkFLfv3uP88QMvXMbTMPd7lRvvwT8wBI1GzdVTh7Kl/Oy4hrnPz84Y4uOzmlAUbty4gbW1NSdOnKB69eo5aOJFNXm9SpDX6+Uuy2hl70aFKm5PPlBJZHrnWmxNKsKIqb/SqYJnmt26iJucTgJwxsPNKeP5KjXOnkWo6lkkW+J+VmqNliKlyvOyStdo7SlfteZLuroQmcu1iXrB2nVp2+uRddT7dqZtq9/p1W0uayeMwdljIcPeq5Gh+6kh7Aqj233C7pMhqdssbR3wLFqKGhVLc+Cf9SQ+xZhyJTaWRBNgaU/F2qXTtNil51reM+udaaiwesz4a5VK9cTWbCUqBhNg5WCXZddbe0dbVEBSYtqKCRVPvv7zSIjXA2ocnW0zv77KEjt7AAVdQtp0Ln1FhEh27NgxPv/8c/bv30+dOs8/QcoDtvmK0ausNQsvXuDUvViaFHREd2s3e89EUKVvW2xVWY56AJOeM/s2M/fXP/j3+JU0M6uqLR+zTKHKCmurTN7fTMc2mAi5eIQ5c+axac9RovWPlKLSoE13mcCAuyiAk4tL5uN7LPLjYK+G2JSflSRu3koeCxh4eAWzD2cVdHIsiXo98DBRt9C+WLe61q1bs3Dhwhe6hjCfidMXo1Gr+frT957r/Hl/bSQoNIzvPhvwXOdv3n2YaYv+Yd+KGc91vnj5xk1dgL2dDRMG9zF3KK+d2NhYWrVqlem+kiVL0qFDB/7++29q1KjxiiPLZVSWtOtQijnfH+PrL77HbcpIqpT0Qqvo8b96mrkThpEIFG43ksJu0p4sxKuQaxP1jNSU6Pgxv393gQHj/2XhgI9wy/sPfdsVT00UFKOeb5r0ZvfFBJyKlKXn4Hdo2bEBpUvlQwMY4+9Tf92G5ET9CZW8GgcHrDSA1oMvvZdSPodMcKb2yIMG0IWGo1PALpOwQoLCUQB755cws0cGKhxd7IEoQgPuo5AvY+Jmiic0JHmGfnd3ScyzoigKgYGBTJo0iSVLlqAoClZWGde4fy5qe/oN78bCQcuZteIsjcbU59+1mwhT7Gjdtd1jTjRxYNk39J20HFDh5lkIj7x58Cpaipp1G9Kmvgt9G/cms851wFOPowj220rTTsNIAOxc8lKquAceBQtTpXodWrdpxMpPmvDXxYfHa1N6gej1iZkP11ASMaabD+HBTy0/n0W/Sq7pz0ijuEfaLs4vp4pLvCkSdHqiY7NuERRCZM5oNDJ+/HiOHDmSZnuxYsUYPXo0H3/8MefPn+fvv/82U4S5iYoyHy2i0bpm7D+/mT4dN2fY716iPiun9sZavvKEeCVeo0QdUKmpPmYOnTc0Z+3RYH7qM5qKF1dS1SM5mUmKC2Pr1QTAgmnbFlOndNpE1ZAYSaLRBKgwPak7lm1pPD01BN7x5+CB+5Rv5ZLhEH1MDHqjGht7aywtnm3M6vOyKFUPG+1soi4e40aEgYpuGd/i3duuA1C0bP5XEJGaopVLwdpATq/bhvLh+xm6nSUF3+Z4oAm0Wmq6vJrXKbeJi4tj0aJFDB+edmCV7SPdr19UvjoDsWA5p5bM5t7wmmzaewLrYvXpVDHrcbfG6HN8+/1yUFnSYdwy5n5UO+3+4IPEmwCF51/D1BTH/IljSADy1h/G/qWjsH60u4gpnPsxyX+vppRCSlQoiyU7uet/E71ChocKJfY0oREmeDDMTmVB0cKucOYeIQkFaNCwhqTeItdwcrCnTPH0w0iEeP3Nnz+fOXPmpP7s7u7Ozz//TN++fXNQF/fcxJ6l3v+xdcF3zFnmTXisDhNqbB3z0umDkXzet4W5AxTijfJaNl/+b++vFHbSQPQVvvpkHsaUpNtkiCR5mLUW+3QTYSiKgePffpbS7V3B+MiU0OqUWaVMyiPdstUu1G9QFkhi7bfTMaRL7BXFyLRuPajnVot+/ZZm/01mRVuRonntwXSbVcsOpx3/pSgouiv8czwYUNO0ceXsLVulSpmAS8H0SJeEci3aAhBx4A8CdUbShqRwZOWfhCtg41wKr/R9mN9wJpOJPXv24OTklCFJh+xN1K2dPHgrrxrij3L2yDKOX4ykbsvWOD7mLYm5cp6rOrDMU5xp6ZJ0gJtnThGsAIqJ9BP6Py1T/B32n00AtR1TFn6WNkkHEoOucSAguTYg0ZBciF3t7pR0URF7fg9bL6efb17h8IIFBKYZ+aGhVsfkNeT9Fk0lNJPpXPXRIYydPIO9x6+QZJLpXkXO0ah2JX6bPNLcYQjxSp04cYJBgwYByd+F69evJyQkhH79+kmS/kLUtB84Ee99hzh+4iQnTxznwL9bJUkXwgxez6zIqhQ/TXkLNXBjy1J+WJw8g6PWtiCOlmognkmjfiUiZTx04v0gZvbqw+AZl1MuoKB/ZCIrS6fklvewI4fTtLT3/foTPLQQdGg9HRp+QWBMSiKvD+OnLj1ZuecOWOblg8m9X/YdpzHj155YARs+/5RR49aRfJsm7v63iRYePYhMUCjQZTitauXJ3oLVapxSvhwv+oenbs5boxlD2+RB0UXTMX9bth8PSk7jDXGsGj2cEWN3gNqaD1bOQS1frqkuXbpE+fLladmyJUZj5u3RD9aPzRZqa8Z92Q418MXoaYQrFrRp2fyxp1jb22MJJN2/x/7QtPMLJIb4MmriXAAUo5HY58xtVVobXLSAScf6HXfTjkpJiuC70aO4n1wKsdEpezUFeb9TfSCaSf3f4WRwyprpisK1HdMZ/EvGSbc8an2EHUD8UT6dtpHER3ca41nyWXdWLpzFBx/9SLTh+e5FiMz0bN+E4e+9Ze4whMg1YmNjadeuHc7Ozqxfv56wsDC6dOkiCboQ4rXyenV9f0T5geN4d6Mvf3rfYN248XTtvpZyDk4sWtSLnn1XcGXtbzTbsgQbGwt0sXEkGTXUHjwOzx0z2HBdxzn/ezSsmNyd3at8TVSsJ+rYYurlWYNrx3FsXdIZ6xJN+H3jlwzo8i0BR7bS2nUH9o42JMbGJrfsWTgybNlcWhZ/kfmgn517u0+ZPjWSUWPWs2vqJPbO+QEbS4iJSW5ZLND8XRYvfg8rTfZ+oanUWrp0dOfIqmBmdunJAjtLPlq2jv7tC9J/+XICWvdiw4kgxtRtyVeO9pCoI0FnAAs7+syZw6DGztLdGIiOjqZPnz7s3LmTxMTExx7r4eGBwZBdWaMK1/bjcRqzjfDwODRerWlWOZOZXR9hVaIR3ao6s+JUOINb1KNhkyYUd7fm5sUznDx9niicye90j6CYBG7Gmijr/Ox1gyrLgnwwoB7H5h1m88jmBK5tTJVS+Ym4c5WTJ09xJzyJooVduekfyeWr0SiVXVGhotvYafx3rgvrTp6mR8MqeHi4ozbEExQchmXegtjeCyBBpU6trdQ6FmT7ouG0GDibI/NH0eTfhdSuVQ17431OHvuPC7dCAAtmLZ+C6+NmjxTiGRXKn/eFzk9MTEKnT8TR4cUmNRQit+jVqxe//PILbdq0wd7+6ZZFFEKI3CaXJeoW9Jj1DXV1JgrXLfz4Q9XWDP1jGmX3XkIBYm6GQ2V3iveawN8F6rBu8RbOXghEbedEqVq1aPlWC+rUKkLYyYLUuhiNc96HXYo9a7dhyd/RLJ6/k9D7ibg7GUhSwEqlonird9h4uQZ7/tnOvzt9CQ2Pw8bVnSpNG9K6e0vKlXiaVmsVNT75gu/b6ChUJWNSX7P/CL5vHEP+uhm7OTf4cCguLaLxqv3o0hsaGo+azIZmndmxajtHjlwiVq/Cs0xZWr/djqbNq2D9yNJ1Kof8fLH4BxI0WrSZJO+Farfn+6VlsfIol5pIuzfqyndLa+JYqPQjt6Gh3eLVRBSdw+69F0lS22CnTl50U+tckG8O7qTjtp1sW72bq9dCUds7U7FxA9r2aEWlsh5pylQXrcfXS39A7eb1mnb7yCgxMZHx48ezYMEC7O3tqVy5Mvnz50/9FxISwty5c9OcU7hwYa5fv559QWjy06iAAxuvR9HorY6ZLtf3KJWFE1/MXkTYoCHsPHeXfzet5F8A1FRq0Zv5E4Zz4bf+TFp1nmWLj9NuZMbu8U+k0tBi8CyGB3zC7I0n8d2/Hd/9ybs8yjRg5qyJlIxeT/tBv3Hgj9nou36FtVqFxiYfPyxeR+1l81mycgtXAgKwc81PpwET+HRgcfo07E+CVvtwxQaVGq+mI1m30INxX07h7PWzrL9+NjUMt+K1+d+PP9KurLtUKIkcZcf+4zLru3hjREdHs2rVKuzsnr5iKj4+nrNnzz75QCFeonPnzlG79nM8B4k3lkrJYhHLwyfPMf7nRez7O+N6wtlFq9Xy3/2jWFln08zVQjyjTuU7suqvVTli2Zbo6GgSExNxdXVFrU5bPREeHk7p0qVZvHgxXbt2TW1FHzduHHv37mXlypXmCDmVyZjI1bO+XA8Mx9LGnqKlK1G8gEv2JrSKieDr5zh3LQCD2gqPwiUoX6owls9RiClsG7VqDiaqeFv8dv1KhkUbjDounz3DrbthGFVaPAoVp1K5Yi+lZnPmzJlER0fL8my52Isuz3bC7zKx8Qk0qVPluc6X5dlyPlmezXwCAwNp27btE3uove4SEhIICAigZMmS5g7ljTZ79uwslxMUL8ZgNFK8SV/+XfYzxQu/igmzX75c1qIuxOvL0dEx0+0mk4kJEyZQtWpVOnTogJubGyEhIUByi3pOoNZoKV2lDqWfL894Oio1HiUq4VGi0pOPNVyjR5sBWJVqxU+zJpA/3ZKv57fsIkKBYiVLYZVZoq+xpnSV2i/3foRIse/oGfyDQp47URdCZK1AgQL4+fmZOwyzO3HiBO3atePSpUvmDkUI8ZTelF7FQuRaO3bsYN26dWzbtg2VSkXr1smzk7u4uODs7Gzm6HIoi8K4WEZxcNtCfpi7ieCIaIxGE7q4KK74bmfw9C2YsKBd+5byIShyPZVahYVGlrYUQgghXifSoi5EDhYdHc17773H7NmzsbRMbhb++uuv+euvvyhVqpSZo8vJLBn76QCODpvJ5lnD2Twr/X4N1d/5kqEdKpgjOCGyVYdmdenQrK65wxBCCCFENpLGJCFyKEVRGDlyJHXr1qVXr16p24sWLYqXl5ck6k9QrPUwjh7cQo8GpVGrVKhUKlQqNY6FqjJv0wHW/vABWnMHKQSACllWSgghhBBpSIu6EDnUhg0b2LJlC9euXcuwr1q1ajIhzFOwzluWqX95831SIgaDEZXGAq3WErUkRSIHGflBdxQynddVCCGEEG8oaVEXIgdKTExk2LBhzJ49GwcHhwz7hw4dStGiRc0QWS6kUmGptcLG1hZrK60k6SLH0WjULzTGfP8xPz6ZODMbIxJCCCGEuUmLuhA5UJ8+fWjWrBk9evTIdH/Tpk25cOEC58+fJyQkhP3797/iCEV2uXr1Kvny5TN3GCIXi4qO5dJ1f3OHIYQQQohsJIm6EDmMt7c3+/fv5/Tp0xnWU39ArVZTvnx59Ho9+fLlY968ea84SpGdunfvbu4QhBnN+XM9AcFh/DjmQ3OHIoQQQogcQhJ1IXKQpKQkevfuzfLly/H09HzssSqViurVq3PkyJFXFJ0Q4mXQ65OIT9CZOwwhhBBC5CAyRl2IHMJoNNK9e3caN25MmzZtzB2OECKX8MjrRuNalc0dhhBCCCGykdlb1M8e9cPSytLcYYg3VPT9aHOHkOr48ePs2LGDkJAQWapJCPHUalYqTc1Kpc0dhhBCCCGykVkT9bp16zKuzzhzhiDecE52TpQpU8bcYRAeHk69evU4c+YMTk5O5g5HCPEK9e/RhiSDwdxhCCGEECIHMWui7uPjY87ihcgxhg4dSsuWLalQoYK5QxFCvGKuzo4vdL4+MZF4nR4Xx4xLOQohhBAid5Ix6kKY2ebNm/Hx8WHDhg3S5V0I8cx27j/BW59MMncYQgghhMhGZh+jLsSbLDg4mA8//JCFCxdiY2Nj7nCEEGaw98hpQsIjadu4Vuo2Jwc7ABRFITo2Ps3x9rbWaDQaAHT6ROJ0+lcXrBBCCCFeCUnUhTCjzz77jObNm9O+fXtzhyKEMJOT567w4x8rsbJMnlhVrVFx+8BKAEwmhfKt+6c53nvJFCqUKgrAn+t28s2cv2jXtParDVoIIYQQL5Uk6kKYyerVqzlw4AB+fn7mDkUIYWa9OjRlzlfDMmzXaNQEHF6V5XkfvdOBj97p8DJDE0IIIYQZSKIuhBncv3+fUaNGMXfuXJydnc0djhBCCCGEECIHkcnkhDCD3r1706ZNG7p06WLuUIQQZuZgb4Ork8zYLoQQQoiHpEVdiFds586d7N27l5CQEHOHIoTIAT5+p6O5QxBCCCFEDiMt6kK8Ym+//Tbe3t44Or7Y2slCCCGEEEKI15Mk6kK8IiaTiUaNGtG1a1caNGhg7nCEEEIIIYQQOZRZu77Hx8eTlJRkzhDEG06j0WBvb/9Kytq5cyfHjh1jy5YtqWsgCyHErCXrCAi+x9SxH5s7FCGEEELkEGZN1AsUKEB8TBwWaklahHnoTUmcPXuWsmXLvtRyQkJC6NmzJz4+PtLlXQiRRlKSAZ0+0dxhCCGEECIHMWuiHhcXx42vt2FloTVnGOINVn96X+Li4l5qGUajkWHDhtGmTRtq1ar1UssSQgghhBBC5H4y67sQL9m6des4cuQIt2/fRqVSmTscIYQQQgghRA4niboQL9G9e/cYOHAga9eulSRdCJGpgW+3w2AwmjsMIYQQQuQgkqgL8ZIoisLgwYPp2LEjLVq0MHc4Qogcytnx1UxoKYQQQojcQxJ1IV6SJUuWcPz4cS5dumTuUIQQQgghhBC5iKyjLsRLEB0dzZgxY/jtt9+wtrY2dzhCiBxs0+7DLFnrbe4whBBCCJGDSKIuxEvQs2dPevXqRZs2bcwdihAih7tyM4CT566aOwwhhBBC5CDS9V2IbLZixQouXrzI8uXLzR2KEEIIIYQQIheSRD2bhATv5e1Vf2W6z0KjJa+zFw1K1aNr5YZ4WKV92S9eWc2g7d445e/G+u7tUeeQycFPnJzP6INHKF+6F/PatDJ3OLlCfHw8gwYNYsuWLbi5uZk7HCGEEEIIIUQuJIl6NkkyRHMh+DqgwtnG8ZFkWyHJmMjZwIvsPr+TyTvKsnvEDMo72qSem6AP50LwddxsIs0Repbi40K5EHwdW48oc4eSKxiNRlq0aEHPnj1p2LChucMRQuQS+fO5odbkkBpaIUSu5u/vT6FChZ5pSdjY2FisrKywtLR8iZEJIZ6VJOrZTVWQg2P/Iq827QdkVMRZ3l8whkORF+m8YhlnPhqIXU5pOhfZYvfu3fj5+bFz505zhyKEyEV6d2pu7hCEEK+JzZs34+npSZcuXdBoNE883t/fn6FDh7J58+ZXEJ0Q4lnIZHKviJNrRf4eOhetCqL9l3MmIuHpT1YUTIop9Z+iPOs5T3HCsx4v0rh79y7t2rXj0qVL2NvLmshCCCGEePWGDh3KyJEjGTlyJEajMcvjFEXBx8eHIkWKMHz48FcYoRDiaUmL+itkpc2Hi1pNiNFEWEIsYPvEc/RxAUzZNI3V166RpCioVRbUKt+N6R16k0ebeU1pbPgpRq6dw6GQexgUBa3WiY51+vNDk8xbbUxJUfy27Sfm+vlhUBSsbQsxtfe32GR6tMhMv3796NmzJwUKFDB3KEIIIYR4g40YMYLRo0dz+PBhDhw4gI1Nxie6SZMmMWXKFGrXrk2LFi3MEKUQ4kkkUX+FjKYkYhUFsCSfrcMTjz/pu4j3Nq0gVJ+UZrv38QXsP7+dGe/N4K1C+R7uUAys2TKWz/47QYLpkVbxhBgW7pjMxhMb8B4+i0Lahx0pYiNO0/2PCfhGxT5y/Hn6zXuXRl4ez3urb5QVK1Zw9epVtm7d+kxjwoQQAmDGojXcuXuP6RMGmTsUIcRrYPjw4fzyyy+cPHmSEiVKsGXLljT727dvz/bt21EUhQkTJsizixA5lHR9f0VMhniWbptEvEmhWIWPqehi/djj40L+5cONfxGqN9Gq/nAOjdlAwOTdnP5sAcPKFiUhPpARy//HmVhDyhkKdy4vYdjh4ySYLBnR+VtOTdjKnW+2c2jwVDp4OhAW7kezX34g2pCSxJt0/LR+Cr5RseQv2IIdI1cnlzFqPv2KuuLjf/3lviivgVu3bjFixAiWLVuGVqs1dzhCiFzIaDSRZDA8+UAhhHgKlpaWDBkyBICgoCAaNGjA0qVLMZlMlCtXjm3btqEoCvXq1aN9+/ZmjlYIkRVpUc9uShhDlo/DKnWiOIXEpHj8713nZnQclcp2489uXbB9wkRyv+1aRkCiiSqVBrCofTcezE2XP09JJvadx+05fdl49zzzjh7mj+aNUAxRfLHmL4xAz87TGFu7Eg8mES7pVYu5H0zHb8pAbofsZGPwx/QtmIfooD0sv3YXrX0JVvafQBmb5Hqb/O6l+KnfVK7P6s/BiPiX8zq9JoYNG0b37t1p0KCBuUMRQgghhABgyJAhzJkzh1u3bhEfH8/cuXMBCA8PTz3miy++QK2WNjshcir568x2CfhcOcLOS4dT/h1h3/Uz3IxO7loeHR3IsaBgjI+dry2RPYEBgCW96nREmz6nV9nxWd26qIDD144CEBsTxJ44AGtGVypL+pV+bB2K811NLwAW+F4G4Mil48QAZYo0Sk3SU4vQetKrXKXnuP83xx9//MGVK1eYPn26uUMRQgghhEhlZWXFqFGjstxfq1YtOnbs+AojEkI8K2lRz24qL859/cjybIqJeF0M14LPs+LQcpac/4+P5vsy46M/6VPUM/NrGIMIi9eDqhCVPJ0yPaRE0Uo4s4WwyLsAxMTfQQFQl8PZKrO3VU3V8nVQHb3D1TsXgPpcDgsGoEDekpmWUSV/EeC/p771N0loaCgTJ05kxYoVmU7SIoQQT+ujd9pjeMzszEII8Tw+/PBDvvvuO0JCQjLs++abb2RsuhA5nLSov2wqNbY2TlQqWo8pfWbzQxl3IJGxm5YTbcriHCWaRBNgYYe9ZeZvkdrWAWsVKMZEAJKMMck7tC5YZNGt3sLeGRWgJMYBEGvQA2BtlflyYk629vILkglFUejWrRv9+vWjeXNZ/1gI8WIc7e1wdXI0dxhCiNeMtbU133//fYbtZcuWpWXLlmaISAjxLCQPe5VUGt7r3BsbQB9ynKvxWbSgqOzRqgFDHLGGzPvIm+Kj0SmgsrACwEJjl7xDH4khi3XQDbGRKIDKOvmB0M4iefIznT4u0+N1SYnIiuoZ/fXXX1y4cIHJkyebOxQhhBBCiCy98847GXr+LVy4UMamC5ELyF/pK6Yk6lOSX0ss0w8kf0BdEDdbLSiBnLsbm+khN26e4T6Qxzl5CTUHm8KoAJSzROkyqwAwceb8YRSgRIGyAJR1T+56f/vuhUzLuBRyRxL1dBRFYciQIWzfvh1r68fP3C+EEE9j+cY9zFi81txhCCFeQzY2NixevDj1Zy8vL2rWrGnGiIQQT0vGqL9CipLET+tXoQMcvepR3DqLehKVlmaeBTl5/wYrjm6kX5F309WoGJj631EUoFbR6gA4OHrS2Ab2JSTx8/nrzK5ZmkerAfRxdxhzPAiA96uWAKBB+fq47N7L5Zv7OJXwAVUfnVDOFMeqcyez6c5fD0ajkSpVqjBkyBBq1Khh7nCEEK+Ju6Hh+AdlHEMqhMgeRqMRd3d3YmJizB2KWSiP9LQMCAiQuXVewKFDh6hVq5a5wxBvCEnUs5uix9f/DM4WD9Nkk8nAvfv+bDu9nQ23IgELJrXugt1j5vD4pHVfll/9H6fP/Ek/a0tmteuBm6Uag+4uX6+eyJagcCxsSzG4TvKyYCoLZ37q+S51li5j1YbPcEkcy9g69bHVqAgN9eWzVd8RaAKtSyPe8nADwDZfYz6utJIpftfo+/tYFvSdRG03e0z6UL5d8yXbg6Nf5iuV66xatYo7d+4wadIk6TImhBBC5CKRkZHcODYRSwuNuUMxi807z/HV1O0c2z4Kizf0NXhRtdpOR6fTmTsM8QaRRD3bhdJv0Ygs92qs8jGy4wTeKZr/sVdxyNeMX7vcoP+GZez87xcqnFhCfnsH7kWFoFPA0saLaX0mUcNRm3KGisKlPmB6wxt8fvAwv22ZwJ+7nXHVqgmJjiAJcHStwtpPJuHyYII6lZZBHcZzLnwMWwKP0unnTuR3zkN09D1iTWq6lKvOxgvSqg5w584dBgwYgK+vL7a2tuYORwghhBDPQAVYaS3e2ES9fYvylCmRFztbK3OHkmtZaSVtEq+W/MZlEzvbwvSt2SHTfSqVBkc7N0p5lKFt+Vo4pRubnselLH1rdsAuT4k02+tWH8ju/JWZvX89x4NuE5WYRBGPclQqWpvhTd6mlEParksqtQW92/1A+WJb+eXobi6EBRNvhHKFqlGndDM+a9wR53TfTzYOxfn9wz9Ysm8x66+cJSReT9GCVehab8JEp1oAACAASURBVAA93KNwtPOkkFfRF3+BcrHExET69+9Pv379KFOmjLnDEUK8ZkoVLYirs4O5wxBCvMZsrC2pUObxjURCiJxFEvVs4uJahWldqzzXuYUKNmFawSaZ7ivgWZMf3362ST8ql2nP72XaP/XxllZufNh6NB+2zrjv5671n6ns19GyZcu4efMmu3btMncoQojXUKcW9cwdghBCCCFyGEnUhXgMf39/hg4dysGDB80dihBCCCGEEOINITNiCZEFRVH46KOPeO+996hWrZq5wxFCvKaMRhMGQ2bLagohhBDiTSUt6kJkYdasWQQEBLB582ZzhyKEeI3NXLyW23dDmTVxiLlDEUIIIUQOIYm6EJkICQnhq6++Yvv27Wi12iefIIQQz0lRFEwmk7nDEEIIIUQOIl3fhchE9+7dGTp0KPXqySRPQgghhBBCiFdLWtSFSGfOnDmEhobyxRdfmDsUIUQucfriNSq0HZD6c143Z/5dNg2AuPgEancbmub4P74bRb1q5QFIMhhwsrd7dcEKIYQQIseTRF2IR0RERDBu3Dj279+Po6OjucMRQuQSpYt5MW38oNSfNZqHHdasra3Y+NvkNMd75nVN/f+gPp2ws7F6+UEKIYQQIteQRF2IFElJSdSrV4/hw4fLLO9CiGdiY2VF8cL5M92nUauz3Afg7Gj/ssISQgghRC4lY9SFIHkypzVr1hAcHMzEiRPNHY4QQgghhBDiDSYt6kIA/v7+9O3bl7CwMGxsbMwdjhBCCCFymsRb9B/pg055usPLNqrDxF6lX25MQojXliTq4o1nMpno2rUrQ4cOxcnJydzhCCGEECInMsayd/9V4p4yUY/PL0m6EOL5SaIu3nhLly4lJiaGadOmoVKpzB2OEEIIIXIytRt//t2H4raPf2awcZDVHIQQz08S9ceIiQ3makQErk5eFHFyeOLxcTGBXIrSUd6zKNaadMP/FSOBYbcIjNeR17UIhR3seNzHu8kYz9WQ28QaNXi5FyKv9WNmBFaMhEbc4XZsLI4O+Snh4oo6u/NNxcCtkGvEWeSlrFvG6xsMcVwOvkWCoqW0RzEcLDXZHMDLs2zZMg4cOIBGk3tiFkIIIYS5aChU2J2S9lK5L4R4eSRRf0DR8eOCAay7r7Bs4I+s2P4TC8/7oTMBaCjmVYvxHT+jo5d7aoJtCDtMq8VzcS/cgh5Otxi5zwc9YGNbgNWDf6e2mwOKMY4Nhxcz7aA3V6JjUosr4lmN4a2H0rt08TQz+pn0QUxa9zOrL57mfpIRAJXakjJetRjRegRvFclHaqOvKZGtRxby44FtXIqKTr2Gs1MRetbtyxcNmuOgST44+v5lWs7/H6gK4P3pT7hYPPrlorBvz3i+8PWnfqvfmF45eVky731T+er4abo1Hcnlo1PZHBAMQLFivdkx4GOc1BBz/xo/bf+VlRdOEmVI7gum0tjRsHxbvmnXn3JOObs2OdFooE+fPlSqVMncoQghhBDiNRUbdJutx8MoVrMc1Zz0rF5zgv1+IeiwoEylEgx8pxpuWjDpY1i96hg+Z4LRYUmZSiX44O0q5LXOOP+zURfPrh2n2XM8gJCoROycHaldtww9W5bA1vKR4xUDR3b4cVuvokObcniv9MH7dDhOnnnp1rUmdUs4Prgg69ccxcc3mEidicIlvejZrTqFLKPYfigIu2Il6VAxbcOVPjaKLVvOcOB0EOFxRlzcXWjQqAKdGhbC+pH2D8VoYNtWP2Kxon3bcoRducbKrRe4HBiLtYMDNWqV4t1OZcisWcqUlIjP7tPsOOLP3chE7FwcqVGrFN1blcJRq0JJ0rF1+wXiFKjXohJedhnTG11MGBv/vY3Kzp23mnthKXUsIheQRD2VibD7QdyMMPHNn5+yIziKysXqUsrJlusBfvjeOcJHvw9g+ahVNHdNnmxMMcXjHxHIrfiN7NfHUaVkQ4pZJ7LjRgKe9nZg0rFg05dMOOaLRmNPvVINKWxvR3DEdQ7f9mXU0mHcfXs6n1cukxyBMYEhvwxkbWgcnu5laFygMLYqI9eCznLc/xBDFp6n2Li1VEn5ADp8dB4fbtmARutK07JN8bSzITo6gD3XzvKH92Tuq+yY06guKsBkTOJmRCCoLDFmMrYqPj6EmxGBFNebUrfFxodzMyKAJbumEK1XaF+5NbrIi8QVqYqDGuKjLtBv/mgORcTh7FSUDkVKYqdK5Lz/Kfb7raFT4E3Wfvg9lZ2sX/q797y0Ggvef/99c4chhBBCiNfY/fO+DJtwgl4TLflh6SYO3k5I3bd1hx9Lt97gxILG9Ov1O/tv69Ls+9v7BgeWd8fhkdw70v8mQ0auZveVmEeLYe36Y8yrVoU/p3WkrHtK2qsksmTKOtaHqbjuc4TZO4NIfto7T7RTQeqWcCQ+NJA+7y7gUFDSw4vtOc/ilccZ8kEpps84QuHe/dMk6gHnLvDhqLWcDNKniWHl6sPMb1GPRd+0xssxJVs3JPLNl+u4iTOJYbf435wjRD9S1NoNx5ixsjoHl3TGWfvwRqOCAhj12Qo2n41OU8aadUf545+qLJvVmRKOKs6s2MKsc4m0is3HX30KpOu1qnB61UaGzbxJnaED6NEiizdJiBxGEvVM7AiOYnjPWUyoWh4VoBii+envYUy7cIu+i2ZxeeQXqS3VALG6+9SpO4FNnVoBEBEXg4uVmit+y/n6mC+29sWY/+EcWuZ9uFaur+8fvL1uOdM3T6Nt6d+pYK0mIfYUG0PjsHBqwM5hk8mXUhuqGKL536L3+eVmOMP3nWNf+yqoSWL+sd0YVPZM7r+YAYWdU699yXcmrdasZ83BtYytX5eCL9ijOzzeyC9DV9AtX3IFRZTBiBojMzdN5VBEHOXK9GJT30E4pn6u6pn85yDmXjzJ595r8H773Ry9DqBanZOjE0IIIcTrYt0Pq7DOm5/vpvWiW70CXDt0nA/G7+DehTM073GeMJUHs35tT8caefDddZih3+wl6OxZfjrcjm8a2CY/l+qjGDxsBXtu6ChZvTwTRjSlSTkX/M9f59sft7LH9zS9xlix9/cOuGrT9qCcuTOU9z97my+6FGHrskMU61oSkz6W0QPmcyjIQN6SxfhufDual3Hg+L8nmDjDh+kzjmS4D334HQYMXcWpcKjSuBoThzSmVjFb/I6e55ufd3F092H6a23Z8mMTrB4NwRTDmJlHqd68Dl8Ork9FT0t2r9vP6OmHCfU7yc9HGjO5sWvyfSbG8r/Rf7H5bByuRQrx9Rdt6VAzH7dOnWfM/7Zx4uQpBn/nhvfUJrw/oi6zPvRh5y+7COvxHu6P3LdJH8PPi24CMLF7/scOPRUiJ5EMJRNelYfzRUqSDqCycGRk18m4AIbw7VyMjkt7gtqdT1u1Sv3R1c4BFSYWHN1BEmrebvNlmiQdoFq1jxhQpjjGuCv8cvwcAIm625gAC4f8PNrDSWXhyMcdB9GyUnve87JGUQCTjoiEeFDZ4umoTXPtMtUG061iQ4bUbYTGaOJFeeavkZqkAzhZaDDFnWTN5RuobUrzW+9Hk3QAKya+M54y1ipOn9vBiaddx0QIIYQQIqdT4lj51wHmLNyf9b8lvoQZM56aaNCwaP77fNi6OK4O1tRq04AfexUAFK4Hmti0oj/vNCyIvY01jTo14+veRQEjO7Zdg5THqYOLN7PnRgKF6tZhz9J3aFfNA1trK8pWL8fy1SNpUtSGu8ePsmhfaIby8zRvy3fvV8TNxYF+w9rQwF3NzdNnWHPTgMomD3tXvE/nmh7YO9jRtHNjNi/siUsmDT7L53hzKsxIlTZN2TmvKw3LuWFlbUPNxjXYvO4Tauaz4My2/ay6oEt3phGvVm1YN70DdUq6YGdvT+d+bVk6sCAAK1ZdSe35eWXfMZb5xWGTtwAHNn1Er4Ze2FtrqVC3Kut+70w+Czjtc/r/7d13dBVV28bh38xp6SEJhBp6lyAgVQURpShFRYqg2FERCxY+ywv23gsKioIoSlFAiogiSlFEpPdOIAkhhEB6O2W+P05EUgTEkoD3tZZrkTMzez9nAuN+ZjfW51pEN2tDCED6LlbHFR1lcGhPPEszwKzQmKYRRdvMIuWZetRLcV/n83EU+8wZVIVbqpu8kuhj3qGjtI34PfG2hVSkQ/HR3d4k1iYlA5Xp2iiGfE9BiXraxtSDzbvZtmcVdGxOYGgHHMZY8hKmc96rG3mw220MaRZLgGmjatWufDqo6+8XG8E0rlSFn9MPcNOr/bj6/CE80rkfVVwmNtPB64Oe+dvuR7XIBiU+i9u2lEQvxFRvRh2jgHxPsROMGjSpGMHWhHiWxqXTtnGFEmWIiIiInHGsbMa98+2Jz3FU5ZJrW1GxWJJrVm3OuTFBx31iUOvcGkAiRnQLakcUbYFWqVsJ2EPB0d+ST4sPvkkA4Mbr2lNycqGdB66qxfevbePbxTt4sFvlIkevHtCw2PxsHz/P+gWAjg/cSMXAon14EfUa8ljPSO6bc+S471/A3BWJYLi49Y6OpXz3CAZ3rsmv0/Yw/6utXH9OyyKH77yuMUU6+jGod0kTGJdAbnIabsCOxaKlOwBo3bMzlYp1LQbUasroB7rgqNuAxi4DR0AoozrYefhnD6/PTqDbg039Cx9bFmu//gkw6PHglQTZ1J8uZw4l6qVoHhBY8kPDTsvq0ZB4kO3JOXDc1pguRyDFXzb68vdzKA8gmcHPduVEMvJS/OUExvB5t/Zc9c0KMo5u5bFp9/HE5w5CAsI4v9kVvNDzBqodexFoMqrPPSwe8wh7C7L5Ytk4vlj2HoHOQKpVPpf/9bqXXjWrnuYdKCoosOTe4rtSkrCA/btmEDN6xgmvP5R+CFCiLiIiImcBM4oZc26hYfCJkj6TyFJa2UENq1F8sXijcKccs07VEh1FtuK7COFm75EcAF5/9H3GlbIqmi/fP2d8377DJY7F1ijWo+zLZfnao2DYubpneCnDwk2aXVgf5qz8/aOCROKTPWB5GXXzyzxVym3Iz/H3pCfuTy5xrH54ySXjTFfhZz5f4fx5Hzv2pAImbTrUK1kBJgOGdCny85AnL+fx7nNYO+UHdt/ZhAbBBlb+Ed6dth8zMJiX+4Ro2LucUZSol2Bg/4M5yzab/3Z5raJDuQ3DKPEP3/IU+IfuOKK57cIehJ7gyRBWoUFhOSbtO7/AyqY7mPHLdD5YvYRD+W4yclJZsHIC3675nFsGjOWZ2BgMILRSBxb93zR+2rqIMUu/4JeUVHILctgd/zM3j/2FJo2vYc4Q/+rsJ3WC0eml7S2e7/GP56pRrS0DGzc+YdHnVo04hQBEREREzgQ2oiqGUvk0tmcLDHJRSrMKANNm/OGxY7w55Bcu/JuZnk3mCU7NzSk5mjOgeI+y5SYlzQLDLDKvu8g1EUV38PFmZJHjAbBIS806Ybh5ufklPrMZpTRMS3xxi/SsfMBOdNSpLLZkYK/aktph89mensTCNSk06BhN3NqdrMyGis1iS/TKi5R3StRLsEh3u4FiveqWj90p/jeTdaJOvoq5LSCCYBvgc9Cz0010KGVbjdIZxEQ3YkTv0dzd4372pMSxIX49H/80hZ9TMhg/ZQR3NphG9QD/ry4kuDLdWw+m23nXkHI0nm2H9vL12pl8smE9W7dNZcz6Lvyv5fFD10ubs26RmZ9byud/rFKI/6HtDKvHyK63aLEDERERkZMorfPjzxVgxzQBI4i3J91Gh+gTtMDsJedjl6zdTlgIkO3jUK4PXCXLy8/MKVqGw4YNMEKrMmPqIGqeII+2uUrbcO3U2G0m4CM3/9TWOjKwM/KSKG6dmcwnc7Zze8eKLP5mDRY2rh7e+bTjECkrStRLMTfpKB2iwop85nOnMT3OP4yne5VT6CF21KdeRAB7Dycxb/M+OpxXp8QpCUmbiCtw0rRKbSJdDnZun8uUHTuIib2Bm2pXwuYIpkG1c2hQ7Rx6Nm1L7HO3kG4dJjUvjyruJMau+J54KvNc1yuxGSbRkbWIjqxFp8YXEZp3I2/siGPrwT1AA8zf/sdgZeLxWRR5VPtyWXMg5U/do2Z1YgniR/bFr2VXgY+GzuIPdi8rd60mMCyGhhWrlvbcFxEREZE/wwwgPMQBGbkcybFRs8ZfHLVoC6Rts1DmJmcxb2E6g/pHFEvmfez8ZV/REEIqERkCyVnppFhhXFjjn0gnTKpXDoWdR9m6/Qg0jy5xxsof1rAz20mbtg1pGO0Ew6Dn8C5Ezp3C7u/XsGZfXT5dcABXxSrce0FIKXWIlG9Kn0rx0Vdj2JV93FAdy8uK9VNY7wEjqAWtwkP/+OLfGEH0btQc8PHF4rfYke0uctibl8Qj0/5H33FDuXPhEn816b8yZvlcnvvqM1LdRXu+vd58/CU4CLI7MGw5fLLsMyYu/ZSvDhbdWxJ8ZHn8Z1cMiQTA5QgqHCNwlE0ZRYcpJexfyrSDReM7mZCY7rSLCsKbvY1RC76i+OCqfbtmcP3EkVzy5jC+Olxy6JWIiIiI/Fl2OtULByxmzllHQSmdzd9PmM21933O2K/2nEJ5Njr3bQNYLHpzJil5RdufmQf28+rsg8VCiOLc+mFg5TBl6vpSZk9aTH5zBjf+30wm/5B4yt+sKJM2Lfwrwa+cv7LkeFBfLuPHzOe+hz9n9u7fVzS2VW5Cq5ggyE9hzMvfsyELGp53LlHKeOQMpL+2pfClraTX+FHM2raWNfs3MOHb57l65hcYhovRQ54k0nFqt23gxUNpHx7E0cNr6P7WnUzZvJo18VtZvv17Br47jG+S0wgKbcz/XXwJYFA7dhhVHAbpCTPp/+kbfLtrI2sTtrJs60JunjCSHKBq/RupEezCDIplYNNG4DnEPR/cxfh1P7MmYRur963njVkPMmlPIvaAWgxo3gIAV3A0g6P9qfoN4x9ixra1rNm/ienLxnL5hy/hCIv6czfJjODRS64mxITFP79Gr8nvsCxuE2vjNzNr+Xtc9vFYjvjgvBYDuDJaW2GIiIjI2cLL4cMZJB06yX8pJ56/fbqGD2tPhAPWz1/MyImbScv/bR84H7vWree+91azcOEG9mWe2jD7Bm1bc0lVB1baXnoMn8eKrYdIOHCUjau3MnTYp+wqvsMaJrdf0xyXAYunLuCFeXHkegrTdZ+bdd8t4emP1jL/640c5PSHvl/a+zxqBxrErV7Nw5/vJrfwa/oK8pk3fi7ztucRUrM2N7Y9fhV9k2E9/Gs5fb14OxhO+t/Q9rRjEClLGvpeigd69GHS9/O5fdLvK1w6nRFc3/MFhtc69dXLzeCGTB76PIMnPM6qIzu4d/L9xx01qBDegDdvfJFWwf7E3xlYlSVD76HLxHFs2j6b67bP/v1sw0aNahey+KbBBBgAJiOueoIdqSOYnbCP/017uEjdIUGVeWrw85wf7vgtGB6/9VUWvfkgcZlbGDZpROGZNurW7sqHXSrRc8LkP3GX4NyWt/Kx28PQ+TNYt3k6V2+e/nu8ppPYpv349KrBehskIiIiZw9fKv16vXzS04wKMST/ePvfXn148/Y8f3Mc936wiSmvTeHzMQE0axJNZmISuw/7R0jWvbAjjw4oOe2yNGZgGB98dhMdr5xIwi8r6dP/9/av3RVE29hIVm48gnncCvTn9OzGqNUJPPF5HK8//AFvPxlCi8aRJOxK5GCmFzBo3+8S7r+44ml/T1f1+rz7WEeuHrWUj56cyKQXQ2jVqAJxO5NIzfFicwVy/8N9qFRsjvwFQy4g5sPt7M+HkDq1uaH56b8sEClLStRLUaXRDWy64BY+WfYZPyWn0bRuJ+5oeyHF+4Ud0Zey+/lLT1hWWFQL5o2cTerhjXyw4lt2pWcSHlaDK9pcQccqlYqdbRAR05e1j/Vl7bZvmLl1DQdz3VSt1Ihr2l1B07Cii9iZrmqMGz6dF9N28vHKb9iYkoIjIIpLz+1N7/p1SvxyA0LPYeWor9mycwGTN6wm04ygX7t+XFTNP+/n0PNDi5zf7/IX6Hf5ie/VhW3vYGvrm/ll8wK+2LaetAKoW6MlN7XrRpUA9aSLiIjI2cLA6bTjObW1zTCcx2WQponLacdZyj7epuE/5rCXcsxm819nL9rt0ffua2jRbhXXPjCPuPR8NmyMB8BudzDo/mt44fpGx231ZuBw2HE5S1lcvVBwpZqs+elxpr43m7e/2EJyjkHrTi149qGuxE+eyICNRwgNPb4danL7Y7fSvv0Srn10EYfzs1mzPtsfgyuI+54ZwsjLYorU4XTacfnw729e/F4ZBi6nHZvDLDJHvnXvbqxqHMOVN01jd0Y2azf664isVYsP372OC2qV3FLZDK3LRc0j+OTXo3S46Nziy0OLnDGUqP8RewWGXHwnQ/6m4qIqxvJQr9hTPr9l4+60bNz9lM4Nr9CAu7s1OPmJhZo26MFzDXqc8vknZTppF9uHdrF9/r4yRURERMqTwHPYvvqc07q0xiV9iF9Tejup6cU9iF9TeruszeU9iL+89GN127bmp8UtyM31+BcKNgxcAQ5cDlvRBeHMQMYsfIIxpxDnNbdfwTW3X3HcJxZrD2cDBg0aRpY4/9xuF7G+ywXk5Lrxr1VsEBDoxFXsxYLhCmLZqif+sN6KtdsSv6b0IeqVGjRh2dLR5OQU4PX5X14EBDpwlJbxF7IbBhhB9O93er8vkfJAibqIiIiIyBnItNkJDvlrzfk1X86k/0vbqN2rLwsfbVxkyqI34zDjF6SAzUn/Do5Sr7fZ7YSG/rMphWnaCAk5tb5xX2YcP2w8QtXW7bisplIdOXNp+rCIiIiIyH9UTNMmZGXksHHq5zz9yQbij+RRkJ/PxpWbuO3OyazNgojaDekc/Bf3gP8HeT35JGW4yTycwv/dN4u4XLh2YBtc5TdkkZPSa6ZjTCpH1qSBzUe4zXby00VEREREznCV6tdn/LBYbhu7kXdenM47LxY9XqVRIz4e169c9+7lp6dz7kVvHfu54UUdGXpp5TKMSOSvU6L+GyOAB2+ZxINlHYeIiIiIyL/FdNDnzgGcd1ELJs7ezNb4dPI9EB4VTtvzm3Jtr8aElPM+LFdwMIO7NyYhw0OdZg154NZ2RJSyOJ/ImUSJuoiIiIjIf5lhUL1ZI0Y1a1TWkZwWW0Awb7x6XVmHIfK3Ks+jWERERERERET+c5Soi4iIiIiIiJQjStRFREREREREyhEl6iIiIiIiIiLliBL1s5Enjh4v96X5q4+y1/v7x5blZfnqj1h0NKPsYhMRERH5Dzu8ZBHNL36RKx5b9pfLcmdnMG7sQgr+UikWC14YS+zFL/Lod0f/ckwi8vdQon5W8nA4M5XkrHSO5elWAR9NvY0rv5jIgQJ3WQYnIiIi8p/lzc8jOSWT1Iy/ll770pMY2Pctnpm2HesvxpSfmUVySiYZ+X+1JBH5u2h7trORWYOJQ8dSYARS49gWkl52HthTllGJiIiIyN/Eysth14E8iCrrSETkn6BE/bR4OZqVjhsbFYJCcZrHD0zwkZadRr5lIyIoDKdp/GEpWD6ycjPI9vgIDAglzOk4pdotXwGp2ZkYtgAqBAZjK16FGUBsTNM//a38hXtJy04n3zIICwwj0G476SVudzZH89xEhlTAfoKvKyIiIvLfYpGXnUd6jofgsCBCXCdvV4FFTlYumbkeDNNGaFgggY7THARrWeRk55GZ4wbTJCw86JTK8rrdHM3IxxHgIjz4ZO1TC3deAUcz8/FhEBQSSGignRM1Cd15+aRl5oPdToXwIE4WkuXzcuRINh5MKlQIxqUGp/wHKFE/BXH7vmHEN/NpfN79PFAzjeGfPs7iZP8cnvCIJrw26El616jE4dTN3PnJoyw+5J8DHl6hCa8NepxeNasWfVhZbnbsXcLDs8fy46HDABiGgwuaD+CNntcSExKMcVxP+PQFj/NZIrx4/ePkbpvGzTMnkpDnAaBq5dY81/dBLj++Dm8it096iUNmHd4eMoKg1LXc8uUE9qT5ABj7xWhmOBwM7fEoPWtW9l/iyeHXzbO4d85H7M3xD8UyHeEM6nQ7/7uwKxUDnL/H79nDLZPehGrduK92LoOmjCHZbREafg5z7xtDU5dmVIiIiMh/W9aRVN55eRZvzI3zT0U0nYx46jquc/7B8HKfh40/rWXUq9+zYlfmseHspsPF5QO78MJd7agU4k+Av5v8NW8v2MURC9zpRxhw0wcYmHw09iYqBBj4PG42/LyBp15fxI87jlubyHTQc9AlPD28LTXCnKUFwYbvlnHrE4uIS/OAYaPNpW147dFLaFQpsNipXhJ27uOl1xcw/ccD+I47FNuxNS8+cinn1Qz5vX1qWeSmp/HWq7MZO3cXOf6mLEGRUQy/rzfD+9QjqFjvkyc/n+XfLOeB539gX6a/BltgCEPv7cX9VzehQuCpvPgQOTMpUT8F2TmHWL53HakRC/l4xif4sOG0O7F8HtKPbuWW8ffwwU3DGfr+aAzDf8zn85CetpVb3r+HT0dOoWt44a22LCZMu4OH1+8CDOymHZtp4PV6+XH9p7ReP41pD8yic8WwYw+2+IObWR7n47tFI3hyySbsph2X3YnP6yEpeRU3jbuF54bP4NbqhQ9QK5fVceuIt3nIA+z56fwctxFf4RN/V8IW9hgGvXPzAfC5j/Dg2Ov4NCkbMHDYHJgGeNwZfLroJb5cPZ8l979NzWOvO7NYvXcd+elp/LgsjgzDjtMGuTkHiNHfKBEREfmPc6fE0bPPh2zNtDBME5fdwPJ5eGPUBJY0q1jifMvn4YPhr/C/ZVlgGDgcNkzTwPL58LjzmTf5a+bN2srOH28h3GGQEp/ML+uT/cmxu4BfVu8DTNxewLJ4Z/QEnp4bDwbHysJnUeB289WnC1i0PJE1Xw6gYrHEeOes6fRYcQCfzcTltOP1evl14Qo6LVnH3MWP0ibMLGyfWqz68lt6PvYTFmB32HCYBlgWBkU45QAAEnNJREFUHreXjctWcfkvu5j69X10qexPpn2+fDpf9gZ7M73YbCYup4llWeQdTeXl0R/x/uxL2TTxIlyFvVU+Ty5PDR/DuBXpYBg4nXYMLDz5WYx7YSqfz2nOj5/1J0q963KWUlr1J2xf8wmV6t/MkmsHEuF04vGkM3L8DUxNOMht4x+nVuPbWDioH6F2B25PJveMv5FZCYf48KdldL38YsAiZevrjF6/C3DxzA3juL5+TZymQX5BOuOnD+OZrQcZ9PYIlj88nrrHvyX0pPHUkiyGDfqAh5rUJsBuo8CdyXOT72DczgOMmzOeW4fdU2rc0dUuYPuo6Tz1zgA+OWLxzB2TGBgdSYAzCLCYtfApPk3Kxu6oxIIHJtI4JAi7YZGTk8jdH9zFV8mbuGL8y6y986Ei5aamxNGk6bWsuuYmAk04eGg/ISca6i8iIiJy1vPx+KMz2ZppUbP1eXz7Tk/CA+343B6+e3cyN324p8Tib+kJmxm1LAtw8ukX93JR3VAcdgOvx0PClm2cf+00PNlxLEvOpVeNIPqOGET3AbvpdOVnHI2sxNq5t+ECQoMgd+svvPFVPDjCGPvZMHrVD8ZpB6/HR0b8djr2n0LK3k3MWtmDoR3Ci8SxdsUBWvTrybSHWhPmsuHOyebtR97n5R+OcsVlk9ix+EZCHQbkH2L0q8uxMLn2saE8d2U1Ahwmls9HdmYaQ655l+UJaXw0ZQtdRsQCFjs/mkRcppemV/ZmzqhWhDjtWD4viVu20mHwNNJXfce6wx1oV8kFwMwxMxi3Ip3QqjX5evr11AlzYgNycjK5/5ZxfLllAzc9VYM5T53/L/xORf59GqP8J5j2EL657joqBgRgM01czgj6tugIgD2wOl9fN5hwpwvTNHE5wxnUrDUAB1N2A2B587lj5le4gRuveolbG9UlwG7HNG0EBkRy1+D3aR9gw1ewm4+27yhRf4WYgYyOrU+Qw4FpmAQ4wxnasR8GcDRzyx/HbXMQHhiKqzCJDgwI8f9ss+HN2sIrP68FM4RX7vqY2LBQnDYbpmknJKQWY254gto2SExcxpfp3mIl27n5woGEOhzYbQ5qVK2HYShRFxERkf8u76FtzFt1BCOkMu+90ZvIYCc208ThcnLZiOsZ2Dy8xDWZiZl0bF6Z9jdfQ5eG4TgdJoZhYHc4qBXbgCG1/eftTPPv3OMKdBEe4sIEDMNGeFgg4WGBmIbB/mQvrWIr031wZ/o2CcXlMDEME7vDTmTdplzSIBywSE7JKhGHUakxHz/cjohABzbTJCAklHufGUIDO3jTd/NDUh4AuYeyiImtSZM2sTzfP4ZApw3DMDBtNkIrRHFz91oApCal+wu2LH5ekYgFXHppTcICHJimgc1up2ZsEx6/OJxWbRtzNKdwAH3eQd6bvh2c4YyZdCMNIwJw2ExMm0lIaDhvv9uf+gGw8ttVbPpri+eLlFtK1P8El7Mp0c6itywy2L/UZkRoA6KKDR+KCg4DwOPzP1TdnnR+zfUAwVzTqCnFO59NexivdI7FAOZu3lii/nbnXYmtWCIcHVYJO+D1nt6Wa/sTNrHbA+EV6jMwOojieXZwRAtubloDfJlMWLWrWMA1iK0Welr1ioiIiJyNti3axEE31GvTmJYVig1eNewMu7JOiWtiOlzIF5/dzZz7GxZbJNjHwb0HSS6cz11wCklpo4sv4PNP7+aTkW1LLOiWtDeBlCx/YR6fr8S13W6/hMoBRdu6zrCKjOjhb9N+vOgIAIEx9Xh/3FCWTOxPQLFKslIPszMpBwCvr7CTxzBo1646BvDe6Kk89v5KtiXlFh6zc9vbI1kw4Tp61PJP4zz061Y2Z1hENYihW7WSc+ldFWtx/jkh+LIOM29l7slvisgZSEPf/wR7UDXMYo+833qQHfawEuebRtEHnbsgDo8PsNWjcqkraBrUbdQW54J1JB2KK147taLCSzxwbaYNO5z2/pmJaUkAVAhpQOnLcdhoUKM+bExgX+I2oNHv0QZUINKudz0iIiIiv9myIw2AmJqRpfaI1WtenRDWlXrtrg07+PrHvWzbnUp80lH2xR8h6Wj+seOn3t7zsWfzHr5espste1JJKCzrwJH8E17VqXVoydXaDZOW51WHeRls2ngQqH7s0NGkg8z9divrdxxif2Ia8YlH2XcwC2+JQA0aXz+Q1lPe5NfkVMa9NYdxb88jpm5VLmhfn8svbUaPNlWPnb1792E8QOrmTVRtNuqEMe/dkwoX1jjZDRE54yhR/xNMu/MEW02cfMi3ZfnfLmIPxv4Hc7nNwGBsgLuUHnJbiX3Y/roCr//VrM0R/IfnOJ0B/j94iz3cDdsfJPciIiIi/01Zuf5eZJer9Ga2GRaIs1iTzuvO5Y3HJ/PK3H3HklzTbqdqtUguaVOVgk3rWXbgFAPw5PLW01N5aeZuCgrLMmx2qlaNoEuraqRt3sGapNJ7oYMcpbc17SH+eeP5eb+1T30snLKAu19ezpFjvfwGUdHhtG7fmGjPEeb+eqhIGYazAnNm38WYsYuZs2Q3W+IyiN+dyNTdiUz9dCl127Zi5pg+VAuykZXrryc4sgIt60ee8OvWjVQ6I2cn/c3+F5lmpH9oeUEqeV6LEmPfAXfaQdyAPbDk/KV/QrAzCICCvNQ/PCczy78VnSMo6l+JSURERORMFVXBP2oyM6P0ZNibmXcsgQbAslgzdQYvztmHERDK4EEd6Nu1EW2aVPLveW65eWbABpYdsLCsk/epLxk/g2dn7MYeHMrAfu3o160x7ZpVIaCwd+Wh615lTVIupRWVmlNyODxYZCVnAlC5in8EacralQx7bjkZpoOOPVpyw5Xn0rF1DBGFw+YXjv2Mub8eKlGHLSSKe0dezb0j4dC+RL6cv575S3axZvMh9qxczeA3GvHdI00JC/YPd49u2IgZH/Q+he4wkbOPxi3/ixzOGP+WE9Yu9qXllDzB8rF0zTLcQP1q9f+VmGpH1cQGHMncSm5pz34rn1/3bAUMmtdp9q/EJCIiInKmat2yKjZg+7akogl5oe2r95N93M+WN5vX3t4GwC2vDOWNBzrRqXllf5IOWJ481u/zF+Q7aZ5uMfbr/VjAtff25+2Rnbno3N+TdPCxN71we95S5qgv/TmjxPB6y/Iwf9F+AC44vwoAs2duJMOCczpfwIxX+tDnwlrHknSAPQlZhdH4S7N8PuL3H2bJd+s4nO0fcRBdqzq3DbucL6fezbcvnAfAllmrSbOgUaPKOID4PQdI8ZTaQCXtaBbp2QWlDLMXOTsoUf8XORyh9KvgBHy8+MtyPEVeM1oU5B9m+KpEAAbGNvnb6/9tobjjH/KVa7aifaBBTsZeHt6QjK9YTAf3fcf4vRlgj+TuVpX/9phEREREzibVLm1Hk3CDw+s2MGltdpFjls/DS9N3F02GPV4OF84urFXNUfSYZRG3fjNLCvt3cvN+P2oY/sGZ1rF0GMAiq8CfCEdFBJaILX3Tj/wa5y/M7SklUX/3S/ZnHb/Lj8XRvft4ba0bMLjjPP8iwunZ/qHpYRVCSiT2nuwkPlsc7/+zp3AVPF8Bw/u8Qf8RXzB1Q2qJnvaIev4XAEawCztQoXUsbSoZeA7F89DEuJJ1HI3j8m4v0KDds7y+Iq/E9xA5GyhR/zcZdp69bRRhNvj1p+foO/1jUt3+h+Shgyvo8tJg0nwWARUvY0Cdmn9z5XYqFj6vf9qf8vsDz16dR3r2A7xMnTaEe5f+TEFhJr9242S6TniVAiC26bW00EQJERERkROzRTFiYGPAzeN3vMO4H1P8n3uyueu61/l2V9Hk3XAFc3lL/1Dvp2+dzLrkwqzdW8Cs92fR+dZ5x849fOS4JDrISTDgzsxhTfpvSbdJm+ohAIx7fS4rD/jLsrwe5k+YSavrFpJd2AjMyillYbm8JLoPmcbWVP/E8/3r1tN10Mf4gJpXXUOdwlXs2zarBMAv8xbz3vLC6ZOWxbZlKzi/+3tsTfdXkpvrr8OwuXjr0QaYwDPDJzB+6cFjVabs2sGVN8wHoOfdnQg3AVs49w/1b3M8/+2PuP7V1fz2DVN3bePy/pPZlQuVzmnKXe0CSvstiJzxlHr9qwwc4Z2Yfc3NXDV1AivWTaDZxskE2kxyCvLwASEVL+DbO+4rsdXbX6/aTo8W7Xl+/3K+nHUn3813cEOfV3i8VSytWwxlfNphhn73A9MWPMLMRQE4schx52MBrZrfyNT+fTU/SEREROSkDHoNu5pRyZ/wzOx9PHbHm7wQ7MSbX0C+B+6+qy2T3ll53Ol2bn3uet7p9gEZRxLp3vVZQoIcePLd5Ll9VI+N5bVePgY+v5mflu7D06cidsAMjub8pi52bsqk70VPE+SAHxY+ysin+/BN/0nsOrCf3j2eITjIibfATW6Bj4pNY3mufR53T9jJtu3JQOMikf/f4xcy7tkf6dzlWYJcJnk5brxA3Y6dWPTEOdgLG4MXDO7OVd/sZtbmLB677Q1eCHZieD1k53mxh0fz3tPNeGD09yQlpJADBBkGtfoN4tb5b/L+qnRGDR/DM4FO7IZFTo4bH1CtfSfe6B1d2N406DjgMsak5nLXe5v4ZuIsanw2j0C7QXZOAT4LwmrW5ZM3ryRA3Y5yllKifgpqVOvI+EE1cATElEhWY2pexPhBtQkMrFbyurrdGD+oKSEhRbeMOKfZDSwb0YH5G7/nu92bSc33UaViXXo3v4TuDc8lpEiSbtLrogeo38pD/Uol11g3wxrxzqAnwB5y3IeVeb7/E+QYYVQ+VpRBo7ajGeeZxJQtG8n02Qm3+Z9sps1Fny6jaNawN1+uX8TyhL3kWA7qVY/litgudKpVD9fxD0EzhhcHPkGeLYJIZe8iIiIiRZiOAO5+8gYuvHwbU2ZvYFN8JhHVqnLdoA5c2tBBq9p1CKhc6dj5odVqsfqbO/lsxioWrU4i17JTq351Lrv0HLq0jcFRkMb4qGZgD8bjtbDbDDBc/O/1W4kav5SlW45gCwok27KoVa0ec6cNY8bsNSz8NZEsr0lMner06d6ELu1q4so+QkjTJHxBoRRY4DTgvGt6M76jm3M7NuHqpvX4aMqvrNqbRVT1aK7o1YpeF9Ys0hY0A8J4c/wwLvt6HV9+v5OkDC8Vq1SkW9dmdO9YjyrBHiJDK5HmtZNRYBHkNDBMJ898cA+9lm9lzrfb2LQ3jQJs1KpXnV6XxdK9fUyR1fANu5MBw/tz3sVtmPP1RpZtPEh2AUTXiObSLufQo1M9KocolZGzl2H9wfKRy1dv4tFXJrB4ymv/WOVOp5M9j83HZXf+Y3WInMgFrw3hs/kzaN26dVmHIiJnqNGvTcRmmjwx4oayDkXKqUde/oCQ4ED+d+e1ZR3Kf5LX68Vht5Ow7kkcdm0sK6en7WWvMWnyLDp16lTWoUgpPF4v9ToP4fvJr1CvVskO1DORBouIiIiIiIiIlCNK1EVERERERETKESXqIiIiIiIiIuWIEnURERERERGRckSJuoiIiIiIiEg5oj0NREREROSsZgEDhn6EaWpfWTk9iQfTyzoE+Y9Roi4iIiIiZy3TNJk3bx4HDx4s61DkDHYD0LJly7IOQ/5DyjxRn7jiS+2jLmXmcNbRsg5BRERE/kGGYdCzZ8+yDkNE5E8p00R9yJAhrE5NKMsQ5D/u4su6Urdu3bIOQ0RERERE5JgyTdQ//PDDsqxeREREREREpNzRqu8iIiIiIiIi5YgSdREREREREZFyRIm6iIiIiIiISDmiRF1ERERERESkHFGiLiIiIiIiIlKOKFEXERERERERKUeUqIuIiIiIiIiUI0rURURERERERMoRJeoiIiIiIiIi5YgSdREREREREZFyRIm6iIiIiIiISDmiRF1ERERERESkHFGiLiIiIiIiIlKOKFEXERERERERKUeUqIuIiIiIiIiUI0rURURERERERMoRJeoiIiIiIiIi5YgSdREREREREZFyRIm6iIiIiIiISDmiRF1ERERERESkHFGiLiIiIiIiIlKO2E908EBKKj+v3fJvxSIiInLG2bZnP+fUr13WYUg5tysukZ1xiWUdhojIWcnj9eL1ecs6jL/VHybqlStGUi06ipEvvPdvxiMiInLGGdy7S1mHIOVYvZpVmff9z/Qd9lhZhyIictaKCAshMNBV1mH8bQzLsqyyDkJERERERERE/DRHXURERERERKQcUaIuIiIiIiIiUo4oURcREREREREpR5Soi4iIiIiIiJQjStRFREREREREyhEl6iIiIiIiIiLliBJ1ERERERERkXJEibqIiIiIiIhIOfL/ywIDq0Xy+f4AAAAASUVORK5CYII=;" vertex="1" parent="eJwGy8HMhK4u4onspVvN-1">
          <mxGeometry x="110" y="60" width="1002" height="451" as="geometry" />
        </mxCell>
      </root>
    </mxGraphModel>
  </diagram>
</mxfile>
